<svg width="215" height="31" viewBox="0 0 215 31" fill="none" xmlns="http://www.w3.org/2000/svg">
<path d="M138.817 10.6071C141.885 9.92308 144.696 8.1941 146.581 5.6651C146.74 5.4511 146.383 5.17409 146.21 5.37909C144.249 7.70109 141.659 9.43111 138.698 10.1751C138.418 10.2461 138.537 10.6701 138.817 10.6071Z" fill="#696969"/>
<path d="M146.468 5.21711C146.295 5.03011 146.199 4.79311 146.119 4.55411C146.049 4.34311 145.897 4.02711 145.985 3.80311C146.008 3.74311 146.067 3.6781 146.134 3.6681C146.165 3.6631 146.179 3.68909 146.205 3.73209C146.318 3.91809 146.355 4.12611 146.518 4.28611C146.6 4.36611 146.744 4.3931 146.844 4.3281C146.995 4.2301 147.247 4.03309 147.443 4.10309C147.487 4.11909 147.542 4.1641 147.559 4.2081C147.582 4.2661 147.525 4.2981 147.485 4.3671C147.422 4.4771 147.407 4.61909 147.473 4.73209C147.55 4.86409 147.685 4.9031 147.827 4.9191C147.971 4.9361 148.14 4.9531 148.253 5.0311C148.26 5.0361 148.286 5.04811 148.278 5.07911C148.263 5.13511 148.202 5.1661 148.153 5.1861C147.98 5.2551 147.763 5.24011 147.581 5.22611C147.188 5.19511 146.792 5.10312 146.396 5.13212C146.225 5.14512 146.078 5.26911 146.078 5.45011C146.078 5.61411 146.223 5.7781 146.396 5.7681C147.068 5.7271 147.811 6.03209 148.448 5.69809C148.812 5.50709 148.99 5.0141 148.692 4.6861C148.585 4.5681 148.434 4.49609 148.281 4.45609C148.2 4.43509 148.118 4.42409 148.035 4.41309C148 4.40909 147.965 4.4051 147.929 4.4021C147.906 4.4001 147.883 4.3981 147.86 4.3971C147.808 4.3901 147.814 4.3971 147.88 4.4191C147.902 4.4571 147.924 4.49509 147.947 4.53309C147.938 4.60309 147.947 4.61209 147.976 4.55909C147.989 4.54409 148 4.52811 148.01 4.51111C148.033 4.47311 148.051 4.4301 148.064 4.3881C148.091 4.2971 148.091 4.19509 148.068 4.10309C148.024 3.92809 147.905 3.77611 147.754 3.67911C147.368 3.42911 146.915 3.6461 146.571 3.8631C146.68 3.8771 146.789 3.89109 146.897 3.90509C146.818 3.82509 146.785 3.70111 146.741 3.59711C146.679 3.44911 146.601 3.31309 146.466 3.21909C146.152 3.00009 145.749 3.16509 145.558 3.46509C145.335 3.81609 145.476 4.2431 145.606 4.5991C145.732 4.9441 145.876 5.28209 146.139 5.54609C146.352 5.75709 146.671 5.43611 146.468 5.21711Z" fill="#696969"/>
<path d="M146.768 3.60209C146.7 2.94609 146.918 2.29511 147.37 1.81211C147.767 1.38811 148.386 0.957117 148.987 0.929117C149.301 0.914117 149.56 1.11911 149.789 1.31111C150.008 1.49511 150.248 1.6991 150.369 1.9651C150.61 2.4951 150.162 3.16512 149.789 3.52012C149.309 3.97612 148.721 4.1381 148.077 4.1811C147.771 4.2021 147.661 4.68209 148 4.74909C148.753 4.89909 149.546 4.5871 150.132 4.1211C150.742 3.6361 151.262 2.79911 151.107 1.99311C151.033 1.60811 150.777 1.27911 150.496 1.01811C150.197 0.739106 149.855 0.455092 149.463 0.322092C148.688 0.0600918 147.733 0.589091 147.173 1.10209C146.471 1.74409 146.141 2.7321 146.305 3.6641C146.35 3.9241 146.796 3.86709 146.768 3.60209Z" fill="#696969"/>
<path d="M149.914 0.692101C149.384 0.809101 148.859 1.08809 148.498 1.49709C148.4 1.60809 148.524 1.78909 148.661 1.70809C148.88 1.57809 149.1 1.44609 149.327 1.32809C149.435 1.27209 149.541 1.22309 149.646 1.18209C149.77 1.13409 149.885 1.07608 150.008 1.02908C150.096 0.995076 150.157 0.911079 150.13 0.814079C150.103 0.719079 150.006 0.671101 149.914 0.692101Z" fill="#696969"/>
<path d="M149.65 1.3171C149.509 1.4491 149.379 1.59109 149.261 1.74309C149.198 1.82409 149.119 1.91008 149.078 2.00408C149.035 2.10108 148.996 2.2001 148.962 2.3001C148.942 2.3571 148.974 2.43308 149.027 2.46108C149.079 2.48808 149.159 2.48908 149.2 2.43908C149.257 2.36908 149.316 2.30207 149.378 2.23607C149.417 2.19407 149.448 2.14507 149.481 2.09807C149.496 2.07707 149.511 2.05609 149.526 2.03609C149.532 2.02809 149.538 2.0201 149.544 2.0111C149.566 1.9811 149.532 2.02608 149.546 2.00808C149.663 1.86108 149.788 1.72208 149.926 1.59408C150.001 1.52408 150.002 1.38708 149.926 1.31808C149.846 1.24408 149.73 1.2431 149.65 1.3171Z" fill="#696969"/>
<path d="M149.952 1.6461C149.945 1.8871 149.897 2.11709 149.801 2.35209C149.795 2.36609 149.795 2.36711 149.8 2.35411C149.794 2.36911 149.787 2.38311 149.78 2.39811C149.769 2.42311 149.758 2.4491 149.747 2.4741C149.737 2.4991 149.735 2.5041 149.742 2.4871C149.717 2.5461 149.689 2.60411 149.658 2.66011C149.601 2.76511 149.53 2.87511 149.463 2.95711C149.394 3.04211 149.38 3.1621 149.463 3.2451C149.539 3.3211 149.675 3.3251 149.751 3.2451C149.953 3.0301 150.129 2.7761 150.223 2.4951C150.314 2.2241 150.354 1.93211 150.341 1.64711C150.332 1.39611 149.959 1.3941 149.952 1.6461Z" fill="#696969"/>
<path d="M164.278 13.8561C167.346 13.1721 170.157 11.4431 172.042 8.91409C172.201 8.70009 171.844 8.42308 171.671 8.62808C169.71 10.9501 167.12 12.6801 164.159 13.4241C163.879 13.4941 163.998 13.9181 164.278 13.8561Z" fill="#696969"/>
<path d="M171.929 8.46509C171.756 8.27809 171.66 8.0411 171.58 7.8021C171.51 7.5911 171.358 7.27509 171.446 7.05109C171.469 6.99109 171.528 6.92611 171.595 6.91611C171.626 6.91111 171.64 6.93711 171.666 6.98011C171.779 7.16611 171.816 7.37409 171.979 7.53409C172.061 7.61409 172.206 7.64112 172.305 7.57612C172.456 7.47812 172.709 7.28111 172.904 7.35111C172.948 7.36711 173.002 7.41209 173.02 7.45609C173.043 7.51409 172.986 7.54609 172.946 7.61509C172.883 7.72509 172.869 7.86711 172.935 7.98011C173.012 8.11211 173.147 8.15109 173.289 8.16709C173.433 8.18409 173.602 8.20109 173.716 8.27909C173.723 8.28409 173.749 8.29609 173.741 8.32709C173.726 8.38209 173.665 8.41409 173.616 8.43409C173.443 8.50309 173.226 8.4881 173.044 8.4741C172.651 8.4431 172.255 8.3511 171.859 8.3801C171.688 8.3921 171.541 8.51709 171.541 8.69809C171.541 8.86209 171.687 9.02609 171.859 9.01609C172.531 8.97509 173.273 9.28011 173.911 8.94611C174.275 8.75511 174.453 8.26209 174.155 7.93409C174.047 7.81609 173.897 7.74411 173.744 7.70411C173.663 7.68311 173.581 7.67211 173.498 7.66211C173.463 7.65811 173.428 7.6541 173.392 7.6511C173.369 7.6491 173.346 7.64709 173.323 7.64609C173.271 7.63909 173.277 7.6461 173.343 7.6681C173.365 7.7061 173.387 7.74409 173.41 7.78309C173.401 7.85309 173.41 7.86209 173.439 7.80909C173.452 7.79409 173.463 7.77811 173.473 7.76111C173.496 7.72311 173.514 7.6801 173.527 7.6381C173.554 7.5471 173.554 7.44509 173.531 7.35309C173.487 7.17809 173.368 7.02611 173.217 6.92911C172.83 6.67911 172.378 6.8961 172.034 7.1131C172.143 7.1271 172.251 7.14109 172.36 7.15509C172.281 7.07509 172.248 6.95111 172.204 6.84711C172.142 6.69911 172.064 6.56309 171.929 6.46909C171.615 6.25009 171.212 6.41509 171.021 6.71509C170.798 7.06609 170.939 7.4931 171.069 7.8491C171.195 8.1941 171.339 8.53209 171.602 8.79609C171.813 9.00609 172.132 8.68409 171.929 8.46509Z" fill="#696969"/>
<path d="M172.229 6.85111C172.161 6.19411 172.379 5.54311 172.831 5.06111C173.229 4.63711 173.847 4.20611 174.448 4.17811C174.762 4.16311 175.021 4.3681 175.25 4.5601C175.47 4.7441 175.709 4.94812 175.83 5.21412C176.071 5.74412 175.623 6.41511 175.25 6.76911C174.77 7.22511 174.182 7.38709 173.538 7.43009C173.232 7.45109 173.122 7.93112 173.461 7.99812C174.214 8.14812 175.007 7.8361 175.593 7.3701C176.203 6.8851 176.723 6.04811 176.568 5.24211C176.494 4.85711 176.238 4.5281 175.957 4.2671C175.658 3.9881 175.316 3.70412 174.923 3.57112C174.148 3.30912 173.193 3.83811 172.633 4.35111C171.931 4.99311 171.601 5.9811 171.765 6.9131C171.811 7.1731 172.257 7.11611 172.229 6.85111Z" fill="#696969"/>
<path d="M175.375 3.94009C174.845 4.05709 174.32 4.33609 173.959 4.74509C173.861 4.85609 173.985 5.03708 174.122 4.95608C174.341 4.82608 174.561 4.69311 174.787 4.57611C174.895 4.52011 175.002 4.47111 175.106 4.42911C175.23 4.38111 175.345 4.32309 175.468 4.27609C175.556 4.24209 175.617 4.1581 175.59 4.0611C175.564 3.9671 175.468 3.92009 175.375 3.94009Z" fill="#696969"/>
<path d="M175.111 4.56609C174.97 4.69809 174.84 4.84009 174.722 4.99209C174.659 5.07309 174.581 5.15908 174.539 5.25308C174.496 5.35008 174.457 5.4491 174.423 5.5491C174.403 5.6061 174.436 5.68208 174.489 5.71008C174.541 5.73708 174.621 5.7381 174.662 5.6881C174.719 5.6181 174.778 5.5511 174.84 5.4851C174.879 5.4431 174.91 5.3941 174.943 5.3471C174.958 5.3261 174.973 5.30509 174.988 5.28509C174.994 5.27709 175 5.26909 175.006 5.26009C175.028 5.23009 174.994 5.2751 175.008 5.2571C175.125 5.1101 175.25 4.9711 175.388 4.8431C175.463 4.7731 175.464 4.6361 175.388 4.5671C175.307 4.4921 175.191 4.49109 175.111 4.56609Z" fill="#696969"/>
<path d="M175.414 4.89513C175.408 5.13613 175.359 5.36612 175.263 5.60112C175.257 5.61512 175.257 5.6161 175.262 5.6031C175.256 5.6181 175.249 5.63211 175.242 5.64711C175.231 5.67211 175.22 5.6981 175.209 5.7231C175.199 5.7481 175.197 5.7531 175.204 5.7361C175.179 5.7951 175.15 5.8531 175.12 5.9091C175.063 6.0141 174.992 6.1241 174.925 6.2061C174.856 6.2911 174.842 6.41113 174.925 6.49413C175.001 6.57013 175.137 6.57413 175.213 6.49413C175.415 6.27913 175.591 6.02513 175.685 5.74413C175.776 5.47313 175.816 5.1811 175.803 4.8961C175.793 4.6441 175.42 4.64213 175.414 4.89513Z" fill="#696969"/>
<path d="M147.01 11.2791C147.839 14.3071 149.697 17.0421 152.313 18.8011C152.571 18.9741 152.786 18.5731 152.551 18.3931C150.158 16.5631 148.318 14.0531 147.442 11.1601C147.359 10.8851 146.934 11.0001 147.01 11.2791Z" fill="#696969"/>
<path d="M152.758 18.6811C152.936 18.4991 153.165 18.3871 153.4 18.2961C153.608 18.2151 153.945 18.0331 154.172 18.1291C154.222 18.1501 154.28 18.1981 154.293 18.2511C154.304 18.2951 154.282 18.3101 154.248 18.3311C154.064 18.4441 153.856 18.5011 153.707 18.6671C153.633 18.7491 153.593 18.8941 153.665 18.9931C153.773 19.1431 153.974 19.3761 153.928 19.5781C153.917 19.6261 153.87 19.7051 153.817 19.7171C153.759 19.7301 153.733 19.6821 153.675 19.6521C153.383 19.5031 153.152 19.7111 153.129 20.0021C153.117 20.1481 153.119 20.3341 153.034 20.4521C153.032 20.4551 153.005 20.4771 153.005 20.4771C152.93 20.4701 152.889 20.3821 152.867 20.3221C152.804 20.1481 152.806 19.9451 152.814 19.7621C152.83 19.3811 152.896 18.9931 152.85 18.6111C152.829 18.4411 152.719 18.2931 152.532 18.2931C152.375 18.2931 152.195 18.4391 152.214 18.6111C152.287 19.2741 152.026 20.0171 152.364 20.6401C152.561 21.0041 153.058 21.1931 153.39 20.8841C153.505 20.7771 153.576 20.6251 153.61 20.4731C153.629 20.3901 153.639 20.3041 153.646 20.2191C153.65 20.1761 153.652 20.1331 153.653 20.0901C153.653 20.0721 153.654 20.0541 153.654 20.0361C153.66 19.9831 153.65 19.9881 153.624 20.0521C153.586 20.0741 153.548 20.0961 153.51 20.1191C153.441 20.1051 153.433 20.1121 153.486 20.1401C153.497 20.1481 153.509 20.1551 153.52 20.1631C153.565 20.1891 153.614 20.2111 153.664 20.2231C153.754 20.2451 153.849 20.2441 153.938 20.2201C154.116 20.1731 154.273 20.0431 154.364 19.8841C154.593 19.4871 154.364 19.0521 154.131 18.7201C154.117 18.8291 154.103 18.9381 154.089 19.0461C154.171 18.9561 154.293 18.9171 154.403 18.8651C154.542 18.8001 154.67 18.7141 154.756 18.5851C154.967 18.2661 154.792 17.8631 154.484 17.6841C154.121 17.4731 153.707 17.6291 153.354 17.7761C153.016 17.9181 152.681 18.0741 152.43 18.3501C152.23 18.5721 152.547 18.8951 152.758 18.6811Z" fill="#696969"/>
<path d="M154.445 18.8861C155.077 18.7891 155.745 19.0031 156.224 19.4211C156.661 19.8011 157.129 20.4031 157.173 21.0041C157.196 21.3261 156.977 21.6081 156.792 21.8501C156.618 22.0771 156.407 22.3381 156.132 22.4471C155.63 22.6451 154.977 22.2501 154.626 21.9131C154.151 21.4571 153.952 20.8841 153.878 20.2431C153.861 20.0981 153.781 19.9801 153.627 19.9591C153.499 19.9421 153.331 20.0241 153.31 20.1661C153.197 20.9241 153.529 21.6961 154.021 22.2641C154.52 22.8401 155.343 23.3101 156.127 23.1691C156.538 23.0951 156.879 22.8171 157.142 22.5061C157.405 22.1951 157.68 21.8421 157.795 21.4441C158.023 20.6511 157.454 19.6991 156.898 19.1661C156.22 18.5151 155.238 18.2231 154.32 18.4321C154.017 18.4991 154.151 18.9311 154.445 18.8861Z" fill="#696969"/>
<path d="M157.454 21.9041C157.312 21.3791 157.011 20.8671 156.584 20.5241C156.532 20.4821 156.464 20.4691 156.408 20.5141C156.358 20.5541 156.336 20.6301 156.373 20.6871C156.515 20.9021 156.66 21.1181 156.789 21.3411C156.853 21.4521 156.912 21.5671 156.964 21.6841C157.018 21.8041 157.081 21.9181 157.134 22.0391C157.169 22.1181 157.281 22.1421 157.353 22.1111C157.432 22.0761 157.477 21.9911 157.454 21.9041Z" fill="#696969"/>
<path d="M156.821 21.6691C156.675 21.5271 156.516 21.3971 156.349 21.2791C156.264 21.2191 156.176 21.1541 156.08 21.1161C155.99 21.0801 155.898 21.0511 155.805 21.0241C155.737 21.0041 155.664 21.0431 155.637 21.1071C155.608 21.1771 155.637 21.2421 155.695 21.2851C155.715 21.2991 155.734 21.3141 155.753 21.3281C155.774 21.3441 155.738 21.3161 155.758 21.3321C155.766 21.3381 155.774 21.3451 155.782 21.3511C155.817 21.3791 155.85 21.4071 155.884 21.4361C155.964 21.5031 156.059 21.5531 156.144 21.6131C156.181 21.6391 156.218 21.6661 156.254 21.6941C156.27 21.7061 156.266 21.7041 156.253 21.6931C156.261 21.7001 156.27 21.7061 156.278 21.7131C156.297 21.7281 156.316 21.7431 156.334 21.7591C156.406 21.8191 156.476 21.8821 156.543 21.9471C156.616 22.0181 156.747 22.0251 156.819 21.9471C156.891 21.8681 156.899 21.7451 156.821 21.6691Z" fill="#696969"/>
<path d="M156.509 21.9801C156.252 21.9851 156.032 21.9501 155.786 21.8621C155.665 21.8191 155.565 21.7831 155.466 21.7341C155.349 21.6771 155.238 21.6091 155.134 21.5311C155.053 21.4721 154.926 21.5101 154.871 21.5831C154.815 21.6591 154.809 21.7841 154.887 21.8501C155.111 22.0411 155.371 22.2091 155.656 22.2901C155.932 22.3681 156.225 22.3971 156.51 22.3701C156.615 22.3601 156.705 22.2871 156.705 22.1751C156.705 22.0721 156.615 21.9781 156.509 21.9801Z" fill="#696969"/>
<path d="M118.952 13.0121C121.412 14.9681 124.507 16.0981 127.665 15.9791C127.968 15.9681 127.97 15.5141 127.665 15.5071C124.624 15.4351 121.663 14.4961 119.224 12.6601C119.022 12.5091 118.753 12.8541 118.952 13.0121Z" fill="#696969"/>
<path d="M127.972 15.6451C128.015 15.3601 128.148 15.1191 128.303 14.8791C128.418 14.7011 128.556 14.4261 128.769 14.3481C128.879 14.3081 128.999 14.3391 128.979 14.4481C128.961 14.5431 128.884 14.6331 128.842 14.7191C128.782 14.8421 128.748 14.9551 128.733 15.0901C128.72 15.2101 128.826 15.3161 128.931 15.3501C129.098 15.4041 129.337 15.4671 129.437 15.6271C129.473 15.6851 129.475 15.8281 129.438 15.8521C129.386 15.8851 129.267 15.8651 129.203 15.8861C129.071 15.9291 128.983 16.0421 128.971 16.1791C128.95 16.4261 129.183 16.5931 129.234 16.8241C129.268 16.9771 129.138 16.9541 129.038 16.8861C128.884 16.7811 128.777 16.6371 128.684 16.4981C128.453 16.1551 128.262 15.7781 127.978 15.4741C127.698 15.1741 127.254 15.6221 127.529 15.9231C127.708 16.1201 127.869 16.4151 128.036 16.6561C128.227 16.9331 128.444 17.2251 128.74 17.3971C129.062 17.5841 129.536 17.5571 129.727 17.1961C129.815 17.0291 129.814 16.8331 129.756 16.6571C129.724 16.5611 129.678 16.4661 129.627 16.3791C129.606 16.3431 129.488 16.2151 129.49 16.1791C129.478 16.2231 129.466 16.2661 129.455 16.3101C129.46 16.3011 129.466 16.2921 129.471 16.2831C129.44 16.3141 129.409 16.3451 129.378 16.3761C129.393 16.3651 129.527 16.3631 129.575 16.3501C129.666 16.3241 129.754 16.2661 129.818 16.1951C129.947 16.0511 130.004 15.8481 129.985 15.6571C129.937 15.1791 129.476 14.9691 129.075 14.8311C129.141 14.9181 129.207 15.0041 129.273 15.0911C129.288 14.9671 129.4 14.8451 129.451 14.7341C129.527 14.5711 129.564 14.3971 129.511 14.2211C129.411 13.8901 129.032 13.7501 128.716 13.8111C128.358 13.8811 128.134 14.1991 127.956 14.4901C127.746 14.8331 127.562 15.1781 127.517 15.5831C127.487 15.8411 127.933 15.9041 127.972 15.6451Z" fill="#696969"/>
<path d="M129.443 14.8111C129.902 14.3541 130.534 14.1351 131.178 14.1721C131.517 14.1911 131.864 14.2741 132.175 14.4101C132.454 14.5321 132.787 14.7011 132.962 14.9601C133.137 15.2181 133.11 15.5791 133.099 15.8761C133.089 16.1541 133.066 16.4711 132.899 16.7061C132.592 17.1371 131.841 17.2001 131.362 17.1281C130.7 17.0291 130.215 16.6671 129.773 16.1881C129.543 15.9391 129.171 16.2561 129.319 16.5381C129.656 17.1831 130.401 17.6141 131.095 17.7671C131.823 17.9281 132.734 17.8511 133.297 17.3091C133.6 17.0171 133.721 16.6081 133.765 16.2021C133.809 15.7981 133.823 15.3331 133.694 14.9441C133.423 14.1241 132.409 13.6891 131.616 13.5751C130.698 13.4431 129.721 13.7741 129.109 14.4781C128.911 14.7041 129.225 15.0281 129.443 14.8111Z" fill="#696969"/>
<path d="M133.686 15.4681C133.577 15.3811 133.465 15.2871 133.341 15.2211C133.211 15.1521 133.077 15.0911 132.941 15.0361C132.681 14.9301 132.415 14.8641 132.133 14.8521C132.067 14.8491 132.009 14.9051 132.001 14.9691C131.993 15.0391 132.033 15.0921 132.097 15.1161C132.329 15.2031 132.565 15.2871 132.792 15.3881C132.907 15.4391 133.019 15.4961 133.129 15.5591C133.242 15.6231 133.36 15.6781 133.473 15.7441C133.548 15.7871 133.647 15.7681 133.699 15.6991C133.747 15.6341 133.755 15.5231 133.686 15.4681Z" fill="#696969"/>
<path d="M133.042 15.6431C132.838 15.6141 132.635 15.5971 132.429 15.6001C132.327 15.6021 132.218 15.6001 132.118 15.6211C132.021 15.6411 131.925 15.6781 131.832 15.7121C131.765 15.7361 131.719 15.7951 131.73 15.8681C131.74 15.9381 131.798 15.9911 131.87 15.9921C131.963 15.9921 132.056 15.9991 132.149 16.0031C132.238 16.0071 132.329 15.9931 132.419 15.9921C132.509 15.9901 132.599 15.9921 132.689 15.9971C132.732 16.0001 132.775 16.0031 132.818 16.0071C132.84 16.0091 132.861 16.0111 132.883 16.0141C132.897 16.0161 132.912 16.0171 132.926 16.0191C132.951 16.0221 132.955 16.0231 132.938 16.0211C133.039 16.0351 133.153 15.9971 133.178 15.8851C133.2 15.7911 133.151 15.6581 133.042 15.6431Z" fill="#696969"/>
<path d="M132.969 16.0621C132.765 16.2181 132.551 16.3291 132.318 16.3971C132.063 16.4721 131.852 16.5211 131.597 16.5201C131.487 16.5191 131.393 16.6141 131.393 16.7241C131.393 16.8411 131.487 16.9191 131.597 16.9281C131.879 16.9491 132.183 16.9271 132.449 16.8251C132.729 16.7181 132.982 16.5671 133.206 16.3691C133.278 16.3051 133.278 16.1841 133.221 16.1121C133.167 16.0441 133.048 16.0021 132.969 16.0621Z" fill="#696969"/>
<path d="M170.101 14.8751C170.542 16.2851 171.076 17.6861 171.86 18.9451C172.618 20.1621 173.559 21.2401 174.64 22.1781C174.867 22.3751 175.193 22.0601 174.974 21.8441C173.993 20.8731 173.066 19.8431 172.337 18.6661C171.576 17.4381 171.002 16.1191 170.533 14.7561C170.44 14.4861 170.014 14.5971 170.101 14.8751Z" fill="#696969"/>
<path d="M175.142 22.1151C175.343 21.9561 175.6 21.8861 175.843 21.8251C176.052 21.7731 176.385 21.6471 176.59 21.7661C176.644 21.7971 176.692 21.8581 176.699 21.9111C176.704 21.9471 176.686 21.9561 176.62 21.9871C176.438 22.0731 176.21 22.1131 176.038 22.2641C175.947 22.3431 175.941 22.4901 175.996 22.5901C176.081 22.7451 176.252 23.0171 176.159 23.1931C176.131 23.2451 176.085 23.2811 176.038 23.2961C176.007 23.3061 176.023 23.3131 175.995 23.2951C176.006 23.3021 175.938 23.2411 175.931 23.2361C175.67 23.0291 175.382 23.1831 175.321 23.4881C175.288 23.6531 175.238 23.8131 175.164 23.9291C175.14 23.9531 175.135 23.9571 175.15 23.9401C175.173 23.9341 175.167 23.9361 175.134 23.9451C175.17 23.9611 175.104 23.9291 175.112 23.9351C175.052 23.8901 175.027 23.8271 175.014 23.7511C174.982 23.5701 175.008 23.3731 175.032 23.2371C175.101 22.8401 175.219 22.4411 175.22 22.0361C175.222 21.6271 174.591 21.6271 174.585 22.0361C174.582 22.1951 174.569 22.2511 174.539 22.4171C174.509 22.5861 174.477 22.7531 174.451 22.9231C174.397 23.2761 174.343 23.6731 174.476 24.0151C174.624 24.3961 175.063 24.6591 175.444 24.4141C175.596 24.3161 175.687 24.1561 175.747 23.9891C175.773 23.9161 175.792 23.8421 175.806 23.7661C175.813 23.7311 175.818 23.6961 175.824 23.6611C175.827 23.6391 175.831 23.6161 175.833 23.5931C175.844 23.5471 175.842 23.5441 175.829 23.5821C175.791 23.6041 175.753 23.6261 175.714 23.6491C175.726 23.6461 175.737 23.6431 175.749 23.6401C175.703 23.6401 175.657 23.6401 175.612 23.6401C175.665 23.6501 175.736 23.7371 175.795 23.7651C175.884 23.8061 175.977 23.8211 176.075 23.8111C176.252 23.7921 176.416 23.7011 176.531 23.5641C176.849 23.1851 176.662 22.7011 176.46 22.3161C176.446 22.4251 176.432 22.5341 176.418 22.6421C176.488 22.5831 176.622 22.5611 176.724 22.5261C176.87 22.4771 177.01 22.4111 177.111 22.2911C177.371 21.9821 177.23 21.5541 176.922 21.3391C176.588 21.1051 176.155 21.2181 175.796 21.3171C175.44 21.4161 175.097 21.5401 174.813 21.7831C174.718 21.8651 174.729 22.0271 174.813 22.1111C174.911 22.2121 175.043 22.1931 175.142 22.1151Z" fill="#696969"/>
<path d="M176.733 22.5541C177.401 22.5381 178.028 22.8251 178.475 23.3191C178.859 23.7431 179.24 24.4091 179.204 25.0011C179.185 25.3141 178.949 25.5521 178.741 25.7631C178.535 25.9721 178.304 26.2021 178.015 26.2861C177.47 26.4441 176.843 25.9401 176.53 25.5371C176.127 25.0181 176.028 24.4281 176.035 23.7891C176.038 23.4611 175.556 23.3981 175.467 23.7121C175.27 24.4091 175.503 25.2271 175.898 25.8161C176.32 26.4461 177.076 27.0651 177.88 27.0131C178.318 26.9841 178.689 26.7511 179.006 26.4631C179.289 26.2061 179.587 25.9021 179.747 25.5501C180.093 24.7871 179.676 23.8101 179.202 23.1881C178.63 22.4391 177.677 21.9891 176.734 22.0801C176.437 22.1101 176.424 22.5611 176.733 22.5541Z" fill="#696969"/>
<path d="M179.367 25.9041C179.291 25.3661 179.051 24.8271 178.671 24.4341C178.56 24.3201 178.395 24.4641 178.46 24.5971C178.569 24.8191 178.682 25.0431 178.779 25.2711C178.827 25.3851 178.868 25.5021 178.905 25.6201C178.944 25.7461 178.992 25.8701 179.03 25.9971C179.057 26.0881 179.153 26.1451 179.245 26.1191C179.345 26.0911 179.38 25.9981 179.367 25.9041Z" fill="#696969"/>
<path d="M178.756 25.5941C178.638 25.4451 178.508 25.3061 178.367 25.1781C178.291 25.1091 178.211 25.0291 178.122 24.9771C178.04 24.9291 177.95 24.8901 177.862 24.8521C177.796 24.8231 177.725 24.8281 177.678 24.8891C177.636 24.9441 177.637 25.0271 177.689 25.0761C177.756 25.1401 177.821 25.2061 177.883 25.2751C177.913 25.3091 177.952 25.3351 177.987 25.3641C178.024 25.3951 178.06 25.4271 178.095 25.4591C178.233 25.5861 178.361 25.7231 178.478 25.8701C178.507 25.9061 178.572 25.9271 178.616 25.9271C178.664 25.9271 178.721 25.9061 178.754 25.8701C178.835 25.7851 178.825 25.6791 178.756 25.5941Z" fill="#696969"/>
<path d="M178.4 25.8801C178.35 25.8751 178.306 25.8681 178.24 25.8551C178.181 25.8431 178.122 25.8281 178.065 25.8111C178.003 25.7931 177.943 25.7711 177.883 25.7481C177.875 25.7451 177.851 25.7351 177.872 25.7441C177.858 25.7381 177.845 25.7321 177.831 25.7261C177.8 25.7121 177.77 25.6971 177.74 25.6821C177.629 25.6251 177.518 25.5681 177.413 25.5001C177.302 25.4281 177.236 25.3751 177.137 25.2801C177.057 25.2041 176.928 25.2011 176.849 25.2801C176.768 25.3611 176.775 25.4861 176.849 25.5681C177.044 25.7831 177.282 25.9721 177.55 26.0851C177.82 26.1991 178.107 26.2621 178.4 26.2711C178.506 26.2741 178.595 26.1791 178.595 26.0761C178.595 25.9611 178.505 25.8911 178.4 25.8801Z" fill="#696969"/>
<path d="M123.4 11.8891C126.026 10.2591 127.786 7.7271 129.948 5.5841C131.089 4.4531 132.368 3.48009 133.767 2.69009C135.207 1.87809 136.752 1.33409 138.316 0.815086C138.624 0.713086 138.496 0.285082 138.184 0.336082C135.115 0.841082 132.179 2.59909 129.932 4.70309C127.599 6.88809 125.845 9.69408 123.19 11.5301C122.974 11.6811 123.17 12.0321 123.4 11.8891Z" fill="#696969"/>
<path d="M123.187 11.9171C126.403 11.2661 129.65 10.2491 132.409 8.42809C135.384 6.46409 137.322 3.62708 138.805 0.431077C138.957 0.104077 138.497 -0.181918 138.313 0.143082C137.415 1.72708 136.625 3.37109 135.472 4.79509C134.467 6.03709 133.244 7.08107 131.896 7.93507C129.194 9.64707 126.125 10.6231 123.047 11.4141C122.721 11.4991 122.86 11.9831 123.187 11.9171Z" fill="#696969"/>
<path d="M123.311 11.5021C126.011 10.1141 128.17 7.95911 130.4 5.94111C131.546 4.90411 132.716 3.8831 133.99 3.0041C134.599 2.5851 135.23 2.19811 135.889 1.86311C136.576 1.51311 137.325 1.2991 138.007 0.949104C138.134 0.884104 138.081 0.650099 137.931 0.668099C136.562 0.835099 135.173 1.7321 134.055 2.4871C132.834 3.3121 131.715 4.27311 130.635 5.27311C128.284 7.45111 126.054 9.7781 123.203 11.3191C123.084 11.3851 123.19 11.5651 123.311 11.5021Z" fill="#696969"/>
<path d="M124.296 10.8791C127.01 9.69008 129.573 8.24208 131.962 6.48708C133.077 5.66808 134.156 4.79507 135.188 3.87407C135.739 3.38307 136.276 2.87707 136.8 2.35707C137.283 1.87607 137.92 1.3641 138.218 0.744098C138.278 0.620098 138.151 0.460079 138.017 0.543079C137.482 0.879079 137.083 1.45307 136.649 1.90807C136.139 2.44107 135.615 2.96008 135.077 3.46508C133.985 4.48908 132.836 5.4481 131.633 6.3391C129.323 8.0491 126.829 9.54309 124.222 10.7521C124.136 10.7931 124.211 10.9161 124.296 10.8791Z" fill="#696969"/>
<path d="M149.521 11.4931C152.282 10.1751 154.298 7.88111 156.651 5.99811C157.899 5.00011 159.277 4.16609 160.744 3.53309C162.294 2.86409 163.928 2.48611 165.573 2.13511C165.845 2.07711 165.787 1.6321 165.507 1.6471C162.335 1.8141 159.16 3.2681 156.661 5.1771C154.157 7.0901 152.112 9.6231 149.311 11.1341C149.073 11.2621 149.282 11.6071 149.521 11.4931Z" fill="#696969"/>
<path d="M149.244 11.5101C152.525 11.2161 155.855 10.5681 158.815 9.0661C162.008 7.4471 164.26 4.80911 166.093 1.78611C166.287 1.46611 165.811 1.20711 165.601 1.49811C164.532 2.97711 163.561 4.5161 162.255 5.8071C161.126 6.9231 159.801 7.81509 158.378 8.51209C155.502 9.92209 152.325 10.5511 149.175 10.9981C148.886 11.0391 148.952 11.5361 149.244 11.5101Z" fill="#696969"/>
<path d="M149.439 11.1141C152.241 10.0451 154.596 8.17811 157.005 6.44011C158.213 5.56911 159.436 4.7131 160.738 3.9871C161.447 3.5921 162.179 3.23411 162.938 2.94511C163.678 2.66411 164.466 2.52512 165.203 2.24812C165.354 2.19112 165.344 1.9501 165.163 1.9521C163.823 1.9701 162.38 2.68311 161.211 3.28911C159.821 4.01011 158.531 4.90011 157.277 5.83311C154.76 7.70611 152.321 9.71911 149.383 10.9101C149.259 10.9601 149.311 11.1631 149.439 11.1141Z" fill="#696969"/>
<path d="M150.492 10.6021C153.296 9.72708 155.982 8.5841 158.531 7.1221C159.795 6.3981 161.024 5.6081 162.208 4.7601C162.771 4.3571 163.324 3.93908 163.866 3.50808C164.407 3.07808 165.094 2.63809 165.466 2.04709C165.549 1.91509 165.389 1.7861 165.265 1.8461C164.691 2.1261 164.222 2.6671 163.734 3.0751C163.147 3.5661 162.546 4.0401 161.932 4.4971C160.789 5.3461 159.601 6.1311 158.372 6.8501C155.869 8.3141 153.202 9.53809 150.453 10.4611C150.364 10.4901 150.401 10.6301 150.492 10.6021Z" fill="#696969"/>
<path d="M170.307 15.1691C173.208 14.3491 175.559 12.4781 178.152 11.0281C179.578 10.2301 181.093 9.62208 182.68 9.23208C184.332 8.82608 186.012 8.7261 187.705 8.6571C188.032 8.6441 188.016 8.19709 187.705 8.16009C184.544 7.78909 181.164 8.71009 178.376 10.1731C175.61 11.6251 173.189 13.7611 170.197 14.7681C169.945 14.8531 170.047 15.2421 170.307 15.1691Z" fill="#696969"/>
<path d="M170.092 15.1371C173.413 15.4051 176.87 15.3201 180.068 14.2891C183.406 13.2141 186.01 11.0341 188.282 8.41707C188.52 8.14207 188.144 7.75408 187.879 8.01408C186.63 9.23708 185.464 10.5391 184.04 11.5691C182.723 12.5221 181.243 13.2161 179.689 13.6831C176.582 14.6181 173.312 14.7081 170.092 14.6151C169.754 14.6061 169.762 15.1101 170.092 15.1371Z" fill="#696969"/>
<path d="M170.326 14.7731C173.234 14.1991 175.839 12.7791 178.476 11.4891C179.899 10.7931 181.332 10.1111 182.834 9.59908C183.55 9.35508 184.28 9.15008 185.023 9.00408C185.8 8.85108 186.595 8.8441 187.369 8.7001C187.51 8.6741 187.515 8.43108 187.369 8.40908C185.971 8.20208 184.368 8.68009 183.054 9.11309C181.623 9.58509 180.256 10.2211 178.914 10.9021C176.113 12.3241 173.37 13.8901 170.269 14.5691C170.136 14.5981 170.193 14.7991 170.326 14.7731Z" fill="#696969"/>
<path d="M171.425 14.4491C174.336 14.0601 177.175 13.3911 179.935 12.3811C181.266 11.8941 182.576 11.3411 183.853 10.7271C184.519 10.4071 185.177 10.0691 185.824 9.71411C186.427 9.38311 187.16 9.0711 187.629 8.5581C187.724 8.4541 187.633 8.2691 187.486 8.3131C186.85 8.5041 186.28 8.96508 185.708 9.29608C185.101 9.64708 184.485 9.98309 183.86 10.3031C182.524 10.9871 181.152 11.5921 179.746 12.1161C177.054 13.1191 174.244 13.8641 171.405 14.3051C171.325 14.3181 171.343 14.4601 171.425 14.4491Z" fill="#696969"/>
<path d="M134.402 10.5131C136.64 12.5511 138.278 15.1351 140.307 17.3631C141.27 18.4201 142.337 19.3991 143.565 20.1421C145.04 21.0351 146.667 21.5201 148.363 21.7691C148.691 21.8171 148.844 21.3331 148.504 21.2591C146.847 20.8981 145.177 20.3901 143.722 19.5001C142.487 18.7451 141.429 17.7441 140.461 16.6761C138.518 14.5331 136.903 12.1111 134.62 10.2951C134.468 10.1731 134.251 10.3751 134.402 10.5131Z" fill="#696969"/>
<path d="M134.318 10.6891C137.302 11.4331 140.105 12.7901 142.507 14.7161C144.898 16.6351 146.727 19.0311 148.206 21.7001C148.326 21.9161 148.623 21.7261 148.53 21.5111C146.078 15.8601 140.388 11.5691 134.442 10.2411C134.151 10.1761 134.027 10.6161 134.318 10.6891Z" fill="#696969"/>
<path d="M157.284 12.6311C158.668 13.5421 159.622 14.8891 160.59 16.2041C161.531 17.4811 162.542 18.6981 163.731 19.7541C164.905 20.7961 166.214 21.6671 167.67 22.2611C169.063 22.8301 170.715 23.2861 172.218 22.9421C172.41 22.8981 172.422 22.5761 172.218 22.5411C170.608 22.2671 169.06 22.1181 167.551 21.4351C166.074 20.7661 164.733 19.8251 163.55 18.7201C162.417 17.6621 161.463 16.4611 160.508 15.2471C159.629 14.1291 158.699 13.0551 157.477 12.3011C157.266 12.1701 157.079 12.4961 157.284 12.6311Z" fill="#696969"/>
<path d="M157.12 12.6241C160.203 13.3561 163.217 14.3821 165.887 16.1211C167.098 16.9111 168.211 17.8511 169.159 18.9441C170.222 20.1691 170.958 21.5901 171.867 22.9201C172.015 23.1361 172.312 22.9511 172.212 22.7191C170.974 19.8361 168.986 17.4281 166.38 15.6871C163.644 13.8591 160.426 12.8801 157.229 12.2321C156.974 12.1801 156.863 12.5631 157.12 12.6241Z" fill="#696969"/>
<path d="M177.346 16.7201C178.713 17.6251 179.53 19.3221 180.41 20.6601C181.255 21.9471 182.114 23.2371 183.163 24.3701C184.183 25.4711 185.401 26.3781 186.765 27.0081C188.033 27.5941 189.65 28.2011 191.062 27.9251C191.327 27.8731 191.283 27.5051 191.062 27.4301C190.341 27.1871 189.571 27.1231 188.835 26.9271C188.093 26.7291 187.374 26.4541 186.691 26.1031C185.31 25.3951 184.134 24.3961 183.126 23.2231C182.133 22.0671 181.321 20.7781 180.441 19.5381C179.613 18.3711 178.8 17.1281 177.536 16.3961C177.325 16.2741 177.146 16.5871 177.346 16.7201Z" fill="#696969"/>
<path d="M177.372 16.6621C180.447 17.7581 183.534 18.7701 185.939 21.0771C187.969 23.0251 189.658 25.4851 191.096 27.8941C191.23 28.1191 191.587 27.9111 191.448 27.6891C189.859 25.1541 188.448 22.5781 186.226 20.5151C183.79 18.2531 180.633 17.1481 177.466 16.3251C177.245 16.2671 177.162 16.5871 177.372 16.6621Z" fill="#696969"/>
<path d="M193.155 20.3121C193.151 20.1431 193.332 19.9511 193.438 19.8311C193.558 19.6941 193.691 19.5671 193.822 19.4421C194.092 19.1841 194.356 18.8841 194.524 18.5471C194.869 17.8551 194.829 16.9671 194.278 16.3961C194.127 16.2391 193.919 16.4381 193.997 16.6131C194.28 17.2551 194.273 17.9841 193.821 18.5441C193.603 18.8141 193.348 19.0521 193.132 19.3241C192.922 19.5871 192.627 19.9551 192.666 20.3131C192.7 20.6171 193.162 20.6331 193.155 20.3121Z" fill="#696969"/>
<path d="M194.033 16.5901C194.521 16.8621 194.897 17.3771 194.954 17.9401C194.982 18.2191 194.938 18.5051 194.829 18.7631C194.771 18.9001 194.693 19.0341 194.602 19.1521C194.511 19.2701 194.376 19.3751 194.354 19.5301C194.338 19.6411 194.399 19.7591 194.527 19.7571C194.873 19.7511 195.115 19.2771 195.234 19.0011C195.38 18.6621 195.447 18.2861 195.406 17.9171C195.327 17.1981 194.89 16.5591 194.234 16.2461C194.006 16.1361 193.806 16.4631 194.033 16.5901Z" fill="#696969"/>
<path d="M194.747 19.7001C195.14 19.4941 195.619 19.5731 196.042 19.5841C196.247 19.5891 196.458 19.5911 196.661 19.6141C196.909 19.6421 197.121 19.7601 197.377 19.7171C197.496 19.6971 197.493 19.5351 197.408 19.4791C197.204 19.3451 196.972 19.2081 196.729 19.1571C196.483 19.1061 196.229 19.0701 195.98 19.0421C195.504 18.9881 194.926 19.0411 194.52 19.3131C194.282 19.4731 194.489 19.8341 194.747 19.7001Z" fill="#696969"/>
<path d="M197.19 19.4071C196.732 19.6291 196.269 19.8571 195.783 20.0101C195.546 20.0851 195.3 20.1401 195.053 20.1691C194.934 20.1831 194.813 20.1891 194.692 20.1871C194.556 20.1841 194.443 20.1681 194.334 20.2611C194.289 20.2991 194.278 20.3851 194.312 20.4341C194.456 20.6441 194.828 20.5951 195.053 20.5771C195.331 20.5551 195.601 20.4911 195.864 20.3991C196.389 20.2171 196.859 19.9351 197.33 19.6451C197.484 19.5521 197.349 19.3291 197.19 19.4071Z" fill="#696969"/>
<path d="M194.41 20.6411C194.678 20.6311 194.861 20.8571 195.023 21.0411C195.204 21.2461 195.399 21.4281 195.623 21.5871C196.054 21.8941 196.591 22.0621 197.12 22.0351C197.332 22.0241 197.396 21.7041 197.172 21.6511C196.666 21.5301 196.169 21.3421 195.74 21.0421C195.29 20.7271 194.984 20.1731 194.358 20.2581C194.139 20.2871 194.193 20.6491 194.41 20.6411Z" fill="#696969"/>
<path d="M196.96 21.7121C196.332 21.7841 195.732 21.8191 195.107 21.7041C194.866 21.6601 194.647 21.5771 194.435 21.4561C194.23 21.3391 194.079 21.1391 193.86 21.0531C193.757 21.0131 193.665 21.1131 193.659 21.2061C193.64 21.4861 193.906 21.7231 194.108 21.8801C194.338 22.0601 194.627 22.1771 194.909 22.2461C195.593 22.4141 196.342 22.1741 196.997 21.9831C197.14 21.9431 197.12 21.6941 196.96 21.7121Z" fill="#696969"/>
<path d="M192.82 20.2751C192.182 20.8011 192.393 21.6651 192.702 22.3071C192.872 22.6591 193.11 22.9861 193.223 23.3631C193.276 23.5411 193.314 23.7241 193.312 23.9101C193.31 24.0961 193.21 24.2831 193.264 24.4651C193.292 24.5611 193.399 24.6021 193.485 24.5551C193.769 24.4021 193.734 23.9291 193.693 23.6581C193.639 23.3011 193.497 22.9551 193.356 22.6251C193.205 22.2741 193.028 21.9261 192.954 21.5481C192.892 21.2301 192.886 20.8251 193.12 20.5731C193.308 20.3711 193.027 20.1041 192.82 20.2751Z" fill="#696969"/>
<path d="M193.634 21.1401C193.45 21.7401 193.656 22.3341 193.73 22.9321C193.798 23.4811 193.688 24.0021 193.284 24.3941C193.084 24.5881 193.341 24.9261 193.582 24.7811C194.119 24.4571 194.257 23.7951 194.218 23.2151C194.196 22.8811 194.131 22.5561 194.07 22.2281C194.01 21.9051 193.97 21.5801 194.065 21.2601C194.149 20.9821 193.718 20.8651 193.634 21.1401Z" fill="#696969"/>
<path d="M195.526 18.1061C197.427 14.8651 201.132 13.3671 204.753 14.4391C206.622 14.9931 208.166 16.1351 209.517 17.5121C210.874 18.8951 211.861 20.5061 213.045 22.0191C213.187 22.2001 213.417 21.9691 213.339 21.7921C212.889 20.7721 212.191 19.8411 211.517 18.9561C210.895 18.1381 210.227 17.3541 209.496 16.6311C208.047 15.1971 206.347 14.0711 204.343 13.5991C200.756 12.7531 196.45 14.2631 195.102 17.9271C195.009 18.1781 195.396 18.3281 195.526 18.1061Z" fill="#696969"/>
<path d="M213.011 21.7861L213.008 21.7871C213.025 21.7801 213.042 21.7731 213.059 21.7661C213.019 21.7821 212.975 21.7891 212.933 21.7951C212.952 21.7921 212.97 21.7901 212.989 21.7871C212.904 21.7991 212.817 21.8021 212.731 21.7971C212.677 21.7941 212.63 21.8171 212.579 21.8271C212.562 21.8301 212.533 21.8291 212.593 21.8261C212.586 21.8261 212.579 21.8271 212.572 21.8281C212.566 21.8281 212.56 21.8271 212.554 21.8281C212.538 21.8291 212.583 21.8311 212.58 21.8321C212.577 21.8321 212.573 21.8301 212.57 21.8301C212.519 21.8161 212.465 21.8361 212.433 21.8771C212.4 21.9201 212.399 21.9741 212.423 22.0221C212.451 22.0781 212.508 22.1191 212.558 22.1531C212.568 22.1601 212.578 22.1661 212.588 22.1721C212.629 22.1961 212.671 22.2101 212.719 22.2151C212.749 22.2181 212.78 22.2191 212.81 22.2201C212.87 22.2211 212.931 22.2181 212.991 22.2111C213.052 22.2041 213.119 22.1991 213.177 22.1761C213.213 22.1661 213.244 22.1481 213.27 22.1211C213.281 22.1071 213.292 22.0921 213.303 22.0781C213.339 22.0221 213.339 21.9491 213.314 21.8901C213.292 21.8371 213.255 21.8001 213.202 21.7781C213.177 21.7651 213.15 21.7591 213.12 21.7601C213.08 21.7571 213.044 21.7671 213.011 21.7861Z" fill="#696969"/>
<path d="M212.451 22.3811C212.782 22.6571 212.95 23.0571 213.119 23.4421C213.29 23.8331 213.476 24.3741 213.942 24.4791C214.052 24.5041 214.18 24.4041 214.137 24.2841C214.099 24.1761 214.061 24.0771 213.998 23.9811C213.938 23.8901 213.873 23.8011 213.814 23.7101C213.695 23.5271 213.596 23.3321 213.495 23.1391C213.285 22.7391 213.056 22.3511 212.684 22.0811C212.508 21.9541 212.284 22.2421 212.451 22.3811Z" fill="#696969"/>
<path d="M213.818 24.1301C213.613 24.4391 213.339 24.6921 213.026 24.8771C212.868 24.9701 212.696 25.0551 212.543 25.1101C212.356 25.1781 212.118 25.2201 212.006 25.3981C211.976 25.4451 211.983 25.5231 212.027 25.5611C212.21 25.7201 212.479 25.6521 212.688 25.5821C212.899 25.5111 213.101 25.4181 213.288 25.2961C213.659 25.0541 213.974 24.7341 214.204 24.3551C214.356 24.1081 213.976 23.8921 213.818 24.1301Z" fill="#696969"/>
<path d="M212.114 25.7411C212.174 25.7561 212.233 25.7761 212.29 25.8001C212.269 25.7911 212.249 25.7831 212.228 25.7741C212.32 25.8141 212.407 25.8641 212.486 25.9251C212.468 25.9111 212.451 25.8981 212.433 25.8841C212.463 25.9071 212.492 25.9321 212.52 25.9581C212.57 26.0051 212.635 26.0341 212.704 26.0341C212.768 26.0341 212.844 26.0061 212.888 25.9581C212.934 25.9081 212.967 25.8431 212.964 25.7741C212.961 25.7071 212.939 25.6361 212.888 25.5901C212.707 25.4251 212.488 25.3031 212.249 25.2461C212.183 25.2301 212.111 25.2371 212.051 25.2721C211.998 25.3031 211.947 25.3641 211.933 25.4251C211.918 25.4911 211.921 25.5641 211.959 25.6231C211.996 25.6791 212.048 25.7251 212.114 25.7411Z" fill="#696969"/>
<path d="M212.684 25.5991C208.952 26.6621 205.648 29.6781 201.617 29.5541C198.02 29.4441 194.693 26.2051 194.177 22.6881C194.135 22.4021 193.697 22.4851 193.689 22.7541C193.636 24.5961 194.911 26.3171 196.106 27.6091C197.367 28.9731 198.984 29.9121 200.837 30.1751C205.302 30.8101 208.816 27.3661 212.829 26.1251C213.163 26.0221 213.024 25.5021 212.684 25.5991Z" fill="#696969"/>
<path d="M212.642 21.9921C210.152 19.5491 207.371 17.3591 203.83 16.8181C202.289 16.5831 200.716 16.6081 199.189 16.9291C198.411 17.0931 197.657 17.3411 196.932 17.6671C196.389 17.9111 195.329 18.2741 195.159 18.8991C195.13 19.0051 195.211 19.0921 195.312 19.1001C195.643 19.1271 195.843 18.9341 196.12 18.7711C196.454 18.5741 196.8 18.3961 197.155 18.2391C197.859 17.9281 198.605 17.7001 199.358 17.5411C200.855 17.2261 202.425 17.2121 203.931 17.4741C207.29 18.0591 209.795 20.1891 212.4 22.2331C212.568 22.3661 212.804 22.1501 212.642 21.9921Z" fill="#696969"/>
<path d="M212.323 25.2251C210.679 25.5061 209.156 26.1741 207.682 26.9331C206.755 27.4101 205.853 27.9591 204.876 28.3321C202.286 29.3191 199.769 28.7851 197.205 28.0011C197.053 27.9551 196.948 28.1901 197.095 28.2611C199.424 29.3821 202.261 29.8321 204.742 28.9641C205.66 28.6431 206.503 28.1651 207.357 27.7071C208.976 26.8381 210.632 26.0341 212.457 25.7121C212.777 25.6561 212.641 25.1711 212.323 25.2251Z" fill="#696969"/>
<path d="M195.632 19.3751C198.53 18.5711 201.458 17.9801 204.425 18.7951C204.505 18.8171 204.532 18.7031 204.459 18.6731C201.601 17.5291 198.399 18.3271 195.572 19.1551C195.431 19.1971 195.49 19.4151 195.632 19.3751Z" fill="#696969"/>
<path d="M204.756 15.8601C203.095 15.5881 201.38 15.6881 199.749 16.0981C198.126 16.5051 196.189 17.3251 195.207 18.7581C195.159 18.8291 195.263 18.9021 195.322 18.8471C195.984 18.2271 196.604 17.6471 197.41 17.2101C198.2 16.7811 199.056 16.4761 199.928 16.2631C201.484 15.8841 203.149 15.7771 204.738 15.9881C204.811 15.9981 204.829 15.8721 204.756 15.8601Z" fill="#696969"/>
<path d="M203.506 14.5921C201.923 14.3491 200.314 14.7181 198.877 15.3881C198.122 15.7401 197.412 16.1871 196.762 16.7081C196.152 17.1981 195.505 17.7911 195.141 18.4951C195.094 18.5861 195.212 18.6891 195.288 18.6081C195.796 18.0681 196.253 17.5071 196.823 17.0251C197.439 16.5031 198.122 16.0611 198.842 15.6971C200.251 14.9831 201.871 14.5591 203.454 14.7771C203.575 14.7931 203.628 14.6101 203.506 14.5921Z" fill="#696969"/>
<path d="M207.726 21.7361C205.812 20.7811 203.72 20.5801 201.609 20.5861C200.572 20.5891 199.534 20.6101 198.497 20.6001C197.93 20.5941 197.364 20.5811 196.798 20.5501C196.277 20.5211 195.728 20.4091 195.209 20.4601C195.135 20.4671 195.121 20.5621 195.192 20.5881C196.044 20.9071 197.169 20.8171 198.068 20.8331C199.085 20.8511 200.102 20.8341 201.119 20.8261C203.34 20.8081 205.627 20.8691 207.681 21.8131C207.733 21.8371 207.778 21.7621 207.726 21.7361Z" fill="#696969"/>
<path d="M205.838 22.7601C204.294 22.2401 202.681 22.1441 201.067 22.0471C200.208 21.9951 199.344 21.9441 198.491 21.8191C197.655 21.6971 196.877 21.4481 196.071 21.2051C195.996 21.1831 195.949 21.2941 196.018 21.3321C197.381 22.0771 199.124 22.1671 200.643 22.2551C202.373 22.3561 204.125 22.4001 205.793 22.9211C205.896 22.9531 205.939 22.7941 205.838 22.7601Z" fill="#696969"/>
<path d="M208.792 24.9591C206.379 24.3851 203.919 24.5201 201.477 24.2041C200.393 24.0631 199.31 23.8051 198.279 23.4431C197.741 23.2541 197.216 23.0311 196.713 22.7631C196.27 22.5271 195.869 22.2111 195.407 22.0161C195.248 21.9491 194.987 22.1101 195.128 22.2951C195.695 23.0321 196.722 23.4481 197.562 23.7891C198.614 24.2161 199.711 24.5031 200.834 24.6631C203.448 25.0371 206.114 24.7481 208.722 25.2101C208.885 25.2391 208.957 24.9981 208.792 24.9591Z" fill="#696969"/>
<path d="M203.24 25.7251C201.506 25.6371 199.726 25.5481 198.087 24.9241C196.613 24.3641 195.493 23.4041 194.739 22.0241C194.702 21.9571 194.584 22.0031 194.612 22.0771C195.141 23.4651 196.511 24.4601 197.836 25.0131C199.54 25.7231 201.42 25.8041 203.24 25.8871C203.345 25.8931 203.344 25.7301 203.24 25.7251Z" fill="#696969"/>
<path d="M202.055 27.7591C200.128 27.9361 197.923 27.3971 196.607 25.9021C195.513 24.6601 194.731 23.1181 194.07 21.6111C194.04 21.5411 193.923 21.5911 193.947 21.6631C194.482 23.2711 195.414 24.9161 196.566 26.1621C197.912 27.6181 200.143 28.1081 202.054 27.9031C202.145 27.8921 202.147 27.7511 202.055 27.7591Z" fill="#696969"/>
<path d="M177.92 16.7581C180.396 18.3511 182.385 20.5251 184.393 22.6491C186.28 24.6451 188.317 26.8171 190.845 27.9991C191.018 28.0801 191.165 27.8431 190.997 27.7391C189.739 26.9581 188.545 26.1411 187.435 25.1541C186.361 24.1991 185.349 23.1801 184.348 22.1501C182.385 20.1321 180.431 18.0731 178.039 16.5551C177.911 16.4721 177.793 16.6761 177.92 16.7581Z" fill="#696969"/>
<path d="M178.159 16.8931C180.501 18.1891 182.897 19.5511 184.934 21.3001C187.105 23.1651 188.738 25.5651 190.658 27.6691C190.771 27.7931 191 27.6241 190.895 27.4861C189.999 26.3191 189.036 25.2011 188.09 24.0751C187.163 22.9721 186.21 21.9061 185.099 20.9821C183.01 19.2441 180.628 18.0151 178.241 16.7511C178.149 16.7041 178.067 16.8431 178.159 16.8931Z" fill="#696969"/>
<path d="M157.864 12.6611C160.285 14.3831 162.312 16.5641 164.512 18.5451C166.433 20.2741 168.632 22.0381 171.165 22.7491C171.355 22.8021 171.416 22.5331 171.244 22.4621C168.601 21.3681 166.389 19.7781 164.274 17.8631C162.223 16.0041 160.28 14.0231 157.982 12.4611C157.857 12.3761 157.744 12.5761 157.864 12.6611Z" fill="#696969"/>
<path d="M157.833 12.8261C160.256 14.1511 162.696 15.4691 165.006 16.9851C166.183 17.7581 167.326 18.5821 168.409 19.4821C169.482 20.3751 170.419 21.3771 171.402 22.3631C171.519 22.4801 171.744 22.3211 171.639 22.1801C170.029 20.0241 167.69 18.2951 165.454 16.8401C163.044 15.2711 160.489 13.9621 157.92 12.6771C157.822 12.6291 157.736 12.7731 157.833 12.8261Z" fill="#696969"/>
<path d="M134.7 10.5701C137.171 12.1071 139.254 14.1421 141.35 16.1391C143.332 18.0281 145.416 20.0211 147.911 21.2181C148.088 21.3031 148.242 21.0511 148.067 20.9511C145.532 19.5031 143.376 17.6621 141.251 15.6751C139.219 13.7761 137.196 11.8411 134.789 10.4161C134.691 10.3561 134.603 10.5091 134.7 10.5701Z" fill="#696969"/>
<path d="M134.833 10.7741C137.242 11.8741 139.53 13.2071 141.643 14.8061C143.825 16.4581 145.597 18.4191 147.448 20.4141C147.557 20.5311 147.764 20.3771 147.672 20.2411C146.191 18.0571 144.085 16.1921 141.999 14.6021C139.833 12.9511 137.438 11.6001 134.899 10.6171C134.81 10.5831 134.745 10.7341 134.833 10.7741Z" fill="#696969"/>
<path d="M94.2568 27.9151C94.7188 27.6771 95.0158 27.4771 95.3978 27.1151C95.8248 26.7101 96.2388 26.2901 96.6668 25.8861C97.4518 25.1471 98.2568 24.4311 99.0798 23.7351C100.762 22.3141 102.526 20.9991 104.359 19.7781C108 17.3541 111.959 15.3581 116.097 13.9301C124.333 11.0871 133.238 10.2761 141.89 10.9231C147.044 11.3091 152.158 12.1121 157.263 12.8961C157.735 12.9691 157.938 12.2461 157.462 12.1741C148.671 10.8301 139.788 9.4291 130.871 10.1941C121.896 10.9641 112.996 13.5571 105.302 18.2831C103.194 19.5781 101.185 21.0331 99.2718 22.6021C98.3308 23.3741 97.4148 24.1781 96.5258 25.0091C96.0698 25.4351 95.6208 25.8681 95.1798 26.3091C94.7018 26.7861 94.3938 27.1671 94.1168 27.7741C94.0758 27.8671 94.1618 27.9631 94.2568 27.9151Z" fill="#696969"/>
<path d="M157.931 12.7621C164.746 13.9611 171.519 15.3991 178.244 17.0281C178.606 17.1161 178.76 16.5571 178.398 16.4701C171.66 14.8651 164.864 13.5261 158.029 12.4081C157.799 12.3711 157.698 12.7201 157.931 12.7621Z" fill="#696969"/>
<path d="M181.816 18.1581C183.464 18.9431 185.245 19.3531 187.03 19.6941C187.95 19.8701 188.873 20.0321 189.787 20.2451C190.211 20.3441 190.631 20.4561 191.05 20.5761C191.289 20.6441 191.527 20.7121 191.764 20.7891C191.887 20.8291 192.268 20.8931 192.346 20.9961C192.555 21.2741 192.99 21.3031 193.142 20.9421C193.294 20.5811 192.964 20.2801 192.614 20.3381C192.454 20.3641 192.109 20.1581 191.953 20.1061C191.718 20.0271 191.481 19.9511 191.241 19.8851C190.821 19.7701 190.394 19.6801 189.967 19.5951C189.076 19.4181 188.177 19.2851 187.279 19.1471C185.461 18.8671 183.648 18.5821 181.94 17.8681C181.774 17.7991 181.654 18.0811 181.816 18.1581Z" fill="#696969"/>
<path d="M75.5418 10.1751C72.5808 9.4311 69.9908 7.70108 68.0298 5.37908C67.8588 5.17708 67.4978 5.44909 67.6588 5.66509C69.5428 8.19409 72.3548 9.92308 75.4228 10.6071C75.7028 10.6701 75.8218 10.2461 75.5418 10.1751Z" fill="#696969"/>
<path d="M68.0998 5.5451C68.3628 5.2821 68.5078 4.94308 68.6328 4.59808C68.7628 4.24008 68.9018 3.8171 68.6808 3.4641C68.4918 3.1621 68.0858 2.9991 67.7728 3.2181C67.6488 3.3041 67.5708 3.4271 67.5118 3.5631C67.4628 3.6761 67.4278 3.81708 67.3418 3.90408C67.4508 3.89008 67.5598 3.87608 67.6678 3.86208C67.3238 3.64508 66.8718 3.42709 66.4848 3.67809C66.3358 3.77409 66.2128 3.92707 66.1708 4.10207C66.1498 4.18907 66.1478 4.28409 66.1698 4.37109C66.1808 4.41309 66.1978 4.45708 66.2198 4.49508C66.2318 4.51708 66.2468 4.5381 66.2628 4.5581C66.2908 4.6101 66.3008 4.6021 66.2918 4.5321C66.3138 4.4941 66.3368 4.45608 66.3588 4.41808C66.4248 4.39708 66.4318 4.38908 66.3788 4.39608C66.3618 4.39708 66.3448 4.39808 66.3268 4.40008C66.2918 4.40308 66.2568 4.40609 66.2208 4.41009C66.1328 4.42009 66.0428 4.4321 65.9568 4.4551C65.8088 4.4941 65.6618 4.56309 65.5548 4.67409C65.2428 5.00009 65.4208 5.50507 65.7888 5.69707C66.4268 6.03107 67.1698 5.72608 67.8408 5.76708C68.0118 5.77708 68.1588 5.61309 68.1588 5.44909C68.1588 5.26709 68.0128 5.1441 67.8408 5.1311C67.4448 5.1021 67.0488 5.19409 66.6558 5.22509C66.4728 5.23909 66.2558 5.25408 66.0838 5.18508C66.0348 5.16608 65.9738 5.13309 65.9588 5.07809C65.9508 5.04709 65.9768 5.03408 65.9838 5.03008C66.0978 4.95308 66.2668 4.93608 66.4098 4.91808C66.5518 4.90108 66.6858 4.8631 66.7638 4.7311C66.8298 4.6181 66.8158 4.47608 66.7528 4.36608C66.7128 4.29608 66.6548 4.26508 66.6788 4.20708C66.6968 4.16308 66.7508 4.11807 66.7948 4.10207C66.9908 4.03207 67.2428 4.22908 67.3938 4.32708C67.4938 4.39208 67.6378 4.36609 67.7198 4.28509C67.8768 4.13009 67.9218 3.93109 68.0238 3.74609C68.0508 3.69609 68.0678 3.66308 68.1038 3.66808C68.1658 3.67608 68.2278 3.74409 68.2508 3.80309C68.3358 4.02209 68.1918 4.3251 68.1238 4.5321C68.0428 4.7781 67.9468 5.02409 67.7678 5.21709C67.5688 5.43609 67.8868 5.7581 68.0998 5.5451Z" fill="#696969"/>
<path d="M67.9358 3.66509C68.0858 2.81509 67.8278 1.9721 67.2718 1.3171C67.0218 1.0221 66.6958 0.782076 66.3538 0.603076C65.9788 0.407076 65.5338 0.226088 65.1028 0.260088C64.6678 0.294088 64.3208 0.539079 63.9918 0.806078C63.6878 1.05308 63.3918 1.33508 63.2308 1.69908C62.8828 2.48408 63.3288 3.38509 63.9008 3.94109C64.4968 4.51909 65.4038 4.91608 66.2398 4.75008C66.5758 4.68308 66.4718 4.20309 66.1628 4.18209C65.6048 4.14409 65.0878 4.02808 64.6348 3.68108C64.2158 3.36008 63.7328 2.73608 63.8088 2.17308C63.8468 1.89208 64.0558 1.66909 64.2548 1.48409C64.4668 1.28609 64.7108 1.06108 64.9898 0.966082C65.2968 0.862082 65.6518 1.00009 65.9308 1.13109C66.2058 1.26009 66.4558 1.42708 66.6808 1.63008C67.2428 2.13708 67.5498 2.84308 67.4718 3.60308C67.4438 3.86508 67.8888 3.92709 67.9358 3.66509Z" fill="#696969"/>
<path d="M64.2328 1.02908C64.3518 1.07508 64.4638 1.13109 64.5838 1.17709C64.6938 1.22009 64.8018 1.27009 64.9138 1.32809C65.1398 1.44509 65.3598 1.5781 65.5798 1.7081C65.7158 1.7881 65.8418 1.6091 65.7428 1.4971C65.3808 1.0881 64.8558 0.808108 64.3268 0.692108C64.2348 0.672108 64.1378 0.720086 64.1118 0.814086C64.0828 0.913086 64.1438 0.996083 64.2328 1.02908Z" fill="#696969"/>
<path d="M64.3138 1.59409C64.4508 1.72209 64.5768 1.86109 64.6938 2.00809C64.7118 2.03009 64.6748 1.9821 64.6918 2.0051C64.6998 2.0151 64.7068 2.02611 64.7148 2.03611C64.7288 2.05511 64.7418 2.07311 64.7558 2.09211C64.7888 2.13911 64.8198 2.18812 64.8588 2.23112C64.9218 2.29912 64.9838 2.3681 65.0418 2.4401C65.1318 2.5511 65.3248 2.43109 65.2798 2.30109C65.2458 2.20309 65.2078 2.10709 65.1668 2.01209C65.1248 1.91509 65.0448 1.82712 64.9808 1.74412C64.8628 1.59212 64.7328 1.44909 64.5918 1.31809C64.5168 1.24809 64.3888 1.23809 64.3158 1.31809C64.2438 1.39309 64.2338 1.51909 64.3138 1.59409Z" fill="#696969"/>
<path d="M63.8958 1.64608C63.8828 1.93108 63.9228 2.2231 64.0138 2.4941C64.1078 2.7751 64.2838 3.0291 64.4858 3.2441C64.5608 3.3241 64.6978 3.3201 64.7738 3.2441C64.8578 3.1601 64.8438 3.04207 64.7738 2.95607C64.7068 2.87407 64.6358 2.76508 64.5788 2.65908C64.5478 2.60308 64.5198 2.54507 64.4948 2.48607C64.5018 2.50307 64.5008 2.49907 64.4898 2.47307C64.4788 2.44707 64.4688 2.42208 64.4568 2.39708C64.4498 2.38308 64.4438 2.36808 64.4368 2.35308C64.4418 2.36608 64.4418 2.36609 64.4358 2.35109C64.3398 2.11609 64.2908 1.8851 64.2848 1.6451C64.2808 1.3941 63.9078 1.39508 63.8958 1.64608Z" fill="#696969"/>
<path d="M50.0798 13.4241C47.1188 12.6801 44.5288 10.9501 42.5678 8.62807C42.3968 8.42607 42.0358 8.69808 42.1968 8.91408C44.0808 11.4431 46.8928 13.1721 49.9608 13.8561C50.2408 13.9181 50.3608 13.4941 50.0798 13.4241Z" fill="#696969"/>
<path d="M42.6378 8.79409C42.9008 8.53109 43.0458 8.1921 43.1708 7.8471C43.3008 7.4891 43.4398 7.0661 43.2188 6.7131C43.0298 6.4111 42.6238 6.24809 42.3108 6.46709C42.1868 6.55309 42.1078 6.6761 42.0498 6.8131C42.0008 6.9261 41.9658 7.06708 41.8798 7.15408C41.9888 7.14008 42.0978 7.12608 42.2058 7.11208C41.8618 6.89508 41.4098 6.67709 41.0228 6.92809C40.8738 7.02409 40.7508 7.17707 40.7088 7.35207C40.6878 7.43907 40.6858 7.53409 40.7078 7.62109C40.7188 7.66309 40.7358 7.70708 40.7578 7.74508C40.7698 7.76708 40.7848 7.7881 40.8008 7.8081C40.8288 7.8601 40.8388 7.8521 40.8298 7.7821C40.8518 7.7441 40.8748 7.70608 40.8968 7.66708C40.9628 7.64608 40.9688 7.6381 40.9168 7.6451C40.8998 7.6461 40.8828 7.6471 40.8648 7.6491C40.8298 7.6521 40.7948 7.65508 40.7598 7.65908C40.6718 7.66908 40.5818 7.68109 40.4958 7.70409C40.3478 7.74309 40.2008 7.81209 40.0938 7.92309C39.7818 8.24909 39.9598 8.7541 40.3278 8.9461C40.9658 9.2801 41.7088 8.97507 42.3798 9.01607C42.5508 9.02607 42.6978 8.86208 42.6978 8.69808C42.6978 8.51608 42.5518 8.39309 42.3798 8.38009C41.9838 8.35109 41.5878 8.44308 41.1948 8.47408C41.0118 8.48808 40.7958 8.50307 40.6228 8.43407C40.5738 8.41507 40.5128 8.38208 40.4978 8.32708C40.4898 8.29608 40.5158 8.28308 40.5228 8.27908C40.6368 8.20208 40.8058 8.18508 40.9498 8.16708C41.0908 8.15008 41.2258 8.11209 41.3038 7.98009C41.3698 7.86709 41.3558 7.72507 41.2918 7.61507C41.2518 7.54507 41.1948 7.51408 41.2178 7.45608C41.2358 7.41208 41.2898 7.3671 41.3338 7.3511C41.5298 7.2811 41.7818 7.4781 41.9328 7.5761C42.0328 7.6411 42.1768 7.61508 42.2588 7.53408C42.4158 7.37908 42.4608 7.1801 42.5628 6.9941C42.5898 6.9441 42.6068 6.9111 42.6428 6.9161C42.7048 6.9241 42.7678 6.99208 42.7898 7.05108C42.8748 7.27008 42.7308 7.57308 42.6628 7.78008C42.5818 8.02608 42.4858 8.27208 42.3068 8.46508C42.1078 8.68408 42.4258 9.00609 42.6378 8.79409Z" fill="#696969"/>
<path d="M42.4738 6.91307C42.6238 6.06307 42.3658 5.22008 41.8098 4.56508C41.5598 4.27008 41.2338 4.03009 40.8918 3.85109C40.5168 3.65509 40.0718 3.47407 39.6408 3.50807C39.2058 3.54207 38.8588 3.78709 38.5298 4.05409C38.2258 4.30109 37.9298 4.58307 37.7688 4.94707C37.4208 5.73207 37.8668 6.63307 38.4388 7.18907C39.0348 7.76707 39.9418 8.16409 40.7778 7.99809C41.1138 7.93109 41.0098 7.45107 40.7008 7.43007C40.1428 7.39207 39.6258 7.27609 39.1728 6.92909C38.7538 6.60809 38.2708 5.98407 38.3468 5.42107C38.3848 5.14007 38.5938 4.91707 38.7928 4.73207C39.0048 4.53407 39.2488 4.3091 39.5278 4.2141C39.8348 4.1101 40.1898 4.24808 40.4688 4.37908C40.7438 4.50808 40.9938 4.67507 41.2188 4.87807C41.7808 5.38507 42.0878 6.09109 42.0098 6.85109C41.9828 7.11309 42.4278 7.17607 42.4738 6.91307Z" fill="#696969"/>
<path d="M38.7718 4.2781C38.8908 4.3241 39.0028 4.38008 39.1228 4.42608C39.2328 4.46908 39.3408 4.51909 39.4528 4.57709C39.6788 4.69409 39.8988 4.82709 40.1178 4.95709C40.2538 5.03709 40.3798 4.85809 40.2808 4.74609C39.9188 4.33709 39.3938 4.0571 38.8648 3.9411C38.7728 3.9211 38.6758 3.96911 38.6498 4.06311C38.6218 4.16111 38.6828 4.2441 38.7718 4.2781Z" fill="#696969"/>
<path d="M38.8518 4.84211C38.9888 4.97011 39.1148 5.10911 39.2318 5.25611C39.2498 5.27811 39.2128 5.23009 39.2298 5.25309C39.2378 5.26309 39.2448 5.2741 39.2528 5.2841C39.2668 5.3031 39.2798 5.3211 39.2938 5.3401C39.3268 5.3871 39.3578 5.4361 39.3968 5.4791C39.4598 5.5471 39.5208 5.61612 39.5798 5.68812C39.6698 5.79912 39.8628 5.67911 39.8178 5.54911C39.7838 5.45111 39.7458 5.35511 39.7048 5.26011C39.6628 5.16311 39.5828 5.0741 39.5178 4.9911C39.3998 4.8391 39.2698 4.6961 39.1288 4.5651C39.0538 4.4951 38.9258 4.4851 38.8528 4.5651C38.7828 4.6421 38.7728 4.76811 38.8518 4.84211Z" fill="#696969"/>
<path d="M38.4348 4.89511C38.4218 5.18011 38.4618 5.47211 38.5528 5.74311C38.6478 6.02411 38.8228 6.27811 39.0248 6.49311C39.0998 6.57311 39.2368 6.56911 39.3128 6.49311C39.3968 6.40911 39.3828 6.29111 39.3128 6.20511C39.2458 6.12311 39.1748 6.01408 39.1178 5.90808C39.0878 5.85208 39.0588 5.79411 39.0338 5.73511C39.0408 5.75211 39.0398 5.74811 39.0288 5.72211C39.0188 5.69611 39.0078 5.67109 38.9958 5.64609C38.9888 5.63209 38.9828 5.61708 38.9758 5.60208C38.9808 5.61508 38.9808 5.6151 38.9748 5.6001C38.8788 5.3651 38.8298 5.13411 38.8238 4.89411C38.8188 4.64311 38.4458 4.64411 38.4348 4.89511Z" fill="#696969"/>
<path d="M66.7968 11.1601C65.9208 14.0531 64.0798 16.5631 61.6878 18.3931C61.4538 18.5721 61.6678 18.9741 61.9258 18.8011C64.5418 17.0421 66.3988 14.3071 67.2288 11.2791C67.3058 11.0011 66.8808 10.8851 66.7968 11.1601Z" fill="#696969"/>
<path d="M61.8098 18.3521C61.5588 18.0761 61.2238 17.9201 60.8858 17.7781C60.5318 17.6301 60.1198 17.4771 59.7558 17.6861C59.4468 17.8631 59.2738 18.2691 59.4838 18.5871C59.5658 18.7111 59.6888 18.7971 59.8208 18.8601C59.9358 18.9151 60.0648 18.9551 60.1508 19.0481C60.1368 18.9391 60.1228 18.8301 60.1088 18.7221C59.8758 19.0551 59.6468 19.4901 59.8758 19.8861C59.9638 20.0381 60.1148 20.1691 60.2848 20.2181C60.3728 20.2431 60.4698 20.2491 60.5598 20.2291C60.6098 20.2181 60.6598 20.1991 60.7048 20.1741C60.7228 20.1651 60.7388 20.1541 60.7548 20.1421C60.8088 20.1141 60.8008 20.1071 60.7308 20.1211C60.6928 20.0991 60.6548 20.0771 60.6158 20.0541C60.5898 19.9901 60.5798 19.9851 60.5858 20.0381C60.5858 20.0501 60.5858 20.0621 60.5868 20.0741C60.5878 20.1171 60.5898 20.1601 60.5928 20.2021C60.5998 20.2931 60.6108 20.3851 60.6308 20.4741C60.6658 20.6261 60.7348 20.7771 60.8508 20.8851C61.1818 21.1921 61.6828 21.0061 61.8778 20.6411C62.2118 20.0141 61.9538 19.2781 62.0278 18.6121C62.0468 18.4411 61.8678 18.2941 61.7098 18.2941C61.5208 18.2941 61.4128 18.4411 61.3918 18.6121C61.3448 18.9931 61.4118 19.3811 61.4278 19.7631C61.4348 19.9451 61.4378 20.1491 61.3748 20.3231C61.3538 20.3801 61.3198 20.4551 61.2558 20.4731C61.2208 20.4831 61.2168 20.4681 61.2068 20.4541C61.1218 20.3361 61.1238 20.1491 61.1118 20.0041C61.0878 19.7131 60.8568 19.5051 60.5658 19.6541C60.5088 19.6831 60.4798 19.7311 60.4238 19.7191C60.3698 19.7071 60.3238 19.6281 60.3128 19.5801C60.2638 19.3801 60.4688 19.1431 60.5758 18.9951C60.6478 18.8951 60.6078 18.7521 60.5338 18.6691C60.3868 18.5041 60.1858 18.4571 60.0068 18.3421C59.9718 18.3191 59.9418 18.3031 59.9438 18.2711C59.9468 18.2101 60.0168 18.1541 60.0688 18.1311C60.2908 18.0361 60.6148 18.2111 60.8188 18.2891C61.0618 18.3821 61.2978 18.4951 61.4818 18.6821C61.6918 18.8951 62.0098 18.5731 61.8098 18.3521Z" fill="#696969"/>
<path d="M59.9208 18.4311C59.0978 18.2441 58.2408 18.4571 57.5748 18.9701C57.2548 19.2171 56.9928 19.5321 56.7888 19.8811C56.5758 20.2441 56.3748 20.6871 56.3948 21.1171C56.4148 21.5641 56.6588 21.9371 56.9228 22.2831C57.1658 22.6021 57.4398 22.9091 57.8148 23.0741C58.5788 23.4111 59.4698 22.9931 60.0338 22.4601C60.6388 21.8891 61.0558 21.0061 60.9308 20.1671C60.9098 20.0251 60.7408 19.9431 60.6138 19.9601C60.4608 19.9811 60.3798 20.0991 60.3628 20.2441C60.2988 20.7961 60.1528 21.3121 59.7798 21.7401C59.4368 22.1331 58.8618 22.5371 58.3118 22.4941C58.0178 22.4711 57.7918 22.2551 57.6068 22.0451C57.4098 21.8211 57.1878 21.5541 57.0978 21.2651C57.0038 20.9611 57.1448 20.6311 57.2818 20.3611C57.4248 20.0791 57.6058 19.8301 57.8268 19.6041C58.3378 19.0821 59.0588 18.7751 59.7958 18.8881C60.0878 18.9311 60.2228 18.4991 59.9208 18.4311Z" fill="#696969"/>
<path d="M57.1058 22.0391C57.1568 21.9221 57.2198 21.8111 57.2718 21.6951C57.3258 21.5741 57.3858 21.4571 57.4518 21.3421C57.5808 21.1181 57.7258 20.9031 57.8678 20.6881C57.9038 20.6331 57.8838 20.5531 57.8328 20.5151C57.7758 20.4721 57.7098 20.4821 57.6558 20.5251C57.2288 20.8681 56.9278 21.3801 56.7858 21.9051C56.7628 21.9881 56.8068 22.0791 56.8868 22.1121C56.9598 22.1401 57.0698 22.1201 57.1058 22.0391Z" fill="#696969"/>
<path d="M57.6958 21.9461C57.7608 21.8821 57.8288 21.8211 57.8988 21.7631C57.9178 21.7481 57.9358 21.7321 57.9548 21.7171C57.9628 21.7101 57.9718 21.7041 57.9798 21.6971C58.0018 21.6791 57.9548 21.7161 57.9788 21.6981C58.0178 21.6691 58.0558 21.6401 58.0958 21.6121C58.1788 21.5541 58.2718 21.5051 58.3498 21.4401C58.3838 21.4121 58.4168 21.3831 58.4518 21.3551C58.4598 21.3481 58.4678 21.3421 58.4758 21.3361C58.4818 21.3311 58.4938 21.3221 58.4808 21.3321C58.5018 21.3161 58.5238 21.3001 58.5458 21.2841C58.6038 21.2411 58.6338 21.1761 58.6038 21.1061C58.5768 21.0421 58.5048 21.0031 58.4358 21.0231C58.3458 21.0491 58.2558 21.0781 58.1678 21.1121C58.0678 21.1511 57.9788 21.2171 57.8918 21.2781C57.7248 21.3961 57.5668 21.5261 57.4198 21.6681C57.3458 21.7391 57.3428 21.8741 57.4198 21.9451C57.4978 22.0181 57.6168 22.0221 57.6958 21.9461Z" fill="#696969"/>
<path d="M57.7308 22.3711C58.0158 22.3981 58.3088 22.3691 58.5848 22.2911C58.8698 22.2101 59.1298 22.0421 59.3538 21.8511C59.4298 21.7861 59.4288 21.6571 59.3698 21.5841C59.3118 21.5121 59.1898 21.4711 59.1068 21.5321C59.0018 21.6091 58.8918 21.6771 58.7748 21.7351C58.6758 21.7841 58.5758 21.8201 58.4548 21.8631C58.2078 21.9511 57.9878 21.9861 57.7318 21.9811C57.6258 21.9791 57.5358 22.0721 57.5358 22.1761C57.5348 22.2901 57.6248 22.3621 57.7308 22.3711Z" fill="#696969"/>
<path d="M95.0158 12.6611C92.5758 14.4971 89.6148 15.4361 86.5748 15.5081C86.2708 15.5151 86.2708 15.9691 86.5748 15.9801C89.7328 16.0991 92.8278 14.9681 95.2878 13.0131C95.4838 12.8561 95.2198 12.5071 95.0158 12.6611Z" fill="#696969"/>
<path d="M86.7238 15.5831C86.6788 15.1781 86.4948 14.8321 86.2848 14.4901C86.1058 14.1981 85.8838 13.8811 85.5248 13.8111C85.2048 13.7481 84.8348 13.8911 84.7298 14.2211C84.6748 14.3961 84.7148 14.5731 84.7898 14.7341C84.8408 14.8451 84.9528 14.9671 84.9678 15.0911C85.0338 15.0041 85.0998 14.9181 85.1658 14.8311C84.7638 14.9691 84.3038 15.1791 84.2558 15.6571C84.2368 15.8481 84.2938 16.0511 84.4228 16.1951C84.4868 16.2661 84.5728 16.3231 84.6658 16.3501C84.7138 16.3641 84.8478 16.3651 84.8628 16.3761C84.8318 16.3451 84.8008 16.3141 84.7698 16.2831C84.7748 16.2921 84.7808 16.3011 84.7858 16.3101C84.7738 16.2661 84.7618 16.2231 84.7508 16.1791C84.7538 16.2161 84.6388 16.3381 84.6138 16.3791C84.5658 16.4601 84.5248 16.5471 84.4928 16.6361C84.4288 16.8121 84.4228 17.0071 84.5058 17.1781C84.6898 17.5551 85.1698 17.5881 85.5008 17.3981C85.7908 17.2311 86.0048 16.9451 86.1928 16.6751C86.3648 16.4271 86.5268 16.1261 86.7118 15.9241C86.9868 15.6231 86.5428 15.1751 86.2628 15.4751C85.9788 15.7791 85.7878 16.1571 85.5568 16.4991C85.4618 16.6401 85.3568 16.7821 85.2028 16.8871C85.1038 16.9541 84.9728 16.9781 85.0068 16.8251C85.0578 16.5941 85.2908 16.4261 85.2698 16.1801C85.2588 16.0441 85.1698 15.9301 85.0378 15.8871C84.9708 15.8651 84.8548 15.8871 84.8028 15.8531C84.7668 15.8301 84.7668 15.6881 84.8038 15.6281C84.9038 15.4671 85.1428 15.4051 85.3098 15.3511C85.4128 15.3171 85.5198 15.2111 85.5078 15.0911C85.4938 14.9561 85.4588 14.8421 85.3988 14.7201C85.3568 14.6341 85.2798 14.5441 85.2628 14.4491C85.2428 14.3411 85.3628 14.3101 85.4728 14.3491C85.6858 14.4261 85.8238 14.7021 85.9388 14.8801C86.0938 15.1201 86.2268 15.3601 86.2698 15.6461C86.3058 15.9011 86.7528 15.8441 86.7238 15.5831Z" fill="#696969"/>
<path d="M85.1308 14.4771C84.5918 13.8571 83.7728 13.5291 82.9558 13.5471C82.5058 13.5571 82.0728 13.6801 81.6658 13.8681C81.2888 14.0411 80.8978 14.2861 80.6768 14.6481C80.4558 15.0111 80.4438 15.4631 80.4538 15.8751C80.4638 16.2811 80.5148 16.7211 80.7458 17.0671C81.1898 17.7341 82.1038 17.9111 82.8508 17.8161C83.6488 17.7141 84.5338 17.2761 84.9198 16.5381C85.0658 16.2581 84.6978 15.9361 84.4658 16.1881C84.0788 16.6071 83.6718 16.9381 83.1078 17.0801C82.6028 17.2071 81.9378 17.1871 81.5018 16.8681C81.2688 16.6981 81.1878 16.4111 81.1568 16.1371C81.1228 15.8351 81.1028 15.4851 81.1798 15.1891C81.2628 14.8691 81.5368 14.6891 81.8118 14.5371C82.1198 14.3661 82.4508 14.2601 82.7978 14.2031C83.5238 14.0831 84.2728 14.2901 84.7978 14.8121C85.0148 15.0281 85.3288 14.7041 85.1308 14.4771Z" fill="#696969"/>
<path d="M80.7658 15.7431C80.8748 15.6801 80.9898 15.6271 81.0988 15.5651C81.2118 15.5001 81.3278 15.4411 81.4458 15.3881C81.6718 15.2871 81.9088 15.2031 82.1408 15.1161C82.2038 15.0931 82.2478 15.0381 82.2368 14.9691C82.2268 14.9061 82.1728 14.8491 82.1048 14.8521C81.8238 14.8651 81.5568 14.9301 81.2978 15.0361C81.1658 15.0901 81.0358 15.1491 80.9088 15.2151C80.7808 15.2831 80.6658 15.3771 80.5528 15.4671C80.4858 15.5211 80.4898 15.6351 80.5388 15.6971C80.5938 15.7661 80.6888 15.7881 80.7658 15.7431Z" fill="#696969"/>
<path d="M81.3008 16.0201C81.2758 16.0241 81.3378 16.0151 81.3458 16.0151C81.3668 16.0121 81.3888 16.0101 81.4098 16.0081C81.4568 16.0041 81.5038 16.0001 81.5498 15.9971C81.6398 15.9921 81.7298 15.9901 81.8198 15.9921C81.9098 15.9941 82.0008 16.0081 82.0898 16.0031C82.1828 15.9991 82.2758 15.9921 82.3688 15.9921C82.4388 15.9921 82.5008 15.9381 82.5088 15.8681C82.5178 15.7951 82.4748 15.7361 82.4068 15.7121C82.3148 15.6791 82.2168 15.6401 82.1208 15.6211C82.0198 15.6011 81.9118 15.6021 81.8098 15.6001C81.6038 15.5971 81.3998 15.6141 81.1968 15.6431C81.0948 15.6571 81.0308 15.7921 81.0608 15.8841C81.0968 15.9951 81.1918 16.0351 81.3008 16.0201Z" fill="#696969"/>
<path d="M81.0338 16.3691C81.2578 16.5671 81.5108 16.7181 81.7908 16.8251C82.0558 16.9271 82.3608 16.9491 82.6428 16.9281C82.7528 16.9201 82.8468 16.8401 82.8468 16.7241C82.8468 16.6141 82.7538 16.5201 82.6428 16.5201C82.3878 16.5211 82.1758 16.4721 81.9218 16.3971C81.6888 16.3281 81.4758 16.2181 81.2708 16.0621C81.1948 16.0041 81.0708 16.0421 81.0188 16.1121C80.9628 16.1861 80.9588 16.3041 81.0338 16.3691Z" fill="#696969"/>
<path d="M43.7068 14.7561C43.2378 16.1191 42.6638 17.4381 41.9028 18.6661C41.1738 19.8431 40.2468 20.8731 39.2648 21.8441C39.0458 22.0601 39.3708 22.3751 39.5988 22.1781C40.6808 21.2401 41.6208 20.1621 42.3798 18.9451C43.1638 17.6861 43.6978 16.2861 44.1388 14.8751C44.2248 14.5981 43.7998 14.4851 43.7068 14.7561Z" fill="#696969"/>
<path d="M39.4258 21.7871C39.1408 21.5441 38.7988 21.4191 38.4428 21.3211C38.0838 21.2211 37.6508 21.1091 37.3168 21.3431C37.0098 21.5591 36.8678 21.9851 37.1278 22.2951C37.2248 22.4111 37.3588 22.4751 37.4988 22.5241C37.6058 22.5621 37.7458 22.5821 37.8208 22.6451C37.8068 22.5361 37.7928 22.4281 37.7788 22.3191C37.5768 22.7041 37.3888 23.1881 37.7078 23.5671C37.8228 23.7031 37.9868 23.7951 38.1638 23.8141C38.2608 23.8241 38.3548 23.8101 38.4438 23.7681C38.5058 23.7401 38.5718 23.6541 38.6268 23.6431C38.5808 23.6431 38.5348 23.6431 38.4888 23.6431C38.5008 23.6461 38.5118 23.6491 38.5238 23.6521C38.4858 23.6301 38.4478 23.6081 38.4098 23.5851C38.3968 23.5471 38.3948 23.5511 38.4058 23.5961C38.4078 23.6131 38.4098 23.6301 38.4128 23.6471C38.4188 23.6881 38.4248 23.7281 38.4328 23.7691C38.4468 23.8391 38.4628 23.9081 38.4868 23.9761C38.5458 24.1461 38.6338 24.3031 38.7838 24.4081C39.1608 24.6721 39.6148 24.3991 39.7638 24.0171C39.8948 23.6801 39.8438 23.2911 39.7918 22.9441C39.7668 22.7751 39.7358 22.6071 39.7048 22.4381C39.6728 22.2661 39.6588 22.2031 39.6558 22.0381C39.6488 21.6301 39.0188 21.6281 39.0208 22.0381C39.0228 22.4441 39.1408 22.8421 39.2088 23.2391C39.2328 23.3751 39.2578 23.5721 39.2258 23.7531C39.2128 23.8291 39.1878 23.8921 39.1278 23.9371C39.1358 23.9311 39.0698 23.9631 39.1058 23.9471C39.0718 23.9371 39.0668 23.9361 39.0898 23.9421C39.1048 23.9591 39.0998 23.9551 39.0758 23.9311C39.0028 23.8141 38.9518 23.6551 38.9198 23.4901C38.8598 23.1841 38.5718 23.0301 38.3098 23.2381C38.3038 23.2431 38.2358 23.3031 38.2458 23.2971C38.2178 23.3141 38.2338 23.3081 38.2028 23.2981C38.1558 23.2831 38.1098 23.2461 38.0828 23.1951C37.9888 23.0191 38.1608 22.7471 38.2448 22.5921C38.2988 22.4931 38.2938 22.3451 38.2028 22.2661C38.0348 22.1191 37.8148 22.0741 37.6348 21.9961C37.5988 21.9801 37.5588 21.9551 37.5488 21.9431C37.5218 21.9071 37.5438 21.9371 37.5438 21.9371C37.5498 21.9551 37.5408 21.9171 37.5418 21.9111C37.5478 21.8681 37.5948 21.8011 37.6498 21.7691C37.8498 21.6541 38.1708 21.7731 38.3748 21.8231C38.6258 21.8841 38.8918 21.9551 39.0978 22.1181C39.1958 22.1961 39.3298 22.2141 39.4258 22.1181C39.5088 22.0321 39.5218 21.8691 39.4258 21.7871Z" fill="#696969"/>
<path d="M37.5058 22.0811C36.6788 22.0011 35.8518 22.3361 35.2698 22.9211C34.7248 23.4691 34.2548 24.4141 34.3828 25.2031C34.4518 25.6311 34.7438 25.9711 35.0368 26.2721C35.3118 26.5551 35.6248 26.8231 36.0068 26.9481C36.7978 27.2081 37.6558 26.6791 38.1428 26.0821C38.6588 25.4501 39.0008 24.5251 38.7718 23.7121C38.6838 23.4011 38.2008 23.4581 38.2038 23.7891C38.2098 24.3611 38.1388 24.8811 37.8228 25.3721C37.5408 25.8111 37.0198 26.2731 36.4758 26.3141C36.1718 26.3371 35.9078 26.1491 35.6938 25.9541C35.4738 25.7541 35.2198 25.5241 35.0948 25.2491C34.9598 24.9521 35.0698 24.6001 35.1718 24.3091C35.2748 24.0131 35.4318 23.7391 35.6218 23.4911C36.0728 22.9001 36.7568 22.5351 37.5068 22.5541C37.8148 22.5611 37.8028 22.1101 37.5058 22.0811Z" fill="#696969"/>
<path d="M35.2108 25.9971C35.2488 25.8701 35.2968 25.7471 35.3358 25.6201C35.3718 25.5021 35.4128 25.3851 35.4618 25.2711C35.5578 25.0431 35.6718 24.8201 35.7808 24.5971C35.8448 24.4661 35.6818 24.3191 35.5698 24.4341C35.1898 24.8261 34.9488 25.3661 34.8738 25.9041C34.8608 25.9981 34.8968 26.0921 34.9958 26.1191C35.0878 26.1451 35.1838 26.0881 35.2108 25.9971Z" fill="#696969"/>
<path d="M35.7598 25.8701C35.8768 25.7231 36.0048 25.5861 36.1428 25.4591C36.1768 25.4281 36.2108 25.3981 36.2458 25.3681C36.2808 25.3391 36.3188 25.3121 36.3498 25.2801C36.4148 25.2111 36.4798 25.1421 36.5488 25.0761C36.5998 25.0271 36.6018 24.9431 36.5598 24.8891C36.5128 24.8291 36.4418 24.8231 36.3758 24.8521C36.2878 24.8901 36.1998 24.9301 36.1158 24.9771C36.0668 25.0051 36.0228 25.0461 35.9798 25.0821C35.9428 25.1131 35.9068 25.1451 35.8708 25.1771C35.7308 25.3051 35.6008 25.4441 35.4818 25.5931C35.4478 25.6351 35.4248 25.6751 35.4248 25.7311C35.4248 25.7791 35.4458 25.8361 35.4818 25.8691C35.5538 25.9351 35.6918 25.9561 35.7598 25.8701Z" fill="#696969"/>
<path d="M35.8398 26.2711C36.1328 26.2611 36.4198 26.1991 36.6908 26.0851C36.9588 25.9721 37.1968 25.7831 37.3918 25.5681C37.4658 25.4871 37.4718 25.3611 37.3918 25.2801C37.3118 25.2011 37.1838 25.2041 37.1038 25.2801C37.0568 25.3241 37.0088 25.3671 36.9588 25.4071C36.9298 25.4301 36.9778 25.3931 36.9478 25.4151C36.9358 25.4241 36.9238 25.4331 36.9118 25.4421C36.8878 25.4601 36.8628 25.4771 36.8368 25.4931C36.7298 25.5631 36.6148 25.6221 36.5008 25.6811C36.4738 25.6951 36.4468 25.7081 36.4198 25.7211C36.4058 25.7271 36.3928 25.7341 36.3788 25.7401C36.3448 25.7551 36.4038 25.7301 36.3688 25.7441C36.3088 25.7681 36.2488 25.7891 36.1868 25.8081C36.1288 25.8251 36.0708 25.8401 36.0118 25.8531C35.9438 25.8671 35.8928 25.8751 35.8408 25.8811C35.7358 25.8921 35.6458 25.9631 35.6458 26.0761C35.6438 26.1791 35.7338 26.2751 35.8398 26.2711Z" fill="#696969"/>
<path d="M91.0487 11.5311C88.3937 9.69509 86.6398 6.88909 84.3068 4.70409C82.0598 2.59909 79.1238 0.842089 76.0548 0.337089C75.7438 0.286089 75.6137 0.714093 75.9227 0.816093C77.4867 1.33509 79.0308 1.88009 80.4718 2.69109C81.8718 3.47909 83.1508 4.45407 84.2908 5.58507C86.4528 7.72807 88.2127 10.2601 90.8387 11.8901C91.0687 12.0321 91.2657 11.6811 91.0487 11.5311Z" fill="#696969"/>
<path d="M91.1908 11.4141C88.1118 10.6231 85.0458 9.64508 82.3418 7.93508C80.9938 7.08308 79.7698 6.03709 78.7658 4.79509C77.6138 3.37009 76.8228 1.72708 75.9248 0.143084C75.7408 -0.180916 75.2808 0.103078 75.4328 0.431078C76.9148 3.62408 78.8538 6.46909 81.8298 8.42809C84.5928 10.2471 87.8338 11.2661 91.0518 11.9171C91.3788 11.9831 91.5188 11.4991 91.1908 11.4141Z" fill="#696969"/>
<path d="M91.0358 11.3201C88.1858 9.77911 85.9558 7.45212 83.6038 5.27412C82.5238 4.27412 81.4038 3.31411 80.1838 2.48811C79.0698 1.73411 77.6738 0.836106 76.3078 0.669106C76.1578 0.651106 76.1048 0.885112 76.2318 0.950112C76.9138 1.30011 77.6628 1.51511 78.3498 1.86411C78.9768 2.18311 79.5798 2.54911 80.1618 2.94511C81.4698 3.83711 82.6668 4.88112 83.8398 5.94212C86.0698 7.96012 88.2288 10.1151 90.9288 11.5031C91.0498 11.5651 91.1558 11.3851 91.0358 11.3201Z" fill="#696969"/>
<path d="M90.0168 10.7531C87.4098 9.54407 84.9168 8.04908 82.6058 6.34008C81.4308 5.47108 80.3068 4.53508 79.2388 3.53808C78.6998 3.03508 78.1738 2.5171 77.6628 1.9851C77.2058 1.5101 76.7828 0.896089 76.2218 0.544089C76.0888 0.461089 75.9618 0.621078 76.0208 0.745078C76.3058 1.33708 76.9048 1.82408 77.3648 2.28408C77.8868 2.80608 78.4228 3.31308 78.9718 3.80508C80.0288 4.75208 81.1338 5.64709 82.2768 6.48809C84.6648 8.24409 87.2298 9.69109 89.9428 10.8801C90.0278 10.9161 90.1038 10.7931 90.0168 10.7531Z" fill="#696969"/>
<path d="M64.9288 11.1341C62.1278 9.6231 60.0838 7.0891 57.5788 5.1771C55.0788 3.2691 51.9058 1.8141 48.7328 1.6471C48.4558 1.6321 48.3918 2.07611 48.6668 2.13511C50.2558 2.47411 51.8348 2.8361 53.3378 3.4661C54.8648 4.1071 56.2948 4.96511 57.5888 5.99711C59.9458 7.87711 61.9568 10.1741 64.7188 11.4921C64.9568 11.6061 65.1668 11.2621 64.9288 11.1341Z" fill="#696969"/>
<path d="M65.0648 10.9981C61.9148 10.5521 58.7388 9.92207 55.8618 8.51207C54.4388 7.81507 53.1138 6.92308 51.9848 5.80708C50.6798 4.51608 49.7078 2.97709 48.6388 1.49809C48.4278 1.20709 47.9528 1.46509 48.1468 1.78609C49.9778 4.80709 52.2308 7.45109 55.4248 9.06609C58.3878 10.5651 61.7128 11.2161 64.9958 11.5101C65.2848 11.5361 65.3568 11.0401 65.0648 10.9981Z" fill="#696969"/>
<path d="M64.8568 10.9101C61.9188 9.71911 59.4798 7.70711 56.9628 5.83311C55.7378 4.92111 54.4788 4.05112 53.1248 3.33912C51.9308 2.71212 50.4498 1.97012 49.0768 1.95112C48.8978 1.94912 48.8848 2.19011 49.0368 2.24711C49.7398 2.51111 50.4928 2.64312 51.2008 2.90712C51.9618 3.19012 52.6958 3.54212 53.4068 3.93312C54.7448 4.66912 55.9978 5.5471 57.2348 6.4391C59.6438 8.1781 61.9988 10.0441 64.8008 11.1131C64.9288 11.1631 64.9808 10.9601 64.8568 10.9101Z" fill="#696969"/>
<path d="M63.7868 10.4601C61.0378 9.53709 58.3718 8.3131 55.8678 6.8491C54.6698 6.1481 53.5108 5.3851 52.3938 4.5601C51.7778 4.1051 51.1758 3.63311 50.5878 3.14311C50.0738 2.71511 49.5768 2.14011 48.9748 1.84611C48.8508 1.78611 48.6908 1.9141 48.7738 2.0471C49.1288 2.6111 49.7748 3.03012 50.2898 3.44212C50.8308 3.87412 51.3828 4.29411 51.9448 4.69911C53.1558 5.57111 54.4138 6.38112 55.7088 7.12312C58.2578 8.58512 60.9448 9.7281 63.7478 10.6031C63.8378 10.6301 63.8758 10.4901 63.7868 10.4601Z" fill="#696969"/>
<path d="M44.0438 14.7681C41.0528 13.7611 38.6318 11.6251 35.8648 10.1731C33.0768 8.71009 29.6968 7.78909 26.5358 8.16009C26.2248 8.19609 26.2088 8.6441 26.5358 8.6571C28.2288 8.7251 29.9088 8.82708 31.5608 9.23208C33.1478 9.62008 34.6638 10.2311 36.0888 11.0281C38.6808 12.4791 41.0328 14.3491 43.9338 15.1691C44.1918 15.2421 44.2948 14.8531 44.0438 14.7681Z" fill="#696969"/>
<path d="M44.1468 14.6161C40.9248 14.7091 37.6588 14.6161 34.5498 13.6841C32.9958 13.2181 31.5158 12.5221 30.1988 11.5701C28.7748 10.5401 27.6088 9.23711 26.3598 8.01511C26.0948 7.75611 25.7178 8.14309 25.9568 8.41809C28.2268 11.0321 30.8328 13.2191 34.1708 14.2901C37.3708 15.3171 40.8228 15.4061 44.1468 15.1381C44.4768 15.1101 44.4868 14.6061 44.1468 14.6161Z" fill="#696969"/>
<path d="M43.9698 14.5681C40.8688 13.8901 38.1258 12.3231 35.3248 10.9011C33.9828 10.2201 32.6158 9.5851 31.1848 9.1121C29.8708 8.6781 28.2668 8.20009 26.8698 8.40809C26.7238 8.43009 26.7288 8.67211 26.8698 8.69911C27.6068 8.83611 28.3648 8.84112 29.1058 8.98112C29.8488 9.12212 30.5808 9.32211 31.2978 9.56211C32.8378 10.0771 34.3068 10.7761 35.7638 11.4891C38.4008 12.7791 41.0068 14.2001 43.9138 14.7731C44.0468 14.7991 44.1038 14.5981 43.9698 14.5681Z" fill="#696969"/>
<path d="M42.8338 14.3051C39.9948 13.8641 37.1848 13.1191 34.4928 12.1161C33.1218 11.6051 31.7818 11.0171 30.4778 10.3541C29.8198 10.0191 29.1708 9.66708 28.5318 9.29708C27.9608 8.96608 27.3888 8.50408 26.7538 8.31408C26.6078 8.27008 26.5158 8.45508 26.6108 8.55908C27.0578 9.04808 27.7448 9.3451 28.3188 9.6621C28.9658 10.0191 29.6218 10.3591 30.2868 10.6811C31.5958 11.3141 32.9398 11.8831 34.3048 12.3831C37.0638 13.3931 39.9038 14.0621 42.8138 14.4511C42.8958 14.4601 42.9158 14.3181 42.8338 14.3051Z" fill="#696969"/>
<path d="M79.6188 10.2941C77.3368 12.1101 75.7208 14.5331 73.7778 16.6751C72.8088 17.7431 71.7508 18.7421 70.5168 19.4991C69.0638 20.3901 67.3908 20.8961 65.7348 21.2581C65.3948 21.3321 65.5468 21.8171 65.8758 21.7681C67.5718 21.5191 69.1998 21.0341 70.6738 20.1411C71.9018 19.3981 72.9688 18.4191 73.9318 17.3621C75.9618 15.1341 77.5988 12.5501 79.8368 10.5121C79.9878 10.3761 79.7708 10.1731 79.6188 10.2941Z" fill="#696969"/>
<path d="M79.7978 10.2411C73.8528 11.5691 68.1628 15.8591 65.7098 21.5111C65.6168 21.7261 65.9128 21.9171 66.0338 21.7001C67.5138 19.0301 69.3428 16.6391 71.7328 14.7161C74.1308 12.7871 76.9388 11.4321 79.9208 10.6891C80.2118 10.6171 80.0888 10.1761 79.7978 10.2411Z" fill="#696969"/>
<path d="M56.7628 12.3001C55.5408 13.0541 54.6108 14.1281 53.7318 15.2461C52.7768 16.4611 51.8218 17.6611 50.6898 18.7191C49.5078 19.8241 48.1658 20.7661 46.6888 21.4341C45.1788 22.1171 43.6318 22.2671 42.0218 22.5401C41.8178 22.5751 41.8298 22.8971 42.0218 22.9411C43.5248 23.2851 45.1768 22.8301 46.5688 22.2601C48.0258 21.6641 49.3328 20.7941 50.5088 19.7531C51.6988 18.6991 52.7088 17.4801 53.6498 16.2031C54.6188 14.8891 55.5718 13.5411 56.9558 12.6301C57.1608 12.4961 56.9738 12.1701 56.7628 12.3001Z" fill="#696969"/>
<path d="M57.0108 12.2311C53.8148 12.8791 50.5958 13.8581 47.8598 15.6861C45.2538 17.4281 43.2668 19.8351 42.0278 22.7181C41.9278 22.9511 42.2248 23.1361 42.3728 22.9191C43.2818 21.5881 44.0178 20.1691 45.0808 18.9431C46.0288 17.8501 47.1428 16.9101 48.3528 16.1201C51.0218 14.3801 54.0368 13.3541 57.1198 12.6231C57.3758 12.5631 57.2668 12.1801 57.0108 12.2311Z" fill="#696969"/>
<path d="M36.7048 16.3961C35.4708 17.1111 34.6728 18.3121 33.8618 19.4521C32.9598 20.7201 32.1308 22.0411 31.1158 23.2241C30.1328 24.3701 28.9848 25.3531 27.6438 26.0561C26.9328 26.4291 26.1818 26.7191 25.4068 26.9271C24.6708 27.1251 23.9008 27.1871 23.1798 27.4301C22.9578 27.5041 22.9138 27.8731 23.1798 27.9251C24.5608 28.1951 26.1358 27.6141 27.3818 27.0511C28.7848 26.4171 30.0328 25.4961 31.0788 24.3701C32.1048 23.2651 32.9478 22.0051 33.7738 20.7491C34.6708 19.3851 35.5028 17.6421 36.8958 16.7201C37.0928 16.5881 36.9148 16.2741 36.7048 16.3961Z" fill="#696969"/>
<path d="M36.7738 16.3241C33.6068 17.1471 30.4498 18.2521 28.0138 20.5141C25.7928 22.5771 24.3818 25.1531 22.7918 27.6881C22.6528 27.9101 23.0088 28.1191 23.1438 27.8931C24.5808 25.4841 26.2708 23.0241 28.3008 21.0761C30.7048 18.7691 33.7918 17.7571 36.8678 16.6611C37.0768 16.5871 36.9948 16.2671 36.7738 16.3241Z" fill="#696969"/>
<path d="M21.5728 20.3121C21.6108 19.9631 21.3288 19.6041 21.1248 19.3461C20.9038 19.0651 20.6418 18.8211 20.4178 18.5441C19.9658 17.9841 19.9588 17.2551 20.2418 16.6131C20.3188 16.4391 20.1128 16.2381 19.9598 16.3961C19.4088 16.9671 19.3698 17.8561 19.7138 18.5471C19.8768 18.8741 20.1318 19.1701 20.3948 19.4211C20.5338 19.5541 20.6728 19.6861 20.7998 19.8311C20.9048 19.9511 21.0868 20.1451 21.0828 20.3121C21.0778 20.6331 21.5398 20.6171 21.5728 20.3121Z" fill="#696969"/>
<path d="M20.0048 16.2451C19.3488 16.5571 18.9118 17.1971 18.8328 17.9161C18.7928 18.2731 18.8548 18.6411 18.9938 18.9721C19.1128 19.2561 19.3578 19.7511 19.7128 19.7561C19.8408 19.7581 19.9018 19.6401 19.8858 19.5291C19.8638 19.3791 19.7388 19.2781 19.6488 19.1651C19.5568 19.0501 19.4798 18.9191 19.4208 18.7851C19.3048 18.5211 19.2568 18.2271 19.2858 17.9401C19.3428 17.3771 19.7198 16.8621 20.2068 16.5901C20.4338 16.4631 20.2338 16.1361 20.0048 16.2451Z" fill="#696969"/>
<path d="M19.7188 19.3131C19.3128 19.0411 18.7348 18.9871 18.2588 19.0421C18.0148 19.0701 17.7688 19.1071 17.5268 19.1541C17.2778 19.2021 17.0398 19.3411 16.8308 19.4791C16.7468 19.5341 16.7438 19.6971 16.8618 19.7171C17.1098 19.7591 17.3188 19.6501 17.5588 19.6171C17.7668 19.5881 17.9868 19.5891 18.1968 19.5841C18.6198 19.5741 19.0998 19.4951 19.4918 19.7001C19.7498 19.8341 19.9578 19.4731 19.7188 19.3131Z" fill="#696969"/>
<path d="M16.9098 19.6461C17.3808 19.9351 17.8508 20.2181 18.3758 20.4001C18.6388 20.4911 18.9088 20.5551 19.1868 20.5781C19.4108 20.5961 19.7838 20.6451 19.9278 20.4351C19.9608 20.3861 19.9508 20.3011 19.9058 20.2621C19.7968 20.1681 19.6838 20.1851 19.5478 20.1881C19.4278 20.1901 19.3068 20.1851 19.1868 20.1701C18.9398 20.1401 18.6938 20.0851 18.4568 20.0111C17.9708 19.8581 17.5078 19.6301 17.0498 19.4081C16.8898 19.3291 16.7558 19.5511 16.9098 19.6461Z" fill="#696969"/>
<path d="M19.8818 20.2571C19.2568 20.1711 18.9498 20.7251 18.4998 21.0411C18.0708 21.3421 17.5748 21.5301 17.0688 21.6501C16.8468 21.7031 16.9068 22.0231 17.1208 22.0341C17.6498 22.0621 18.1868 21.8931 18.6178 21.5861C18.8338 21.4321 19.0268 21.2561 19.2018 21.0571C19.3678 20.8691 19.5538 20.6301 19.8298 20.6401C20.0448 20.6491 20.1028 20.2871 19.8818 20.2571Z" fill="#696969"/>
<path d="M17.2428 21.9841C17.8978 22.1761 18.6458 22.4151 19.3308 22.2471C19.6018 22.1811 19.8808 22.0711 20.1048 21.9021C20.3158 21.7431 20.6008 21.4971 20.5808 21.2061C20.5748 21.1131 20.4828 21.0131 20.3798 21.0531C20.1598 21.1381 20.0098 21.3391 19.8048 21.4561C19.5928 21.5771 19.3738 21.6591 19.1328 21.7041C18.5078 21.8191 17.9088 21.7841 17.2798 21.7121C17.1208 21.6941 17.0988 21.9421 17.2428 21.9841Z" fill="#696969"/>
<path d="M21.1198 20.5741C21.3538 20.8261 21.3478 21.2301 21.2858 21.5491C21.2118 21.9271 21.0348 22.2751 20.8838 22.6261C20.7418 22.9551 20.5998 23.3021 20.5458 23.6591C20.5048 23.9301 20.4698 24.4031 20.7538 24.5561C20.8408 24.6031 20.9468 24.5611 20.9748 24.4661C21.0268 24.2921 20.9338 24.1211 20.9278 23.9441C20.9218 23.7581 20.9548 23.5761 21.0058 23.3971C21.1178 23.0061 21.3618 22.6711 21.5368 22.3071C21.8458 21.6651 22.0568 20.8011 21.4188 20.2751C21.2118 20.1041 20.9318 20.3711 21.1198 20.5741Z" fill="#696969"/>
<path d="M20.1738 21.2591C20.2698 21.5791 20.2288 21.9041 20.1688 22.2271C20.1078 22.5551 20.0428 22.8801 20.0208 23.2141C19.9818 23.7951 20.1198 24.4561 20.6568 24.7801C20.8948 24.9241 21.1568 24.5891 20.9548 24.3931C20.5508 24.0021 20.4408 23.4801 20.5088 22.9311C20.5828 22.3321 20.7898 21.7381 20.6048 21.1391C20.5208 20.8651 20.0908 20.9821 20.1738 21.2591Z" fill="#696969"/>
<path d="M19.1378 17.9271C17.7898 14.2631 13.4838 12.7531 9.89679 13.5991C7.89179 14.0721 6.19279 15.1971 4.74379 16.6311C4.01279 17.3541 3.34579 18.1391 2.72279 18.9561C2.04879 19.8401 1.35179 20.7721 0.900793 21.7921C0.823793 21.9671 1.05179 22.2021 1.19479 22.0191C2.37879 20.5061 3.36479 18.8941 4.72279 17.5121C6.07479 16.1351 7.61579 14.9931 9.48679 14.4391C13.1068 13.3671 16.8128 14.8651 18.7138 18.1061C18.8418 18.3251 19.2308 18.1811 19.1378 17.9271Z" fill="#696969"/>
<path d="M1.06479 22.1731C1.12279 22.1961 1.18979 22.2011 1.25079 22.2081C1.31079 22.2151 1.37079 22.2181 1.43179 22.2171C1.46179 22.2171 1.49279 22.2151 1.52279 22.2121C1.57179 22.2071 1.61279 22.1941 1.65379 22.1691C1.66379 22.1631 1.67379 22.1571 1.68379 22.1501C1.73379 22.1161 1.79079 22.0751 1.81879 22.0191C1.84279 21.9711 1.84179 21.9181 1.80879 21.8741C1.77779 21.8331 1.72279 21.8131 1.67179 21.8271C1.66879 21.8281 1.66579 21.8291 1.66379 21.8291C1.64979 21.8291 1.70279 21.8271 1.68979 21.8261C1.68379 21.8251 1.67779 21.8271 1.67179 21.8271C1.66479 21.8271 1.65579 21.8251 1.64879 21.8251C1.64579 21.8251 1.69579 21.8331 1.67679 21.8291C1.67279 21.8281 1.66879 21.8281 1.66479 21.8271C1.61279 21.8171 1.56379 21.7931 1.50979 21.7971C1.42379 21.8021 1.33679 21.7981 1.25179 21.7871C1.27079 21.7901 1.28879 21.7921 1.30779 21.7951C1.26579 21.7891 1.22179 21.7821 1.18179 21.7661C1.19879 21.7731 1.21579 21.7801 1.23279 21.7871C1.23179 21.7861 1.23079 21.7861 1.22979 21.7861C1.19679 21.7671 1.16079 21.7571 1.12279 21.7571C1.10379 21.7601 1.08479 21.7621 1.06679 21.7651C1.00279 21.7791 0.953787 21.8291 0.929787 21.8881C0.906787 21.9431 0.906787 21.9971 0.929787 22.0511C0.954787 22.1161 1.00079 22.1471 1.06479 22.1731Z" fill="#696969"/>
<path d="M1.55678 22.0801C1.18378 22.3491 0.955782 22.7381 0.745782 23.1381C0.644782 23.3311 0.544782 23.5261 0.426782 23.7091C0.369782 23.7971 0.307782 23.8811 0.249782 23.9691C0.183782 24.0701 0.142783 24.1701 0.102783 24.2831C0.0597826 24.4041 0.188782 24.5031 0.297782 24.4781C0.762782 24.3731 0.948782 23.8321 1.12078 23.4411C1.28978 23.0561 1.45778 22.6561 1.78878 22.3801C1.95378 22.2431 1.73278 21.9531 1.55678 22.0801Z" fill="#696969"/>
<path d="M0.0347921 24.3561C0.265792 24.7351 0.579791 25.0551 0.950791 25.2971C1.13779 25.4191 1.33979 25.5121 1.55079 25.5831C1.75979 25.6531 2.02879 25.7201 2.21179 25.5621C2.25479 25.5241 2.26279 25.4471 2.23279 25.3991C2.12279 25.2251 1.89279 25.1811 1.70879 25.1161C1.54679 25.0581 1.37579 24.9751 1.21179 24.8781C0.898792 24.6931 0.62479 24.4401 0.41979 24.1311C0.26379 23.8921 -0.116208 24.1081 0.0347921 24.3561Z" fill="#696969"/>
<path d="M1.9888 25.2461C1.7498 25.3031 1.5308 25.4251 1.3498 25.5901C1.3018 25.6341 1.2738 25.7111 1.2738 25.7741C1.2738 25.8381 1.3018 25.9141 1.3498 25.9581C1.3998 26.0041 1.4648 26.0371 1.5338 26.0341C1.6038 26.0311 1.6658 26.0061 1.7178 25.9581C1.7458 25.9321 1.7748 25.9071 1.8048 25.8841C1.7868 25.8981 1.7698 25.9111 1.7518 25.9251C1.8318 25.8641 1.9178 25.8131 2.0098 25.7741C1.9888 25.7831 1.9688 25.7911 1.9478 25.8001C2.0048 25.7761 2.0638 25.7561 2.1238 25.7411C2.1858 25.7251 2.2448 25.6781 2.2768 25.6231C2.3088 25.5681 2.3228 25.4871 2.3028 25.4251C2.2608 25.2901 2.1298 25.2131 1.9888 25.2461Z" fill="#696969"/>
<path d="M1.4108 26.1251C5.4238 27.3661 8.9378 30.8101 13.4028 30.1751C15.2548 29.9121 16.8748 28.9731 18.1338 27.6091C19.3268 26.3161 20.6038 24.5971 20.5508 22.7541C20.5428 22.4881 20.1048 22.4001 20.0628 22.6881C19.5478 26.2051 16.2198 29.4431 12.6228 29.5541C8.5918 29.6781 5.2868 26.6611 1.5558 25.5991C1.2168 25.5031 1.0758 26.0221 1.4108 26.1251Z" fill="#696969"/>
<path d="M1.8398 22.2331C4.4468 20.1881 6.9488 18.0631 10.3088 17.4741C11.7818 17.2161 13.3218 17.2251 14.7888 17.5211C15.5738 17.6791 16.3518 17.9141 17.0848 18.2381C17.4398 18.3951 17.7858 18.5731 18.1198 18.7701C18.3958 18.9331 18.5988 19.1271 18.9278 19.0991C19.0298 19.0901 19.1098 19.0041 19.0808 18.8981C18.9158 18.2931 17.9188 17.9461 17.3958 17.7051C16.6738 17.3721 15.9208 17.1171 15.1438 16.9471C13.5888 16.6071 11.9808 16.5771 10.4088 16.8171C6.8678 17.3581 4.0868 19.5481 1.5968 21.9911C1.4358 22.1501 1.6708 22.3661 1.8398 22.2331Z" fill="#696969"/>
<path d="M1.78276 25.7121C3.60676 26.0341 5.26276 26.8371 6.88276 27.7071C7.73676 28.1651 8.57976 28.6431 9.49776 28.9641C11.9798 29.8331 14.8158 29.3821 17.1448 28.2611C17.2908 28.1911 17.1878 27.9541 17.0348 28.0011C14.4718 28.7851 11.9518 29.3211 9.36376 28.3321C8.38676 27.9591 7.48376 27.4111 6.55676 26.9331C5.08276 26.1741 3.55976 25.5061 1.91576 25.2251C1.59876 25.1711 1.46176 25.6561 1.78276 25.7121Z" fill="#696969"/>
<path d="M18.6678 19.1551C15.8408 18.3271 12.6388 17.5291 9.78082 18.6731C9.70682 18.7021 9.73382 18.8171 9.81482 18.7951C12.7818 17.9801 15.7098 18.5711 18.6078 19.3751C18.7488 19.4151 18.8088 19.1971 18.6678 19.1551Z" fill="#696969"/>
<path d="M9.50082 15.9881C11.0908 15.7771 12.7548 15.8851 14.3108 16.2631C15.1618 16.4701 15.9978 16.7671 16.7718 17.1791C17.6008 17.6211 18.2388 18.2111 18.9168 18.8461C18.9748 18.9001 19.0808 18.8291 19.0318 18.7571C18.0488 17.3221 16.1138 16.5061 14.4898 16.0971C12.8598 15.6861 11.1428 15.5881 9.48282 15.8591C9.41182 15.8721 9.42782 15.9981 9.50082 15.9881Z" fill="#696969"/>
<path d="M10.7838 14.7761C12.3668 14.5581 13.9868 14.9831 15.3958 15.6961C16.0978 16.0521 16.7648 16.4801 17.3688 16.9861C17.9578 17.4781 18.4278 18.0531 18.9498 18.6081C19.0248 18.6881 19.1438 18.5861 19.0968 18.4951C18.7428 17.8091 18.1158 17.2271 17.5238 16.7461C16.8618 16.2081 16.1358 15.7481 15.3618 15.3881C13.9248 14.7181 12.3158 14.3501 10.7328 14.5921C10.6108 14.6101 10.6638 14.7931 10.7838 14.7761Z" fill="#696969"/>
<path d="M6.5588 21.8131C8.6118 20.8691 10.8998 20.8071 13.1208 20.8261C14.1378 20.8341 15.1548 20.8511 16.1718 20.8331C17.0768 20.8171 18.1938 20.9081 19.0488 20.5881C19.1188 20.5621 19.1058 20.4671 19.0318 20.4601C18.5118 20.4101 17.9638 20.5221 17.4428 20.5501C16.8768 20.5811 16.3108 20.5941 15.7438 20.6001C14.7068 20.6101 13.6688 20.5891 12.6318 20.5861C10.5218 20.5811 8.4288 20.7811 6.5148 21.7361C6.4608 21.7621 6.5068 21.8371 6.5588 21.8131Z" fill="#696969"/>
<path d="M8.44578 22.9211C10.1138 22.4001 11.8658 22.3561 13.5958 22.2551C15.1148 22.1671 16.8578 22.0771 18.2208 21.3321C18.2898 21.2951 18.2428 21.1831 18.1678 21.2051C17.3608 21.4481 16.5848 21.6961 15.7478 21.8191C14.8948 21.9441 14.0318 21.9951 13.1718 22.0471C11.5578 22.1441 9.94478 22.2391 8.40078 22.7601C8.30078 22.7941 8.34278 22.9531 8.44578 22.9211Z" fill="#696969"/>
<path d="M5.51682 25.2101C8.12482 24.7481 10.7898 25.0361 13.4048 24.6631C14.4948 24.5071 15.5608 24.2341 16.5838 23.8261C17.4548 23.4791 18.5248 23.0561 19.1108 22.2941C19.2528 22.1101 18.9908 21.9481 18.8318 22.0151C18.3698 22.2101 17.9688 22.5261 17.5258 22.7621C17.0228 23.0301 16.4978 23.2531 15.9598 23.4421C14.9288 23.8041 13.8458 24.0631 12.7618 24.2031C10.3198 24.5191 7.85982 24.3841 5.44682 24.9581C5.28282 24.9981 5.35482 25.2391 5.51682 25.2101Z" fill="#696969"/>
<path d="M10.9998 25.8881C12.8198 25.8051 14.6998 25.7241 16.4038 25.0141C17.7288 24.4621 19.0988 23.4661 19.6278 22.0781C19.6558 22.0041 19.5378 21.9571 19.5008 22.0251C18.7478 23.4051 17.6278 24.3641 16.1528 24.9251C14.5128 25.5481 12.7328 25.6381 10.9998 25.7261C10.8958 25.7301 10.8948 25.8931 10.9998 25.8881Z" fill="#696969"/>
<path d="M12.1848 27.9021C14.0968 28.1071 16.3268 27.6171 17.6728 26.1611C18.8248 24.9161 19.7568 23.2701 20.2918 21.6621C20.3158 21.5911 20.1998 21.5401 20.1688 21.6101C19.5088 23.1171 18.7268 24.6601 17.6328 25.9011C16.3148 27.3961 14.1128 27.9351 12.1848 27.7581C12.0928 27.7511 12.0948 27.8921 12.1848 27.9021Z" fill="#696969"/>
<path d="M36.1998 16.5541C33.8078 18.0721 31.8528 20.1311 29.8908 22.1491C28.9108 23.1561 27.9218 24.1521 26.8748 25.0901C25.7448 26.1021 24.5278 26.9401 23.2428 27.7381C23.0758 27.8421 23.2208 28.0791 23.3948 27.9981C25.9238 26.8161 27.9598 24.6441 29.8478 22.6481C31.8558 20.5241 33.8438 18.3501 36.3208 16.7571C36.4468 16.6761 36.3288 16.4721 36.1998 16.5541Z" fill="#696969"/>
<path d="M35.9978 16.7531C33.6118 18.0171 31.2288 19.2461 29.1398 20.9841C28.0598 21.8831 27.1258 22.9151 26.2238 23.9881C25.2518 25.1441 24.2628 26.2901 23.3438 27.4881C23.2398 27.6241 23.4668 27.7961 23.5808 27.6711C25.5018 25.5661 27.1338 23.1671 29.3048 21.3021C31.3418 19.5521 33.7378 18.1911 36.0798 16.8951C36.1718 16.8431 36.0908 16.7041 35.9978 16.7531Z" fill="#696969"/>
<path d="M56.2578 12.4611C53.9598 14.0231 52.0168 16.0041 49.9658 17.8631C47.8518 19.7781 45.6388 21.3681 42.9958 22.4621C42.8248 22.5331 42.8848 22.8021 43.0748 22.7491C45.6078 22.0381 47.8068 20.2741 49.7278 18.5451C51.9278 16.5651 53.9548 14.3841 56.3758 12.6611C56.4948 12.5761 56.3828 12.3761 56.2578 12.4611Z" fill="#696969"/>
<path d="M56.3198 12.6781C53.7508 13.9631 51.1968 15.2731 48.7858 16.8411C46.5498 18.2951 44.2108 20.0251 42.6008 22.1811C42.4968 22.3201 42.7198 22.4821 42.8378 22.3641C43.8208 21.3781 44.7578 20.3761 45.8308 19.4831C46.9138 18.5821 48.0568 17.7591 49.2338 16.9861C51.5438 15.4691 53.9838 14.1511 56.4068 12.8271C56.5038 12.7731 56.4178 12.6291 56.3198 12.6781Z" fill="#696969"/>
<path d="M79.4488 10.4151C77.0428 11.8401 75.0188 13.7751 72.9868 15.6741C70.8618 17.6611 68.7058 19.5021 66.1708 20.9501C65.9958 21.0501 66.1498 21.3021 66.3268 21.2171C68.8218 20.0201 70.9058 18.0261 72.8878 16.1381C74.9838 14.1411 77.0668 12.1061 79.5378 10.5691C79.6368 10.5091 79.5488 10.3561 79.4488 10.4151Z" fill="#696969"/>
<path d="M79.3408 10.6181C76.8018 11.6021 74.4058 12.9521 72.2408 14.6031C70.1548 16.1931 68.0488 18.0581 66.5678 20.2421C66.4768 20.3761 66.6818 20.5331 66.7918 20.4151C68.6418 18.4201 70.4128 16.4561 72.5968 14.8071C74.7118 13.2091 76.9968 11.8751 79.4068 10.7751C79.4938 10.7341 79.4308 10.5831 79.3408 10.6181Z" fill="#696969"/>
<path d="M120.122 27.7751C119.888 27.2611 119.675 26.9451 119.279 26.5301C118.897 26.1291 118.492 25.7481 118.091 25.3671C117.285 24.6001 116.459 23.8551 115.609 23.1381C113.934 21.7231 112.179 20.3921 110.349 19.1831C106.667 16.7501 102.706 14.7491 98.5138 13.3601C90.0178 10.5441 81.1608 9.5281 72.2488 10.1961C67.0618 10.5851 61.9148 11.3901 56.7768 12.1751C56.3018 12.2481 56.5038 12.9701 56.9758 12.8971C65.6358 11.5661 74.3808 10.1881 83.1658 10.9041C92.0688 11.6291 100.867 14.1141 108.473 18.8691C110.576 20.1831 112.599 21.6261 114.516 23.2001C115.457 23.9731 116.375 24.7731 117.268 25.6011C117.725 26.0261 118.173 26.4591 118.619 26.8961C119.069 27.3371 119.429 27.6291 119.983 27.9141C120.077 27.9631 120.163 27.8671 120.122 27.7751Z" fill="#696969"/>
<path d="M56.2108 12.4081C49.3748 13.5261 42.5798 14.8651 35.8408 16.4701C35.4788 16.5561 35.6328 17.1151 35.9948 17.0281C42.7198 15.3991 49.4928 13.9611 56.3078 12.7621C56.5408 12.7201 56.4408 12.3701 56.2108 12.4081Z" fill="#696969"/>
<path d="M32.3008 17.8681C30.5928 18.5811 28.7798 18.8671 26.9618 19.1471C26.0638 19.2851 25.1648 19.4181 24.2738 19.5951C23.8468 19.6801 23.4188 19.7701 22.9988 19.8851C22.7598 19.9511 22.5218 20.0261 22.2868 20.1061C22.1308 20.1581 21.7858 20.3651 21.6258 20.3381C21.2778 20.2811 20.9438 20.5781 21.0978 20.9421C21.2488 21.3001 21.6848 21.2751 21.8938 20.9961C21.9708 20.8931 22.3528 20.8291 22.4758 20.7891C22.7118 20.7121 22.9508 20.6441 23.1898 20.5761C23.6088 20.4561 24.0288 20.3441 24.4528 20.2451C25.3658 20.0331 26.2888 19.8701 27.2088 19.6941C28.9938 19.3531 30.7738 18.9431 32.4228 18.1581C32.5838 18.0821 32.4678 17.7981 32.3008 17.8681Z" fill="#696969"/>
</svg>
