<svg width="61" height="98" viewBox="0 0 61 98" fill="none" xmlns="http://www.w3.org/2000/svg">
<path d="M60.1611 47.2211C60.0561 46.3981 60.2321 45.3201 59.8711 44.5651C59.8251 44.4681 59.7111 44.4211 59.6111 44.4161C59.2301 44.3981 58.9361 44.5141 58.6031 44.7011C57.8561 45.1191 57.1421 45.6731 56.4301 46.1511C54.9271 47.1581 53.3281 47.5911 51.6421 48.2031C50.3681 48.6651 49.0641 49.1161 48.1411 50.1611C47.0111 51.4421 46.1111 52.9241 45.0191 54.2311C44.6071 54.7241 44.3771 55.2401 44.0611 55.7931C43.7171 56.3921 43.2731 56.8811 42.9871 57.5181C42.2391 59.1861 41.2851 60.7281 40.5561 62.4081C40.3671 62.2991 40.1461 62.2821 39.9231 62.2741C39.7701 62.2691 39.6181 62.2521 39.4661 62.2661C39.2971 62.2821 39.1341 62.3321 38.9721 62.3811C38.7671 62.4421 38.5581 62.4941 38.3501 62.5501C38.5701 62.3981 38.7881 62.2551 38.9831 62.0651C39.1741 61.8781 39.3301 61.6171 39.4181 61.3631C39.6041 60.8281 39.3071 60.1901 38.7921 59.9781C38.5481 59.8781 38.1941 59.8711 37.9661 60.0151C37.7101 60.1771 37.5521 60.3851 37.3951 60.6371C37.3101 60.7741 37.2311 60.8851 37.1781 61.0401C37.1351 61.1661 37.0741 61.2831 37.0151 61.4021C37.0141 61.2981 37.0111 61.1951 37.0081 61.0921C36.9941 60.5921 36.8121 60.1491 36.4201 59.8301C36.2341 59.6801 36.0071 59.5641 35.7621 59.5921C35.5241 59.6191 35.3291 59.7281 35.1601 59.8901C34.9761 60.0651 34.9901 60.2291 34.9781 60.4681C34.9641 60.7361 35.0261 61.0081 35.1101 61.2601C35.1551 61.3951 35.2071 61.5261 35.2901 61.6431C35.3391 61.7121 35.3901 61.7721 35.4231 61.8511C35.4501 61.9171 35.4731 61.9801 35.5111 62.0421C35.5931 62.1751 35.6961 62.2881 35.8001 62.4031C35.8501 62.4571 35.8941 62.5151 35.9391 62.5731C35.7551 62.4021 35.5621 62.2491 35.3391 62.1301C34.9591 61.9291 34.5621 61.8621 34.1511 62.0011C34.1281 61.3701 33.9321 60.7461 33.6841 60.1721C33.5721 59.9131 33.4411 59.6681 33.2761 59.4411C33.3151 59.0581 33.3411 58.6761 33.3541 58.2931C34.1991 58.5751 35.0521 58.6021 35.8961 58.2041C36.5421 57.8991 37.7461 57.1221 37.3061 56.2701C37.1991 56.0631 37.1431 55.8361 36.9921 55.6561C36.9251 55.5761 36.8461 55.5101 36.7621 55.4491C36.8071 55.3131 36.8431 55.1741 36.8701 55.0331C36.9051 54.8461 36.9341 54.6531 36.9501 54.4601C37.0171 54.6441 37.0931 54.8241 37.1891 54.9941C37.4351 55.4331 37.8321 55.9881 38.3721 56.0651C38.6071 56.0981 38.9171 56.0711 39.1221 55.9421C39.3151 55.8201 39.4431 55.5851 39.4881 55.3651C39.5411 55.1061 39.4851 54.7901 39.4071 54.5411C39.3181 54.2571 39.1601 54.0081 38.9441 53.8041C38.7191 53.5911 38.4341 53.4211 38.1801 53.2461C38.1101 53.1981 38.0341 53.1581 37.9581 53.1191C38.2341 53.1841 38.5141 53.2271 38.7951 53.2671C39.4371 53.3591 40.1461 53.4021 40.7161 53.0341C41.2341 52.6991 41.5641 52.0731 41.1481 51.5251C40.9671 51.2861 40.7411 51.0511 40.4741 50.9091C40.2161 50.7721 39.8371 50.6741 39.5451 50.7071C39.1491 50.7511 38.8211 50.9751 38.4751 51.1541C38.4641 51.1591 38.4541 51.1671 38.4431 51.1721C38.4481 51.1671 38.4541 51.1641 38.4581 51.1601C38.5131 51.1051 38.5501 51.0391 38.5991 50.9781C38.6691 50.8911 38.7601 50.8271 38.8361 50.7461C38.9431 50.6321 39.0791 50.5291 39.1691 50.4021C39.2741 50.2531 39.3471 50.0811 39.4491 49.9291C39.6571 49.6221 39.8421 49.2431 39.9021 48.8731C39.9461 48.6011 39.8651 48.2431 39.7101 48.0141C39.5141 47.7251 39.1701 47.7071 38.8621 47.8131C38.5681 47.9141 38.2511 48.0741 38.0401 48.3061C37.7951 48.5761 37.4991 48.8271 37.3461 49.1631C37.2831 49.3001 37.1881 49.4161 37.1181 49.5461C37.1141 49.4111 37.1101 49.2761 37.1321 49.1341C37.1611 48.9501 37.1401 48.7691 37.1371 48.5851C37.1341 48.3791 37.1391 48.1741 37.0971 47.9711C37.0311 47.6551 36.9321 47.3211 36.7731 47.0381C36.4801 46.5181 35.7761 46.1331 35.3021 46.6711C35.0441 46.9641 35.0341 47.3341 35.0361 47.7041C35.0371 47.9061 35.0221 48.1081 35.0491 48.3091C35.0781 48.5321 35.1541 48.7451 35.2261 48.9571C35.3171 49.2251 35.3971 49.5001 35.4821 49.7721C35.2701 49.4881 35.0701 49.2071 34.8081 48.9581C34.6201 48.7801 34.3781 48.6441 34.1311 48.5351C34.1021 48.3931 34.0681 48.2551 34.0291 48.1281C33.8971 47.7071 33.6611 47.3421 33.3661 47.0201C33.3591 46.6701 33.3501 46.3201 33.3371 45.9701C34.3471 46.0891 35.4161 46.0871 36.2961 45.5191C36.3011 45.5161 36.3051 45.5111 36.3111 45.5081C36.3201 45.5301 36.3201 45.5581 36.3311 45.5781C36.4181 45.7271 36.5911 45.8311 36.7561 45.8711C36.9501 45.9181 37.1901 45.8851 37.3801 45.8341C37.5961 45.7751 37.7891 45.6631 37.9491 45.5061C38.1161 45.3431 38.2531 45.1331 38.3931 44.9451C38.4311 44.8931 38.4631 44.8371 38.4951 44.7811C38.4381 44.9871 38.3971 45.1981 38.3591 45.4081C38.2711 45.8901 38.2181 46.4231 38.4801 46.8641C38.7181 47.2651 39.1811 47.5311 39.6071 47.2341C39.7921 47.1041 39.9771 46.9411 40.0911 46.7441C40.2021 46.5531 40.2871 46.2701 40.2711 46.0491C40.2491 45.7481 40.0901 45.4951 39.9651 45.2291C39.9611 45.2211 39.9561 45.2131 39.9521 45.2051C39.9551 45.2091 39.9571 45.2131 39.9611 45.2171C40.0011 45.2601 40.0501 45.2901 40.0941 45.3291C40.1571 45.3841 40.2031 45.4551 40.2621 45.5151C40.3451 45.5991 40.4191 45.7051 40.5121 45.7761C40.6211 45.8601 40.7491 45.9191 40.8611 46.0011C41.0871 46.1671 41.3671 46.3181 41.6451 46.3731C41.8491 46.4141 42.1221 46.3641 42.2991 46.2531C42.5231 46.1141 42.5461 45.8541 42.4751 45.6191C42.4071 45.3951 42.2951 45.1501 42.1261 44.9851C41.9301 44.7921 41.7481 44.5621 41.4991 44.4371C41.3971 44.3861 41.3121 44.3111 41.2161 44.2541C41.3191 44.2551 41.4201 44.2561 41.5261 44.2771C41.6641 44.3041 41.8011 44.2931 41.9411 44.2961C42.0971 44.3001 42.2511 44.3101 42.4061 44.2841C42.6461 44.2431 42.9011 44.1781 43.1191 44.0661C43.5201 43.8601 43.8311 43.3401 43.4381 42.9661C43.2241 42.7631 42.9461 42.7451 42.6671 42.7351C42.5151 42.7301 42.3621 42.7131 42.2101 42.7271C42.0411 42.7431 41.8781 42.7941 41.7161 42.8421C41.5111 42.9031 41.3011 42.9551 41.0931 43.0111C41.3131 42.8591 41.5321 42.7161 41.7271 42.5261C41.9181 42.3391 42.0741 42.0781 42.1621 41.8241C42.3481 41.2891 42.0511 40.6511 41.5361 40.4391C41.2921 40.3391 40.9381 40.3321 40.7101 40.4761C40.4541 40.6381 40.2961 40.8461 40.1401 41.0981C40.0551 41.2351 39.9751 41.3471 39.9231 41.5011C39.8801 41.6271 39.8201 41.7441 39.7601 41.8621C39.7591 41.7581 39.7561 41.6551 39.7531 41.5521C39.7391 41.0521 39.5571 40.6091 39.1641 40.2901C38.9781 40.1401 38.7511 40.0241 38.5071 40.0521C38.2691 40.0791 38.0751 40.1871 37.9051 40.3501C37.7211 40.5251 37.7351 40.6891 37.7231 40.9281C37.7091 41.1961 37.7711 41.4681 37.8551 41.7201C37.9001 41.8551 37.9521 41.9861 38.0351 42.1021C38.0841 42.1711 38.1351 42.2311 38.1681 42.3101C38.1951 42.3761 38.2181 42.4401 38.2561 42.5011C38.3381 42.6341 38.4411 42.7471 38.5451 42.8621C38.5951 42.9161 38.6391 42.9741 38.6831 43.0321C38.4991 42.8611 38.3061 42.7081 38.0831 42.5891C37.6911 42.3811 37.2801 42.3121 36.8561 42.4701C36.8171 42.4841 36.7731 42.5031 36.7271 42.5241C36.4791 42.2531 36.1981 42.0061 35.8801 41.8371C35.4331 41.5991 34.7771 41.4301 34.2721 41.4871C33.8271 41.5371 33.4321 41.7201 33.0461 41.9261C33.0341 41.8141 33.0231 41.7011 33.0111 41.5891C33.0231 41.5771 33.0361 41.5671 33.0471 41.5551C33.2321 41.3581 33.4681 41.1791 33.6231 40.9601C33.8051 40.7031 33.9311 40.4051 34.1081 40.1421C34.4681 39.6091 34.7891 38.9541 34.8921 38.3131C34.9681 37.8421 34.8291 37.2221 34.5601 36.8261C34.2211 36.3261 33.6241 36.2941 33.0911 36.4771C32.8281 36.5671 32.5551 36.6871 32.3011 36.8351C32.3001 36.8281 32.2981 36.8211 32.2971 36.8141C32.3521 36.7671 32.3961 36.7051 32.4111 36.6141C32.5711 35.6301 33.0531 34.7241 33.4141 33.7821C33.6491 33.9891 33.9231 34.1021 34.2221 33.9641C34.3891 33.8871 34.5701 33.8511 34.7181 33.7381C34.8651 33.6261 34.9711 33.4721 35.0611 33.3121C35.2451 32.9841 35.3451 32.6211 35.4141 32.2541C35.4631 31.9891 35.5041 31.7171 35.5261 31.4431C35.6201 31.7031 35.7291 31.9581 35.8641 32.1981C36.1881 32.7761 36.7011 33.4911 37.3881 33.6741C37.3591 33.7911 37.3501 33.9131 37.3501 34.0381C37.3501 34.1601 37.3421 34.2821 37.3581 34.4031C37.3761 34.5381 37.4211 34.6661 37.4651 34.7941C37.5201 34.9561 37.5681 35.1221 37.6191 35.2861C37.4911 35.1151 37.3701 34.9441 37.2121 34.7951C37.0571 34.6481 36.8431 34.5321 36.6381 34.4691C36.2041 34.3361 35.7041 34.5941 35.5511 35.0121C35.4781 35.2101 35.4841 35.4931 35.6061 35.6711C35.7431 35.8711 35.9151 35.9901 36.1211 36.1081C36.2331 36.1721 36.3251 36.2321 36.4501 36.2691C36.5521 36.3001 36.6481 36.3441 36.7441 36.3881C36.6611 36.3921 36.5791 36.3971 36.4971 36.4031C36.0981 36.4291 35.7491 36.5881 35.5071 36.9121C35.3931 37.0651 35.3071 37.2501 35.3371 37.4451C35.3661 37.6341 35.4591 37.7861 35.5931 37.9171C35.7391 38.0581 35.8691 38.0421 36.0601 38.0451C36.2751 38.0481 36.4901 37.9901 36.6891 37.9151C36.7961 37.8751 36.8981 37.8291 36.9891 37.7591C37.0421 37.7181 37.0891 37.6751 37.1511 37.6471C37.2031 37.6231 37.2531 37.6031 37.3011 37.5711C37.4051 37.5021 37.4921 37.4161 37.5801 37.3291C37.6221 37.2881 37.6671 37.2511 37.7121 37.2131C37.5811 37.3651 37.4641 37.5241 37.3761 37.7061C37.2221 38.0261 37.1791 38.3561 37.3181 38.6901C37.4111 38.9121 37.6551 39.3301 37.9481 39.1941C38.0191 39.1611 38.0961 39.1461 38.1601 39.0981C38.2231 39.0501 38.2681 38.9841 38.3061 38.9161C38.3841 38.7761 38.4271 38.6211 38.4571 38.4641C38.4781 38.3511 38.4951 38.2351 38.5051 38.1181C38.5451 38.2291 38.5921 38.3381 38.6491 38.4411C38.7981 38.7061 39.0381 39.0411 39.3641 39.0881C39.5061 39.1081 39.6931 39.0921 39.8171 39.0141C39.9341 38.9401 40.0111 38.7981 40.0381 38.6661C40.0701 38.5101 40.0361 38.3191 39.9891 38.1691C39.9351 37.9981 39.8401 37.8471 39.7101 37.7241C39.5741 37.5951 39.4021 37.4921 39.2481 37.3871C39.2061 37.3581 39.1601 37.3341 39.1141 37.3101C39.2801 37.3491 39.4501 37.3751 39.6191 37.4001C40.0071 37.4561 40.4351 37.4821 40.7791 37.2591C41.0921 37.0571 41.2911 36.6781 41.0401 36.3471C40.9311 36.2031 40.7941 36.0611 40.6331 35.9751C40.4771 35.8921 40.2481 35.8331 40.0721 35.8531C39.8331 35.8801 39.6341 36.0151 39.4261 36.1231C39.4201 36.1261 39.4141 36.1311 39.4071 36.1341C39.4101 36.1311 39.4131 36.1291 39.4161 36.1261C39.4491 36.0931 39.4721 36.0531 39.5011 36.0161C39.5431 35.9641 39.5981 35.9251 39.6441 35.8761C39.7081 35.8071 39.7911 35.7451 39.8451 35.6681C39.9091 35.5781 39.9521 35.4741 40.0141 35.3831C40.1391 35.1971 40.2521 34.9691 40.2881 34.7451C40.3141 34.5811 40.2661 34.3651 40.1721 34.2261C40.0541 34.0521 39.8461 34.0411 39.6601 34.1051C39.4831 34.1661 39.2911 34.2631 39.1641 34.4031C39.0161 34.5661 38.8381 34.7181 38.7451 34.9211C38.7071 35.0041 38.6501 35.0741 38.6071 35.1521C38.6051 35.0701 38.6021 34.9891 38.6161 34.9031C38.6331 34.7921 38.6211 34.6831 38.6191 34.5711C38.6171 34.4471 38.6211 34.3231 38.5951 34.2001C38.5551 34.0091 38.4951 33.8081 38.3991 33.6371C38.3941 33.6281 38.3851 33.6221 38.3791 33.6131C38.4511 33.5871 38.5351 33.5781 38.5971 33.5391C38.8701 33.3661 39.0511 33.0341 39.1141 32.7241C39.1881 32.3581 39.1101 31.9111 39.0001 31.5591C38.8741 31.1581 38.6501 30.8061 38.3461 30.5171C38.0281 30.2161 37.6251 29.9751 37.2651 29.7281C37.1651 29.6601 37.0591 29.6041 36.9521 29.5491C37.3421 29.6411 37.7391 29.7021 38.1351 29.7591C39.0431 29.8891 40.0451 29.9501 40.8511 29.4291C41.5841 28.9561 42.0501 28.0701 41.4621 27.2951C41.2061 26.9581 40.8871 26.6241 40.5101 26.4241C40.1451 26.2301 39.6091 26.0921 39.1971 26.1381C38.6361 26.2011 38.1731 26.5171 37.6841 26.7701C37.6691 26.7781 37.6551 26.7881 37.6401 26.7961C37.6471 26.7901 37.6551 26.7851 37.6621 26.7781C37.7401 26.7001 37.7931 26.6061 37.8621 26.5211C37.9611 26.3991 38.0901 26.3071 38.1971 26.1931C38.3481 26.0321 38.5411 25.8861 38.6681 25.7071C38.8171 25.4971 38.9191 25.2541 39.0641 25.0391C39.3571 24.6041 39.6201 24.0691 39.7041 23.5461C39.7661 23.1611 39.6521 22.6551 39.4331 22.3321C39.1561 21.9231 38.6691 21.8981 38.2341 22.0471C37.8191 22.1901 37.3691 22.4171 37.0721 22.7441C36.7261 23.1261 36.3071 23.4811 36.0911 23.9561C36.0021 24.1501 35.8681 24.3141 35.7681 24.4971C35.7621 24.3051 35.7571 24.1161 35.7881 23.9151C35.8281 23.6551 35.7991 23.3991 35.7951 23.1381C35.7901 22.8471 35.7981 22.5561 35.7381 22.2701C35.6441 21.8231 35.5051 21.3511 35.2801 20.9511C35.0421 20.5301 34.6131 20.1801 34.1651 20.0941C34.1161 19.7091 34.0681 19.3241 34.0211 18.9401C33.6781 16.1011 32.4311 13.2031 30.7241 10.9191C29.0031 8.61614 27.1221 6.27714 24.6601 4.69514C23.5321 3.97014 22.2191 3.52112 20.9901 2.99412C19.5061 2.35812 18.3021 1.37011 17.0521 0.381113C15.0851 -1.17489 15.7221 2.48113 15.6751 3.33213C15.5971 4.75513 15.9311 6.12214 16.0111 7.53514C16.0941 9.01414 16.1341 10.5311 16.3151 12.0021C16.7271 15.3491 17.7081 18.3441 19.1421 21.3721C19.4771 22.0791 19.8091 22.8301 20.2011 23.5051C20.6031 24.1971 21.2341 24.6951 21.8081 25.2381C23.0081 26.3721 24.3441 27.2691 25.6281 28.2991C26.0441 28.6331 26.4251 28.9741 26.7881 29.3231C26.7831 29.3251 26.7781 29.3251 26.7731 29.3261C26.5961 29.3871 26.4041 29.4841 26.2771 29.6241C26.1291 29.7871 25.9511 29.9391 25.8581 30.1421C25.8201 30.2251 25.7631 30.2951 25.7201 30.3731C25.7171 30.2911 25.7151 30.2101 25.7291 30.1241C25.7461 30.0131 25.7341 29.9041 25.7321 29.7921C25.7301 29.6681 25.7341 29.5431 25.7081 29.4211C25.6681 29.2301 25.6081 29.0291 25.5121 28.8581C25.3351 28.5441 24.9101 28.3111 24.6241 28.6371C24.4681 28.8141 24.4621 29.0371 24.4631 29.2611C24.4631 29.3831 24.4551 29.5051 24.4711 29.6261C24.4891 29.7611 24.5341 29.8891 24.5781 30.0171C24.6331 30.1791 24.6811 30.3451 24.7321 30.5091C24.6041 30.3381 24.4831 30.1681 24.3251 30.0181C24.1701 29.8711 23.9561 29.7541 23.7511 29.6921C23.3181 29.5591 22.8171 29.8171 22.6641 30.2351C22.5911 30.4331 22.5971 30.7161 22.7191 30.8941C22.8561 31.0941 23.0271 31.2131 23.2341 31.3311C23.3461 31.3951 23.4381 31.4551 23.5631 31.4921C23.6651 31.5231 23.7601 31.5671 23.8571 31.6111C23.7741 31.6151 23.6911 31.6201 23.6101 31.6261C23.2111 31.6521 22.8621 31.8111 22.6201 32.1351C22.5051 32.2881 22.4201 32.4731 22.4501 32.6681C22.4791 32.8571 22.5721 33.0091 22.7061 33.1401C22.8521 33.2811 22.9821 33.2651 23.1731 33.2681C23.3881 33.2711 23.6031 33.2131 23.8021 33.1381C23.9081 33.0981 24.0111 33.0521 24.1021 32.9821C24.1551 32.9411 24.2021 32.8981 24.2641 32.8701C24.3161 32.8461 24.3661 32.8261 24.4141 32.7941C24.5181 32.7241 24.6051 32.6391 24.6931 32.5521C24.7351 32.5111 24.7801 32.4741 24.8251 32.4361C24.6941 32.5881 24.5771 32.7471 24.4901 32.9291C24.3361 33.2491 24.2931 33.5791 24.4321 33.9131C24.5251 34.1351 24.7691 34.5531 25.0621 34.4171C25.1331 34.3841 25.2111 34.3691 25.2741 34.3211C25.3371 34.2731 25.3821 34.2071 25.4201 34.1391C25.4981 33.9991 25.5411 33.8441 25.5711 33.6871C25.5921 33.5741 25.6091 33.4581 25.6191 33.3411C25.6591 33.4521 25.7061 33.5611 25.7631 33.6631C25.9121 33.9281 26.1521 34.2631 26.4781 34.3101C26.6201 34.3301 26.8071 34.3141 26.9311 34.2361C27.0481 34.1621 27.1251 34.0201 27.1521 33.8881C27.1831 33.7321 27.1501 33.5411 27.1031 33.3901C27.0491 33.2191 26.9541 33.0691 26.8231 32.9451C26.6871 32.8161 26.5151 32.7141 26.3611 32.6081C26.3191 32.5791 26.2731 32.5551 26.2271 32.5311C26.3931 32.5701 26.5631 32.5961 26.7321 32.6201C27.1201 32.6761 27.5471 32.7021 27.8921 32.4791C28.2051 32.2771 28.4041 31.8981 28.1531 31.5671C28.0441 31.4231 27.9071 31.2811 27.7461 31.1951C27.5901 31.1121 27.3611 31.0531 27.1851 31.0731C26.9451 31.1001 26.7481 31.2351 26.5391 31.3431C26.5331 31.3461 26.5271 31.3511 26.5201 31.3541C26.5231 31.3511 26.5271 31.3491 26.5301 31.3461C26.5631 31.3131 26.5861 31.2731 26.6151 31.2361C26.6571 31.1841 26.7121 31.1451 26.7581 31.0961C26.8221 31.0271 26.9051 30.9651 26.9591 30.8881C27.0231 30.7981 27.0661 30.6941 27.1291 30.6031C27.2541 30.4171 27.3661 30.1891 27.4021 29.9651C27.4031 29.9591 27.4001 29.9511 27.4011 29.9441C28.0621 30.6501 28.6611 31.4051 29.2381 32.2621C30.1741 33.6541 30.6681 35.3491 31.6731 36.6771C31.7021 36.8661 31.7321 37.0551 31.7611 37.2451C31.7311 37.2741 31.6971 37.2991 31.6691 37.3291C31.2451 37.7961 30.7331 38.2321 30.4681 38.8131C30.3601 39.0511 30.1951 39.2521 30.0731 39.4761C30.0651 39.2411 30.0591 39.0091 30.0981 38.7631C30.1471 38.4451 30.1121 38.1311 30.1061 37.8111C30.1001 37.4551 30.1101 37.0991 30.0361 36.7481C29.9211 36.2011 29.7501 35.6221 29.4751 35.1331C28.9671 34.2321 27.7481 33.5661 26.9271 34.4981C26.4801 35.0061 26.4631 35.6451 26.4661 36.2861C26.4681 36.6361 26.4431 36.9861 26.4881 37.3341C26.5391 37.7201 26.6701 38.0891 26.7951 38.4561C26.9531 38.9201 27.0901 39.3961 27.2371 39.8671C26.8701 39.3761 26.5241 38.8881 26.0701 38.4581C25.6251 38.0361 25.0121 37.7031 24.4231 37.5221C23.1801 37.1411 21.7461 37.8801 21.3051 39.0781C21.0961 39.6461 21.1131 40.4581 21.4631 40.9671C21.8571 41.5401 22.3481 41.8831 22.9391 42.2201C23.2611 42.4041 23.5231 42.5751 23.8821 42.6831C24.1751 42.7711 24.4491 42.8991 24.7251 43.0241C24.4871 43.0361 24.2501 43.0511 24.0161 43.0661C22.8711 43.1411 21.8721 43.5971 21.1771 44.5251C20.8491 44.9631 20.6041 45.4941 20.6891 46.0531C20.7721 46.5951 21.0381 47.0321 21.4241 47.4071C21.5331 47.5121 21.6391 47.5851 21.7451 47.6391C21.6641 47.7351 21.5901 47.8391 21.5191 47.9541C21.4331 48.0911 21.3551 48.2021 21.3021 48.3571C21.2591 48.4831 21.1981 48.6001 21.1391 48.7181C21.1381 48.6141 21.1351 48.5111 21.1321 48.4081C21.1181 47.9081 20.9361 47.4651 20.5441 47.1471C20.3581 46.9971 20.1311 46.8811 19.8861 46.9091C19.6481 46.9361 19.4541 47.0441 19.2841 47.2071C19.1001 47.3821 19.1141 47.5471 19.1021 47.7851C19.0881 48.0531 19.1501 48.3251 19.2341 48.5771C19.2791 48.7121 19.3311 48.8431 19.4141 48.9591C19.4631 49.0281 19.5141 49.0881 19.5471 49.1671C19.5741 49.2331 19.5971 49.2971 19.6351 49.3581C19.7171 49.4911 19.8201 49.6041 19.9251 49.7191C19.9741 49.7731 20.0191 49.8311 20.0631 49.8891C19.8791 49.7181 19.6861 49.5651 19.4631 49.4461C19.0701 49.2381 18.6601 49.1691 18.2351 49.3271C17.9531 49.4321 17.4191 49.7171 17.5751 50.0901C17.6131 50.1811 17.6281 50.2781 17.6851 50.3591C17.7421 50.4401 17.8221 50.5001 17.9051 50.5511C18.0761 50.6561 18.2681 50.7161 18.4621 50.7611C18.6021 50.7931 18.7471 50.8201 18.8921 50.8381C18.7511 50.8831 18.6131 50.9361 18.4821 51.0031C18.1441 51.1761 17.7141 51.4601 17.6401 51.8651C17.6081 52.0411 17.6201 52.2761 17.7111 52.4341C17.7981 52.5841 17.9711 52.6871 18.1361 52.7271C18.3301 52.7741 18.5701 52.7411 18.7601 52.6901C18.9771 52.6311 19.1691 52.5191 19.3291 52.3621C19.4961 52.1981 19.6331 51.9891 19.7721 51.8011C19.8101 51.7491 19.8421 51.6931 19.8741 51.6371C19.8171 51.8431 19.7771 52.0541 19.7381 52.2641C19.6501 52.7461 19.5971 53.2791 19.8581 53.7201C20.0961 54.1211 20.5591 54.3881 20.9841 54.0901C21.1701 53.9611 21.3541 53.7971 21.4691 53.6001C21.5801 53.4091 21.6651 53.1261 21.6481 52.9051C21.6261 52.6041 21.4671 52.3511 21.3421 52.0851C21.3381 52.0771 21.3331 52.0691 21.3291 52.0611C21.3321 52.0651 21.3351 52.0691 21.3381 52.0731C21.3781 52.1161 21.4271 52.1461 21.4711 52.1851C21.5351 52.2401 21.5801 52.3111 21.6391 52.3711C21.7221 52.4551 21.7961 52.5611 21.8891 52.6321C21.9981 52.7161 22.1261 52.7751 22.2371 52.8571C22.4021 52.9781 22.5991 53.0781 22.8001 53.1511C22.8501 53.2011 22.8961 53.2561 22.9481 53.3001C23.4501 53.7171 23.9241 54.2251 24.5371 54.4721C24.7881 54.5731 25.0031 54.7341 25.2401 54.8501C24.9981 54.8691 24.7591 54.8851 24.5031 54.8581C24.1721 54.8221 23.8491 54.8731 23.5201 54.8931C23.1521 54.9161 22.7841 54.9221 22.4251 55.0141C21.8651 55.1581 21.2761 55.3611 20.7831 55.6681C19.8761 56.2341 19.2441 57.5241 20.2451 58.3291C20.7901 58.7671 21.4521 58.7561 22.1131 58.7231C22.4741 58.7051 22.8371 58.7151 23.1941 58.6521C23.5901 58.5821 23.9651 58.4301 24.3381 58.2831C24.8101 58.0981 25.2951 57.9341 25.7761 57.7611C25.2851 58.1621 24.7981 58.5431 24.3751 59.0311C23.9591 59.5111 23.6441 60.1591 23.4841 60.7751C23.3791 61.1841 23.3991 61.6051 23.5011 62.0061C23.3971 61.8931 23.2771 61.7971 23.1341 61.7381C22.8901 61.6381 22.5361 61.6311 22.3081 61.7751C22.0521 61.9371 21.8941 62.1451 21.7371 62.3971C21.6511 62.5341 21.5731 62.6451 21.5201 62.8001C21.4771 62.9261 21.4161 63.0431 21.3571 63.1621C21.3561 63.0581 21.3531 62.9551 21.3501 62.8521C21.3361 62.3521 21.1551 61.9091 20.7621 61.5911C20.5761 61.4411 20.3491 61.3251 20.1041 61.3531C19.8661 61.3801 19.6721 61.4891 19.5021 61.6511C19.3181 61.8261 19.3321 61.9901 19.3201 62.2291C19.3061 62.4971 19.3681 62.7691 19.4521 63.0211C19.4971 63.1561 19.5491 63.2871 19.6321 63.4041C19.6811 63.4731 19.7321 63.5331 19.7651 63.6121C19.7921 63.6781 19.8151 63.7421 19.8531 63.8031C19.9351 63.9361 20.0381 64.0491 20.1431 64.1641C20.1921 64.2181 20.2371 64.2761 20.2811 64.3341C20.0971 64.1631 19.9051 64.0101 19.6811 63.8911C19.2891 63.6831 18.8781 63.6141 18.4531 63.7721C18.1711 63.8771 17.6371 64.1621 17.7931 64.5351C17.8311 64.6261 17.8461 64.7231 17.9031 64.8041C17.9601 64.8851 18.0401 64.9451 18.1231 64.9961C18.2941 65.1011 18.4861 65.1621 18.6811 65.2061C18.8211 65.2381 18.9661 65.2651 19.1111 65.2831C18.9701 65.3281 18.8321 65.3811 18.7011 65.4481C18.3631 65.6211 17.9331 65.9051 17.8591 66.3101C17.8271 66.4861 17.8391 66.7211 17.9311 66.8801C18.0181 67.0291 18.1911 67.1331 18.3551 67.1731C18.5491 67.2201 18.7891 67.1871 18.9791 67.1361C19.1961 67.0771 19.3881 66.9651 19.5481 66.8081C19.7151 66.6451 19.8521 66.4351 19.9911 66.2471C20.0301 66.1951 20.0621 66.1401 20.0931 66.0831C20.0361 66.2891 19.9961 66.5001 19.9571 66.7101C19.8691 67.1921 19.8161 67.7251 20.0771 68.1661C20.3151 68.5671 20.7781 68.8331 21.2041 68.5361C21.3891 68.4061 21.5741 68.2431 21.6881 68.0451C21.7991 67.8541 21.8841 67.5711 21.8671 67.3501C21.8451 67.0491 21.6861 66.7961 21.5611 66.5291C21.5571 66.5211 21.5521 66.5131 21.5481 66.5051C21.5511 66.5091 21.5541 66.5131 21.5571 66.5171C21.5971 66.5601 21.6461 66.5901 21.6901 66.6291C21.7531 66.6841 21.8001 66.7551 21.8581 66.8151C21.9411 66.8991 22.0151 67.0051 22.1081 67.0761C22.2171 67.1601 22.3451 67.2191 22.4561 67.3011C22.6821 67.4671 22.9631 67.6181 23.2401 67.6731C23.4441 67.7141 23.7161 67.6631 23.8941 67.5531C24.1181 67.4131 24.1411 67.1541 24.0701 66.9191C24.0021 66.6941 23.8911 66.4501 23.7221 66.2851C23.5251 66.0921 23.3441 65.8621 23.0951 65.7371C22.9931 65.6861 22.9081 65.6111 22.8131 65.5541C22.9161 65.5551 23.0171 65.5561 23.1231 65.5771C23.2611 65.6041 23.3981 65.5941 23.5381 65.5971C23.6931 65.6001 23.8481 65.6111 24.0021 65.5841C24.2421 65.5431 24.4971 65.4781 24.7151 65.3661C25.1161 65.1601 25.4271 64.6401 25.0341 64.2661C24.8201 64.0631 24.5421 64.0451 24.2631 64.0351C24.1111 64.0301 23.9581 64.0131 23.8061 64.0271C23.6371 64.0431 23.4741 64.0931 23.3121 64.1421C23.1071 64.2031 22.8971 64.2551 22.6901 64.3111C22.9101 64.1591 23.1281 64.0171 23.3231 63.8261C23.5141 63.6391 23.6701 63.3781 23.7581 63.1241C23.8001 63.0041 23.8101 62.8791 23.8061 62.7551C24.1311 63.2971 24.6301 63.7321 25.2341 63.9241C25.8301 64.1131 26.6681 64.0591 27.1781 63.6731C27.7521 63.2401 28.0831 62.7171 28.4041 62.0901C28.5791 61.7491 28.7431 61.4711 28.8381 61.0951C28.9151 60.7891 29.0351 60.5001 29.1511 60.2091C29.1741 60.4541 29.2011 60.6981 29.2281 60.9391C29.3581 62.1181 29.8751 63.1291 30.8661 63.8041C31.0171 63.9071 31.1801 63.9931 31.3471 64.0691C31.2751 64.2821 31.2021 64.4951 31.1321 64.7071C30.9341 65.3041 30.7161 65.8941 30.4941 66.4821C30.1801 66.2841 29.8011 66.2421 29.4681 66.5191C29.2531 66.6971 29.0431 66.9181 28.9221 67.1721C28.8051 67.4181 28.7301 67.7751 28.7721 68.0461C28.8301 68.4141 29.0521 68.7101 29.2331 69.0241C29.2391 69.0341 29.2451 69.0431 29.2511 69.0531C29.2471 69.0491 29.2431 69.0431 29.2391 69.0391C29.1851 68.9901 29.1221 68.9581 29.0641 68.9151C28.9801 68.8541 28.9161 68.7711 28.8381 68.7041C28.7281 68.6091 28.6261 68.4871 28.5041 68.4081C28.3611 68.3161 28.1981 68.2561 28.0521 68.1671C27.7571 67.9861 27.3961 67.8291 27.0491 67.7891C26.7941 67.7601 26.4641 67.8491 26.2571 68.0041C25.9961 68.1991 25.9931 68.5201 26.1051 68.8031C26.2111 69.0721 26.3741 69.3621 26.5991 69.5481C26.8611 69.7651 27.1071 70.0301 27.4271 70.1591C27.5581 70.2121 27.6701 70.2951 27.7931 70.3561C27.6671 70.3661 27.5421 70.3741 27.4091 70.3601C27.2371 70.3411 27.0691 70.3681 26.8971 70.3781C26.7051 70.3901 26.5131 70.3931 26.3261 70.4411C26.0341 70.5161 25.7271 70.6221 25.4711 70.7821C24.9991 71.0771 24.6701 71.7491 25.1911 72.1681C25.4751 72.3961 25.8191 72.3901 26.1641 72.3731C26.3521 72.3641 26.5411 72.3691 26.7271 72.3361C26.9331 72.3001 27.1291 72.2201 27.3231 72.1441C27.5691 72.0481 27.8221 71.9621 28.0721 71.8721C27.8161 72.0811 27.5621 72.2791 27.3421 72.5341C27.1261 72.7841 26.9611 73.1211 26.8781 73.4431C26.7771 73.8331 26.8821 74.2451 27.1101 74.5671C26.8011 75.0751 26.4851 75.5811 26.2181 76.1411C25.6111 77.4131 25.0191 78.6201 24.2891 79.8291C22.6981 82.4621 21.4831 85.4441 20.6401 88.4001C20.2021 89.9371 20.0541 91.4671 19.8251 93.0421C19.7061 93.8601 19.8321 94.6171 19.7801 95.4251C19.7721 95.5561 19.7621 95.7321 19.7501 95.9201C19.6731 96.1441 19.6091 96.3691 19.5591 96.5941C19.5171 96.1931 19.5581 95.7091 19.5381 95.4171C19.5081 94.9861 19.4831 94.5631 19.4711 94.1301C19.4451 93.1941 19.3591 92.3111 19.1171 91.4021C18.6611 89.6901 17.8901 88.1381 16.8581 86.7061C15.7581 85.1801 14.8031 83.6511 13.5211 82.2691C12.7841 81.4751 12.1211 80.5791 11.5061 79.6531C11.4931 79.6081 11.4801 79.5641 11.4651 79.5201C11.5331 79.5501 11.6051 79.5721 11.6881 79.5761C11.9111 79.5881 12.0211 79.2351 11.8061 79.1391C11.5591 79.0291 11.7461 76.5701 11.7771 76.2251C11.8581 75.3241 12.2391 74.5151 12.4111 73.6351C12.7611 71.8381 13.0301 70.0281 13.5511 68.2611C14.0921 66.4261 14.9631 64.6771 15.4421 62.8261C15.8581 61.2211 15.5571 59.3391 15.3571 57.7181C15.1561 56.0881 14.9391 54.4961 14.5701 52.8931C14.1471 51.0561 13.3931 49.6991 12.4681 48.0751C11.6321 46.6091 10.6851 45.0781 9.64011 43.7441C8.59411 42.4091 7.14612 41.1701 6.61912 39.4811C6.59112 39.3931 6.44212 39.3761 6.42312 39.4811C6.41512 39.5281 6.42211 39.5821 6.42011 39.6311C6.39211 39.5901 6.33712 39.5691 6.29412 39.6141C5.88212 40.0401 6.02511 40.5601 5.92811 41.1131C5.76811 42.0261 5.47111 42.9991 5.17611 43.8731C4.86211 44.8051 4.69111 45.7511 4.13511 46.6021C3.67711 47.3011 3.23312 47.7801 2.90612 48.5781C2.15312 50.4171 1.66711 52.4251 1.28811 54.3731C0.90411 56.3461 0.405109 58.3041 0.165109 60.3071C-0.307891 64.2581 0.180114 68.9751 2.35111 72.3861C4.42511 75.6461 7.37612 77.7561 10.4551 79.9551C10.5121 79.9961 10.5741 79.9711 10.6141 79.9271C11.0801 80.6131 11.5661 81.2821 12.0591 81.9061C12.7471 82.7771 13.5861 83.5071 14.2451 84.4011C14.8211 85.1831 15.3101 86.0251 15.8811 86.8111C17.1261 88.5261 18.1601 90.3641 18.6041 92.4641C18.8171 93.4711 18.7171 94.4971 18.9101 95.5011C19.0211 96.0831 19.0771 96.8131 19.4721 97.2781C19.4771 97.2831 19.4841 97.2811 19.4891 97.2861C19.4901 97.3291 19.4781 97.3721 19.4811 97.4161C19.5081 97.7381 19.9021 97.9581 20.1531 97.6941C20.7051 97.1141 20.8281 95.9661 20.8991 95.1951C20.9291 94.8671 20.9741 94.5321 21.0101 94.2011C21.0191 94.1751 21.0281 94.1501 21.0371 94.1241C21.3891 93.0911 21.7221 92.0301 22.2151 91.0541C22.9801 89.5371 24.1371 88.1271 25.0981 86.7251C26.2241 85.0821 27.4511 83.4271 29.0261 82.1851C29.0651 82.1541 29.1081 82.1301 29.1481 82.1001C29.2071 82.1291 29.2751 82.1481 29.3551 82.1511C31.1181 82.2171 32.8231 82.1021 34.4851 81.4361C35.8071 80.9061 37.1621 80.5661 38.4331 79.9021C40.1551 79.0031 42.0061 78.2921 43.7981 77.5501C45.2131 76.9641 46.9151 76.3181 48.0361 75.2551C49.3051 74.0511 50.4511 72.7811 51.5101 71.3911C52.7201 69.8041 54.0721 68.3761 55.2431 66.7571C56.2991 65.2991 57.3081 63.9231 57.9911 62.2431C58.7641 60.3411 59.4941 58.3601 59.8201 56.3261C60.1661 54.1651 60.2621 52.1191 60.2571 49.9301C60.2611 49.0151 60.2771 48.1311 60.1611 47.2211ZM39.7801 36.0811C40.1291 35.9141 40.5331 36.0451 40.7881 36.3171C40.9061 36.4441 41.0181 36.5811 40.9671 36.7651C40.9181 36.9371 40.7531 37.0691 40.5991 37.1441C40.2891 37.2961 39.9241 37.2431 39.5961 37.1921C39.3871 37.1591 39.1801 37.1231 38.9751 37.0661C38.9111 37.0481 38.8481 37.0251 38.7851 37.0031C38.8041 36.9731 38.8191 36.9411 38.8301 36.9071C38.8681 36.8341 38.8861 36.7561 38.8831 36.6721C38.8781 36.6351 38.8731 36.5971 38.8681 36.5601C39.1691 36.3941 39.4701 36.2291 39.7801 36.0811ZM38.4861 36.0001C38.5031 35.8711 38.5471 35.7531 38.5691 35.6271C38.5931 35.5811 38.6171 35.5361 38.6381 35.4891C38.6761 35.4031 38.6821 35.3051 38.7361 35.2261C38.7801 35.1611 38.8361 35.1091 38.8751 35.0381C38.9231 34.9511 38.9721 34.8761 39.0401 34.8041C39.1621 34.6741 39.2861 34.5131 39.4401 34.4221C39.5721 34.3441 39.8001 34.2121 39.9541 34.2831C40.1081 34.3541 40.1511 34.6411 40.1111 34.7831C40.0561 34.9751 39.9681 35.1491 39.8561 35.3131C39.8071 35.3841 39.7701 35.4591 39.7261 35.5321C39.6771 35.6141 39.5871 35.6801 39.5201 35.7501C39.4571 35.8151 39.3921 35.8691 39.3361 35.9411C39.2691 36.0281 39.1791 36.0781 39.0921 36.1411C39.0071 36.2031 38.9231 36.2721 38.8541 36.3511C38.8401 36.3661 38.8281 36.3861 38.8161 36.4041C38.7871 36.3451 38.7521 36.2891 38.7041 36.2411C38.6631 36.2091 38.6221 36.1771 38.5811 36.1461C38.5451 36.1251 38.5071 36.1121 38.4681 36.0991C38.4771 36.0671 38.4821 36.0341 38.4861 36.0001ZM38.5081 37.2301C38.5651 37.2111 38.6141 37.1801 38.6591 37.1421C38.6631 37.1441 38.6671 37.1471 38.6711 37.1491C38.6841 37.1551 38.6971 37.1611 38.7101 37.1671C38.8131 37.2471 38.9161 37.3281 39.0271 37.3971C39.1561 37.4781 39.2661 37.5791 39.3831 37.6751C39.4941 37.7661 39.6131 37.8601 39.6981 37.9761C39.7921 38.1031 39.8431 38.2571 39.8621 38.4141C39.8781 38.5441 39.8821 38.6831 39.8241 38.8041C39.7571 38.9441 39.5881 39.0121 39.4381 39.0161C39.2761 39.0211 39.1221 38.9041 39.0121 38.7961C38.9071 38.6931 38.8231 38.5681 38.7531 38.4381C38.6641 38.2741 38.5981 38.0981 38.5571 37.9161C38.5361 37.8251 38.5221 37.7331 38.5001 37.6431C38.4831 37.5761 38.4661 37.5121 38.4511 37.4461C38.4461 37.4201 38.4401 37.3931 38.4371 37.3671C38.4331 37.3311 38.4341 37.2941 38.4331 37.2581C38.4581 37.2501 38.4841 37.2431 38.5081 37.2301ZM36.5371 36.1171C36.3561 36.0541 36.1661 35.9521 36.0111 35.8371C35.9281 35.7761 35.8571 35.6991 35.7951 35.6171C35.7221 35.5221 35.6991 35.4141 35.6941 35.2951C35.6731 34.8521 36.1991 34.5141 36.6041 34.6711C36.7961 34.7451 36.9671 34.8431 37.1141 34.9871C37.2691 35.1401 37.3761 35.3211 37.5081 35.4921C37.5761 35.5791 37.6091 35.6711 37.6591 35.7681C37.7071 35.8621 37.7861 35.9331 37.8411 36.0231C37.8701 36.0711 37.8981 36.1211 37.9261 36.1691C37.8961 36.1891 37.8671 36.2121 37.8411 36.2401C37.7811 36.2951 37.7391 36.3611 37.7151 36.4361C37.7001 36.4651 37.6901 36.4951 37.6821 36.5261C37.6111 36.5021 37.5391 36.4781 37.4631 36.4701C37.4291 36.4661 37.4011 36.4581 37.3711 36.4511C37.3311 36.4401 37.2921 36.4291 37.2511 36.4211C37.2091 36.4071 37.1671 36.3921 37.1201 36.3741C36.9231 36.2971 36.7371 36.1871 36.5371 36.1171ZM37.3391 37.3181C37.1961 37.4301 37.0351 37.4971 36.8921 37.6081C36.7391 37.7281 36.5321 37.7931 36.3451 37.8381C36.1821 37.8771 35.9891 37.9651 35.8181 37.9261C35.6591 37.8901 35.5391 37.6901 35.4891 37.5531C35.4081 37.3361 35.4851 37.1521 35.6291 36.9821C35.8661 36.7031 36.1901 36.5911 36.5501 36.5961C36.7691 36.5991 37.0011 36.5731 37.2151 36.6211C37.3201 36.6441 37.4281 36.6731 37.5341 36.6921C37.5751 36.6991 37.6221 36.7051 37.6681 36.7051C37.6741 36.7481 37.6801 36.7921 37.6861 36.8351C37.7031 36.8971 37.7321 36.9531 37.7661 37.0051C37.6291 37.1151 37.4771 37.2101 37.3391 37.3181ZM38.3821 38.0981C38.3831 38.2801 38.3721 38.4621 38.3301 38.6401C38.2951 38.7891 38.2331 38.9791 38.0851 39.0531C38.0481 39.0721 38.0001 39.0771 37.9611 39.0911C37.9211 39.1051 37.8811 39.1301 37.8371 39.1321C37.7501 39.1351 37.6671 39.0581 37.6091 39.0021C37.4921 38.8881 37.4311 38.7311 37.3991 38.5731C37.3291 38.2321 37.4361 37.9271 37.6251 37.6451C37.7291 37.4891 37.8561 37.3521 37.9671 37.2021C38.0621 37.2561 38.1641 37.2841 38.2731 37.2841C38.2951 37.2851 38.3151 37.2801 38.3361 37.2791C38.3351 37.3551 38.3361 37.4321 38.3471 37.5081C38.3611 37.6001 38.3821 37.6921 38.3851 37.7861C38.3891 37.8891 38.3811 37.9941 38.3821 38.0981ZM38.2731 33.8791C38.3361 34.0401 38.3961 34.2251 38.3971 34.3991C38.3981 34.4951 38.3911 34.5921 38.3911 34.6881C38.3911 34.7921 38.3651 34.8841 38.3541 34.9861C38.3421 35.0961 38.3621 35.2071 38.3481 35.3181C38.3341 35.4281 38.3141 35.5421 38.2891 35.6501C38.2601 35.7781 38.2391 35.9261 38.2491 36.0651C38.2071 36.0661 38.1661 36.0721 38.1271 36.0831C38.1001 36.0391 38.0741 35.9941 38.0471 35.9501C38.0261 35.9151 38.0001 35.8821 37.9751 35.8501C37.8651 35.6081 37.7881 35.3521 37.7371 35.0861C37.6971 34.8801 37.6401 34.6781 37.5921 34.4741C37.5661 34.3641 37.5661 34.2571 37.5671 34.1451C37.5691 34.0341 37.5581 33.9201 37.5711 33.8101C37.5911 33.6371 37.7161 33.4271 37.9181 33.4841C38.0981 33.5331 38.2091 33.7161 38.2731 33.8791ZM38.5131 26.6731C39.3311 26.2831 40.2761 26.5881 40.8721 27.2271C41.1501 27.5251 41.4121 27.8451 41.2901 28.2761C41.1761 28.6791 40.7891 28.9881 40.4281 29.1641C39.7031 29.5191 38.8471 29.3961 38.0801 29.2771C37.5901 29.2011 37.1051 29.1151 36.6271 28.9811C36.4761 28.9391 36.3301 28.8851 36.1821 28.8331C36.2251 28.7621 36.2621 28.6881 36.2891 28.6081C36.3781 28.4381 36.4191 28.2541 36.4121 28.0581C36.4001 27.9701 36.3881 27.8831 36.3771 27.7961C37.0821 27.4061 37.7851 27.0201 38.5131 26.6731ZM35.4821 26.4841C35.5231 26.1831 35.6241 25.9061 35.6761 25.6111V25.6101C35.7321 25.5031 35.7881 25.3961 35.8371 25.2861C35.9271 25.0851 35.9411 24.8541 36.0661 24.6711C36.1701 24.5181 36.3011 24.3971 36.3921 24.2321C36.5051 24.0291 36.6201 23.8531 36.7791 23.6831C37.0641 23.3781 37.3551 23.0021 37.7161 22.7891C38.0251 22.6071 38.5581 22.2971 38.9201 22.4631C39.2811 22.6291 39.3811 23.3011 39.2871 23.6331C39.1591 24.0821 38.9511 24.4911 38.6891 24.8741C38.5761 25.0401 38.4871 25.2161 38.3841 25.3871C38.2681 25.5791 38.0581 25.7341 37.9021 25.8981C37.7561 26.0511 37.6021 26.1761 37.4721 26.3451C37.3151 26.5481 37.1041 26.6651 36.9011 26.8141C36.7031 26.9601 36.5061 27.1211 36.3431 27.3051C36.3111 27.3411 36.2831 27.3861 36.2541 27.4291C36.1861 27.2911 36.1041 27.1611 35.9921 27.0481C35.8961 26.9731 35.8001 26.8991 35.7031 26.8251C35.6191 26.7761 35.5291 26.7451 35.4391 26.7141C35.4601 26.6391 35.4721 26.5631 35.4821 26.4841ZM35.5341 29.3641C35.6671 29.3211 35.7821 29.2471 35.8881 29.1581C35.8981 29.1631 35.9061 29.1691 35.9161 29.1741C35.9461 29.1881 35.9771 29.2021 36.0071 29.2161C36.2481 29.4041 36.4891 29.5921 36.7491 29.7551C37.0501 29.9441 37.3091 30.1821 37.5831 30.4061C37.8421 30.6181 38.1201 30.8391 38.3201 31.1111C38.5391 31.4091 38.6591 31.7701 38.7031 32.1361C38.7401 32.4401 38.7511 32.7651 38.6151 33.0481C38.5341 33.2161 38.3891 33.3391 38.2201 33.4211C38.0131 33.2421 37.7231 33.1741 37.5101 33.4161C37.4851 33.4441 37.4831 33.4801 37.4651 33.5111C37.1781 33.4341 36.9141 33.2291 36.7111 33.0301C36.4641 32.7881 36.2701 32.4961 36.1051 32.1931C35.8971 31.8091 35.7421 31.3961 35.6451 30.9701C35.5971 30.7581 35.5631 30.5421 35.5101 30.3311C35.4701 30.1741 35.4291 30.0241 35.3951 29.8711C35.3841 29.8091 35.3691 29.7481 35.3631 29.6851C35.3551 29.6001 35.3571 29.5151 35.3561 29.4301C35.4171 29.4101 35.4771 29.3941 35.5341 29.3641ZM23.6481 31.3391C23.4671 31.2761 23.2771 31.1741 23.1221 31.0591C23.0391 30.9981 22.9691 30.9211 22.9061 30.8391C22.8331 30.7441 22.8101 30.6361 22.8051 30.5181C22.7841 30.0751 23.3101 29.7371 23.7151 29.8931C23.9071 29.9671 24.0781 30.0651 24.2251 30.2091C24.3801 30.3611 24.4871 30.5431 24.6191 30.7141C24.6871 30.8011 24.7201 30.8931 24.7701 30.9901C24.8181 31.0841 24.8971 31.1551 24.9521 31.2451C24.9811 31.2931 25.0091 31.3431 25.0371 31.3911C25.0071 31.4111 24.9781 31.4341 24.9531 31.4621C24.8931 31.5171 24.8511 31.5831 24.8261 31.6581C24.8111 31.6871 24.8021 31.7171 24.7931 31.7481C24.7211 31.7241 24.6501 31.7001 24.5741 31.6921C24.5401 31.6881 24.5121 31.6801 24.4821 31.6731C24.4421 31.6621 24.4031 31.6511 24.3621 31.6431C24.3201 31.6291 24.2781 31.6141 24.2311 31.5961C24.0341 31.5191 23.8481 31.4091 23.6481 31.3391ZM24.4501 32.5401C24.3071 32.6521 24.1461 32.7191 24.0031 32.8301C23.8501 32.9501 23.6431 33.0141 23.4561 33.0591C23.2931 33.0981 23.1001 33.1851 22.9291 33.1471C22.7701 33.1111 22.6501 32.9111 22.6001 32.7741C22.5191 32.5571 22.5961 32.3731 22.7411 32.2031C22.9781 31.9241 23.3021 31.8121 23.6621 31.8171C23.8811 31.8201 24.1131 31.7941 24.3281 31.8421C24.4331 31.8651 24.5411 31.8951 24.6471 31.9131C24.6881 31.9201 24.7351 31.9261 24.7811 31.9261C24.7871 31.9691 24.7931 32.0131 24.7981 32.0561C24.8161 32.1181 24.8441 32.1741 24.8791 32.2261C24.7401 32.3381 24.5881 32.4321 24.4501 32.5401ZM25.4931 33.3201C25.4941 33.5021 25.4831 33.6841 25.4411 33.8621C25.4061 34.0111 25.3441 34.2011 25.1961 34.2751C25.1591 34.2941 25.1111 34.2991 25.0721 34.3121C25.0321 34.3261 24.9921 34.3511 24.9481 34.3531C24.8611 34.3561 24.7781 34.2791 24.7191 34.2231C24.6031 34.1091 24.5411 33.9521 24.5091 33.7941C24.4391 33.4531 24.5471 33.1481 24.7351 32.8661C24.8391 32.7101 24.9661 32.5731 25.0781 32.4231C25.1731 32.4771 25.2751 32.5051 25.3841 32.5051C25.4061 32.5061 25.4261 32.5011 25.4471 32.4991C25.4461 32.5751 25.4471 32.6521 25.4591 32.7291C25.4731 32.8211 25.4941 32.9131 25.4971 33.0061C25.5001 33.1111 25.4921 33.2161 25.4931 33.3201ZM25.5021 29.9101C25.5021 30.0141 25.4761 30.1061 25.4651 30.2081C25.4531 30.3181 25.4731 30.4291 25.4581 30.5401C25.4441 30.6501 25.4241 30.7641 25.3991 30.8721C25.3711 31.0001 25.3501 31.1481 25.3601 31.2871C25.3171 31.2881 25.2771 31.2941 25.2371 31.3051C25.2101 31.2611 25.1841 31.2161 25.1581 31.1721C25.1371 31.1371 25.1111 31.1041 25.0861 31.0721C24.9761 30.8301 24.8991 30.5741 24.8481 30.3081C24.8091 30.1021 24.7511 29.9001 24.7031 29.6961C24.6771 29.5861 24.6771 29.4791 24.6781 29.3671C24.6801 29.2561 24.6691 29.1421 24.6821 29.0321C24.7021 28.8591 24.8281 28.6491 25.0291 28.7061C25.2081 28.7571 25.3201 28.9401 25.3841 29.1021C25.4471 29.2631 25.5071 29.4481 25.5081 29.6221C25.5091 29.7171 25.5021 29.8131 25.5021 29.9101ZM32.3501 30.8241C32.2741 31.3231 32.3301 31.8071 32.2921 32.3031C32.2291 33.1131 32.0261 33.9041 31.8591 34.7031C31.5841 33.4831 31.2761 32.2721 30.9281 31.0741C31.0431 31.0381 31.1611 31.0111 31.2721 30.9691C31.5221 30.8741 31.7621 30.7681 31.9751 30.6051C32.1001 30.5091 32.2101 30.4081 32.3541 30.3421C32.3871 30.3271 32.4181 30.3081 32.4501 30.2931C32.4131 30.4691 32.3761 30.6461 32.3501 30.8241ZM28.4611 30.1201C28.2721 29.6111 28.4511 29.1821 28.7901 28.7821C29.3441 28.1281 30.1031 27.8671 30.9461 27.8771C31.4591 27.8831 32.0011 27.8241 32.5051 27.9351C32.7521 27.9901 33.0041 28.0581 33.2521 28.1011C33.3481 28.1181 33.4571 28.1311 33.5651 28.1321C33.5791 28.2341 33.5921 28.3351 33.6061 28.4371C33.6461 28.5821 33.7141 28.7131 33.7941 28.8351C33.4771 29.0941 33.1191 29.3161 32.7961 29.5681C32.4601 29.8301 32.0831 29.9871 31.7491 30.2481C31.3911 30.5281 30.9051 30.6801 30.4681 30.7851C30.0871 30.8771 29.6341 31.0811 29.2331 30.9911C28.8601 30.9101 28.5801 30.4411 28.4611 30.1201ZM33.5451 25.9411C33.6581 26.1601 33.8431 26.3291 33.9701 26.5391C34.0381 26.6521 34.1031 26.7681 34.1701 26.8811C34.0991 26.9281 34.0321 26.9831 33.9721 27.0481C33.8321 27.1771 33.7341 27.3311 33.6761 27.5081C33.6411 27.5751 33.6191 27.6461 33.5991 27.7181C33.4321 27.6621 33.2641 27.6061 33.0871 27.5881C33.0081 27.5801 32.9421 27.5591 32.8711 27.5441C32.7781 27.5191 32.6861 27.4931 32.5901 27.4731C32.4901 27.4401 32.3921 27.4051 32.2841 27.3621C31.8221 27.1791 31.3861 26.9221 30.9181 26.7581C30.4941 26.6101 30.0501 26.3721 29.6871 26.1021C29.4931 25.9581 29.3271 25.7791 29.1811 25.5871C29.0111 25.3641 28.9571 25.1121 28.9441 24.8341C28.8941 23.7981 30.1261 23.0061 31.0751 23.3721C31.5261 23.5461 31.9251 23.7741 32.2691 24.1121C32.6321 24.4691 32.8821 24.8941 33.1921 25.2941C33.3501 25.4991 33.4281 25.7151 33.5451 25.9411ZM29.9431 26.7381C30.2061 26.8881 30.4201 27.0281 30.7131 27.1161C30.9521 27.1881 31.1761 27.2921 31.4011 27.3951C31.2071 27.4041 31.0131 27.4171 30.8221 27.4301C30.4441 27.4551 30.0931 27.5461 29.7631 27.6771C29.5311 27.1411 29.2891 26.6101 29.0431 26.0811C29.3031 26.3431 29.6011 26.5431 29.9431 26.7381ZM35.2381 31.3961C35.2411 31.8231 35.2141 32.2481 35.1161 32.6651C35.0341 33.0131 34.8881 33.4581 34.5411 33.6321C34.4541 33.6751 34.3441 33.6881 34.2511 33.7201C34.1571 33.7531 34.0651 33.8121 33.9611 33.8151C33.7571 33.8211 33.5621 33.6431 33.4261 33.5101C33.1531 33.2431 33.0091 32.8751 32.9341 32.5061C32.7711 31.7091 33.0221 30.9931 33.4641 30.3321C33.7081 29.9671 34.0061 29.6461 34.2661 29.2941C34.4881 29.4211 34.7261 29.4861 34.9831 29.4871C35.0341 29.4891 35.0821 29.4791 35.1311 29.4741C35.1291 29.6531 35.1311 29.8321 35.1581 30.0121C35.1911 30.2281 35.2401 30.4421 35.2471 30.6621C35.2561 30.9061 35.2361 31.1521 35.2381 31.3961ZM34.9831 21.5161C35.1301 21.8931 35.2711 22.3271 35.2741 22.7331C35.2761 22.9591 35.2591 23.1851 35.2591 23.4111C35.2591 23.6541 35.1981 23.8691 35.1721 24.1081C35.1431 24.3661 35.1901 24.6271 35.1571 24.8841C35.1241 25.1421 35.0771 25.4081 35.0201 25.6621C34.9531 25.9621 34.9041 26.3081 34.9271 26.6351C34.8281 26.6361 34.7321 26.6501 34.6411 26.6761C34.5771 26.5731 34.5171 26.4681 34.4551 26.3651C34.4051 26.2821 34.3451 26.2071 34.2861 26.1301C34.0281 25.5621 33.8491 24.9641 33.7291 24.3411C33.6361 23.8591 33.5021 23.3851 33.3881 22.9071C33.3271 22.6501 33.3261 22.3981 33.3301 22.1351C33.3341 21.8761 33.3091 21.6091 33.3391 21.3511C33.3861 20.9471 33.6791 20.4541 34.1521 20.5881C34.5721 20.7071 34.8341 21.1361 34.9831 21.5161ZM26.4941 32.8981C26.6051 32.9881 26.7241 33.0831 26.8091 33.1991C26.9031 33.3261 26.9541 33.4811 26.9731 33.6371C26.9891 33.7671 26.9931 33.9061 26.9351 34.0271C26.8681 34.1671 26.6991 34.2351 26.5491 34.2391C26.3871 34.2441 26.2331 34.1271 26.1221 34.0191C26.0171 33.9161 25.9341 33.7911 25.8641 33.6611C25.7751 33.4971 25.7091 33.3211 25.6681 33.1391C25.6471 33.0481 25.6331 32.9561 25.6101 32.8661C25.5931 32.7991 25.5761 32.7351 25.5611 32.6691C25.5561 32.6421 25.5501 32.6161 25.5471 32.5901C25.5441 32.5541 25.5451 32.5171 25.5441 32.4811C25.5691 32.4731 25.5951 32.4661 25.6191 32.4531C25.6761 32.4351 25.7251 32.4031 25.7701 32.3651C25.7741 32.3671 25.7781 32.3701 25.7821 32.3721C25.7951 32.3781 25.8081 32.3841 25.8211 32.3901C25.9241 32.4711 26.0271 32.5511 26.1381 32.6201C26.2671 32.7001 26.3771 32.8021 26.4941 32.8981ZM26.8911 31.3031C27.2401 31.1361 27.6441 31.2671 27.8981 31.5391C28.0171 31.6661 28.1291 31.8031 28.0771 31.9871C28.0281 32.1591 27.8631 32.2911 27.7091 32.3661C27.3991 32.5181 27.0341 32.4651 26.7071 32.4141C26.4971 32.3821 26.2911 32.3451 26.0861 32.2881C26.0221 32.2701 25.9591 32.2471 25.8961 32.2251C25.9141 32.1951 25.9301 32.1631 25.9411 32.1291C25.9791 32.0561 25.9971 31.9781 25.9931 31.8941C25.9881 31.8571 25.9831 31.8191 25.9781 31.7821C26.2801 31.6161 26.5811 31.4521 26.8911 31.3031ZM27.2231 30.0051C27.1681 30.1971 27.0801 30.3711 26.9681 30.5351C26.9191 30.6061 26.8821 30.6811 26.8381 30.7541C26.7891 30.8361 26.6991 30.9021 26.6321 30.9721C26.5701 31.0371 26.5041 31.0911 26.4481 31.1631C26.3811 31.2491 26.2911 31.3001 26.2041 31.3631C26.1191 31.4251 26.0351 31.4941 25.9661 31.5731C25.9521 31.5891 25.9401 31.6081 25.9281 31.6261C25.8991 31.5671 25.8641 31.5111 25.8161 31.4631C25.7751 31.4311 25.7341 31.3991 25.6931 31.3681C25.6571 31.3471 25.6191 31.3341 25.5801 31.3211C25.5881 31.2891 25.5931 31.2561 25.5981 31.2231C25.6151 31.0941 25.6591 30.9761 25.6811 30.8501C25.7051 30.8041 25.7291 30.7591 25.7501 30.7121C25.7881 30.6261 25.7941 30.5281 25.8481 30.4491C25.8921 30.3841 25.9481 30.3321 25.9871 30.2621C26.0351 30.1751 26.0851 30.1001 26.1521 30.0281C26.2741 29.8981 26.3981 29.7371 26.5521 29.6461C26.6841 29.5681 26.9121 29.4361 27.0661 29.5071C27.2201 29.5771 27.2631 29.8641 27.2231 30.0051ZM21.9721 24.5341C20.9241 23.5281 20.3191 22.3431 19.7321 21.0261C19.0661 19.5341 18.4151 18.0981 18.0321 16.5041C17.2981 13.4521 17.1501 10.4531 17.0111 7.34013C16.9571 6.12113 16.6701 4.91614 16.6771 3.69514C16.6801 3.11414 16.7431 2.50014 16.6341 1.92314C16.5681 1.57814 16.0741 0.663125 16.6171 0.887125C16.8851 0.997125 17.1231 1.35811 17.3531 1.54511C17.9601 2.03811 18.6581 2.49712 19.3241 2.91212C20.4691 3.62612 21.8041 4.09712 23.0361 4.63612C25.6471 5.77812 27.8711 8.24713 29.4851 10.5251C31.2501 13.0161 32.6861 15.5871 32.9321 18.7151C32.9831 19.3581 33.0221 20.0051 33.0571 20.6521C32.8431 21.0251 32.8211 21.4561 32.8231 21.8921C32.8241 22.1781 32.8041 22.4641 32.8411 22.7481C32.8821 23.0631 32.9891 23.3641 33.0921 23.6641C33.1111 23.7181 33.1261 23.7741 33.1431 23.8291C33.1421 24.0161 33.1321 24.2031 33.1291 24.3891C32.9361 24.1371 32.7371 23.8911 32.5001 23.6661C32.1361 23.3211 31.6361 23.0491 31.1551 22.9021C30.1401 22.5911 28.9691 23.1941 28.6091 24.1731C28.5311 24.3851 28.4981 24.6381 28.5051 24.8911C27.7591 23.1821 27.0001 21.4841 26.1381 19.8291C24.4031 16.4961 22.6651 13.1631 20.6951 9.96012C20.6211 9.84012 20.4341 9.94914 20.5061 10.0701C23.7791 15.6261 26.3711 21.4761 29.0141 27.3411C29.1011 27.5351 29.1751 27.7411 29.2591 27.9381C28.9801 28.1191 28.7201 28.3341 28.5051 28.6211C28.2591 28.9501 28.0801 29.3441 28.1051 29.7601C28.0871 29.7411 28.0711 29.7181 28.0521 29.7001C26.1691 27.8041 23.8961 26.3811 21.9721 24.5341ZM29.2561 31.2491C29.4191 31.2741 29.5931 31.2701 29.7991 31.2731C30.0211 31.2761 30.2431 31.2431 30.4621 31.1991C30.9351 32.7241 31.3071 34.2811 31.5371 35.8211C31.0041 34.8211 30.6481 33.6881 30.1111 32.7021C29.8531 32.2291 29.5671 31.7311 29.2561 31.2491ZM20.1711 63.8661C20.0381 63.6811 19.9621 63.4771 19.8291 63.2941C19.6871 63.0971 19.6161 62.8351 19.5691 62.5991C19.5281 62.3941 19.4281 62.1481 19.4841 61.9361C19.5361 61.7391 19.7921 61.5991 19.9651 61.5421C20.2401 61.4511 20.4661 61.5561 20.6721 61.7451C21.0101 62.0541 21.1341 62.4641 21.1111 62.9141C21.0971 63.1871 21.1181 63.4781 21.0481 63.7451C21.0141 63.8761 20.9721 64.0081 20.9441 64.1401C20.9331 64.1911 20.9241 64.2491 20.9211 64.3061C20.8661 64.3111 20.8121 64.3161 20.7571 64.3221C20.6791 64.3411 20.6081 64.3741 20.5411 64.4141C20.4101 64.2391 20.2991 64.0441 20.1711 63.8661ZM18.4721 65.0411C18.2881 64.9901 18.0531 64.9031 17.9681 64.7151C17.9471 64.6681 17.9421 64.6081 17.9271 64.5591C17.9111 64.5081 17.8821 64.4581 17.8821 64.4021C17.8831 64.2931 17.9821 64.1931 18.0561 64.1231C18.2041 63.9831 18.4031 63.9141 18.6021 63.8811C19.0311 63.8101 19.4071 63.9591 19.7511 64.2081C19.9411 64.3461 20.1061 64.5111 20.2891 64.6571C20.2161 64.7731 20.1771 64.8991 20.1711 65.0351C20.1691 65.0621 20.1741 65.0881 20.1751 65.1141C20.0801 65.1091 19.9841 65.1061 19.8881 65.1181C19.7721 65.1311 19.6571 65.1531 19.5391 65.1521C19.4091 65.1511 19.2781 65.1361 19.1471 65.1321C18.9181 65.1251 18.6921 65.1021 18.4721 65.0411ZM19.9911 65.9721C19.8841 66.1291 19.7521 66.2621 19.6261 66.4041C19.5081 66.5381 19.3841 66.6821 19.2351 66.7831C19.0711 66.8941 18.8761 66.9501 18.6801 66.9671C18.5171 66.9811 18.3431 66.9791 18.1951 66.9011C18.0241 66.8111 17.9471 66.5961 17.9481 66.4081C17.9501 66.2051 18.1031 66.0191 18.2441 65.8861C18.3781 65.7591 18.5381 65.6611 18.7031 65.5801C18.9121 65.4771 19.1361 65.4021 19.3651 65.3601C19.4791 65.3391 19.5951 65.3251 19.7081 65.3011C19.7931 65.2831 19.8741 65.2641 19.9561 65.2491C19.9891 65.2451 20.0221 65.2371 20.0561 65.2361C20.1011 65.2341 20.1471 65.2361 20.1921 65.2371C20.2011 65.2691 20.2081 65.3021 20.2231 65.3321C20.2431 65.4041 20.2801 65.4671 20.3261 65.5251C20.3231 65.5301 20.3201 65.5351 20.3171 65.5401C20.3091 65.5561 20.3011 65.5721 20.2931 65.5881C20.1881 65.7121 20.0831 65.8361 19.9911 65.9721ZM21.6001 66.9771C21.7921 67.4211 21.6091 67.9191 21.2561 68.2241C21.0921 68.3661 20.9161 68.5001 20.6871 68.4261C20.4741 68.3571 20.3171 68.1441 20.2311 67.9481C20.0561 67.5531 20.1391 67.0991 20.2191 66.6931C20.2701 66.4331 20.3261 66.1761 20.4071 65.9231C20.4331 65.8431 20.4651 65.7661 20.4951 65.6891C20.5321 65.7131 20.5701 65.7351 20.6131 65.7501C20.7021 65.8011 20.7991 65.8271 20.9041 65.8271C20.9511 65.8231 20.9981 65.8181 21.0451 65.8141C21.2381 66.1981 21.4291 66.5811 21.6001 66.9771ZM22.9451 65.8951C23.0511 65.9591 23.1421 66.0251 23.2301 66.1131C23.3871 66.2711 23.5821 66.4341 23.6881 66.6311C23.7791 66.7991 23.9331 67.0911 23.8371 67.2801C23.7411 67.4691 23.3811 67.5091 23.2051 67.4521C22.9681 67.3751 22.7541 67.2551 22.5551 67.1071C22.4691 67.0431 22.3771 66.9921 22.2871 66.9341C22.1871 66.8681 22.1091 66.7531 22.0241 66.6661C21.9451 66.5851 21.8821 66.5001 21.7941 66.4271C21.6891 66.3391 21.6311 66.2241 21.5551 66.1131C21.4811 66.0041 21.3991 65.8961 21.3051 65.8051C21.2861 65.7871 21.2631 65.7711 21.2411 65.7551C21.3161 65.7211 21.3871 65.6801 21.4491 65.6231C21.4911 65.5731 21.5331 65.5231 21.5741 65.4731C21.6021 65.4291 21.6201 65.3821 21.6381 65.3341C21.6771 65.3461 21.7181 65.3541 21.7601 65.3611C21.9201 65.3891 22.0651 65.4491 22.2221 65.4831C22.2781 65.5151 22.3341 65.5471 22.3911 65.5761C22.4961 65.6281 22.6191 65.6401 22.7151 65.7111C22.7981 65.7711 22.8591 65.8431 22.9451 65.8951ZM22.9421 64.4711C23.2011 64.4311 23.4571 64.3691 23.7141 64.3191C23.8531 64.2921 23.9871 64.2971 24.1271 64.3041C24.2651 64.3111 24.4081 64.3041 24.5451 64.3251C24.7601 64.3581 25.0171 64.5251 24.9351 64.7751C24.8631 64.9961 24.6291 65.1271 24.4231 65.1991C24.2191 65.2701 23.9841 65.3361 23.7681 65.3301C23.6471 65.3261 23.5271 65.3131 23.4071 65.3081C23.2771 65.3031 23.1641 65.2661 23.0371 65.2471C22.9001 65.2261 22.7601 65.2461 22.6231 65.2231C22.4861 65.2001 22.3451 65.1701 22.2111 65.1341C22.0521 65.0921 21.8691 65.0591 21.6941 65.0641C21.6961 65.0111 21.6901 64.9601 21.6781 64.9101C21.7341 64.8781 21.7911 64.8481 21.8481 64.8171C21.8931 64.7921 21.9341 64.7621 21.9761 64.7321C22.2841 64.6061 22.6071 64.5221 22.9421 64.4711ZM23.5131 63.0751C23.4111 63.3121 23.2811 63.5201 23.0941 63.6971C22.8961 63.8831 22.6641 64.0081 22.4441 64.1651C22.3321 64.2451 22.2151 64.2831 22.0921 64.3401C21.9731 64.3951 21.8791 64.4911 21.7641 64.5551C21.7031 64.5891 21.6391 64.6211 21.5771 64.6551C21.5531 64.6161 21.5261 64.5791 21.4921 64.5461C21.4261 64.4691 21.3461 64.4131 21.2531 64.3791C21.2181 64.3591 21.1801 64.3461 21.1431 64.3331C21.1761 64.2451 21.2091 64.1571 21.2231 64.0631C21.2291 64.0211 21.2421 63.9861 21.2511 63.9481C21.2661 63.8991 21.2821 63.8501 21.2951 63.7991C21.3151 63.7471 21.3351 63.6951 21.3601 63.6381C21.4671 63.3951 21.6131 63.1681 21.7101 62.9211C21.7981 62.6981 21.9341 62.4661 22.0851 62.2771C22.1661 62.1761 22.2651 62.0921 22.3701 62.0181C22.4921 61.9321 22.6281 61.9081 22.7771 61.9071C23.3301 61.9031 23.7271 62.5761 23.5131 63.0751ZM3.10612 71.9491C0.896119 68.2991 0.593115 63.4401 1.16812 59.2911C1.42412 57.4401 1.63112 55.5541 1.99412 53.7221C2.36412 51.8571 2.79412 49.6891 3.74012 48.0201C4.12312 47.3451 4.59212 46.8051 4.94512 46.1031C5.32912 45.3361 5.46212 44.6411 5.73712 43.8401C5.98012 43.1321 6.15412 42.3651 6.30012 41.6291C6.41712 41.0391 6.17311 40.2881 6.42411 39.7601C6.45611 40.7621 7.42312 42.1921 7.96412 42.8321C9.24412 44.3471 10.4301 46.0241 11.4521 47.7321C12.5821 49.6201 13.3701 51.3881 13.8501 53.5341C14.2601 55.3681 14.5411 57.4271 14.5581 59.3131C14.5671 60.3261 14.5471 61.5321 14.2861 62.5041C14.0051 63.5471 13.5201 64.5671 13.1431 65.5781C12.4571 67.4201 11.9141 69.2121 11.6051 71.1591C11.4781 71.9611 11.5211 72.7591 11.4201 73.5611C11.3061 74.4641 10.9741 75.3061 10.9301 76.2231C10.9101 76.6441 10.7501 77.9891 10.9941 78.8421C10.6611 78.3081 10.3371 77.7701 10.0301 77.2381C9.03711 75.5141 8.55011 73.5721 8.14811 71.6411C7.73811 69.6751 7.14611 67.6471 6.97811 65.6481C6.81411 63.6981 6.81612 61.6461 7.04612 59.7011C7.17312 58.6281 7.31211 57.5551 7.44311 56.4831C7.55411 55.5761 7.92912 54.7471 8.00112 53.8401C8.01912 53.6231 7.65811 53.5711 7.61811 53.7881C7.43311 54.7761 6.91011 55.6321 6.73611 56.6341C6.55911 57.6541 6.35412 58.6761 6.21212 59.7011C5.93512 61.7071 5.93112 63.8571 6.12112 65.8751C6.29812 67.7561 6.83411 69.6161 7.20411 71.4671C7.57911 73.3441 8.01211 75.2241 8.85911 76.9531C9.27511 77.8031 9.77511 78.6561 10.3161 79.4831C7.64611 77.1931 4.96412 75.0181 3.10612 71.9491ZM35.8731 64.9301C35.9231 64.6701 35.9791 64.4131 36.0611 64.1601C36.0861 64.0811 36.1191 64.0031 36.1491 63.9261C36.1861 63.9501 36.2241 63.9721 36.2671 63.9871C36.3561 64.0381 36.4531 64.0641 36.5581 64.0641C36.6051 64.0591 36.6521 64.0551 36.6991 64.0501C36.8931 64.4341 37.0841 64.8181 37.2551 65.2131C37.4461 65.6571 37.2641 66.1561 36.9111 66.4601C36.7461 66.6021 36.5701 66.7361 36.3421 66.6621C36.1291 66.5931 35.9721 66.3801 35.8851 66.1841C35.7111 65.7901 35.7941 65.3361 35.8731 64.9301ZM35.6461 64.2091C35.5391 64.3661 35.4061 64.4991 35.2811 64.6411C35.1631 64.7751 35.0391 64.9191 34.8901 65.0201C34.7261 65.1311 34.5311 65.1871 34.3351 65.2041C34.1721 65.2171 33.9981 65.2161 33.8501 65.1381C33.6791 65.0481 33.6021 64.8331 33.6031 64.6451C33.6051 64.4421 33.7581 64.2561 33.8991 64.1231C34.0331 63.9961 34.1931 63.8981 34.3581 63.8171C34.5671 63.7141 34.7911 63.6391 35.0201 63.5971C35.1341 63.5761 35.2501 63.5621 35.3641 63.5381C35.4491 63.5201 35.5301 63.5011 35.6121 63.4861C35.6451 63.4811 35.6781 63.4741 35.7121 63.4731C35.7571 63.4711 35.8031 63.4731 35.8481 63.4741C35.8571 63.5061 35.8651 63.5391 35.8791 63.5691C35.8991 63.6411 35.9361 63.7041 35.9821 63.7621C35.9791 63.7671 35.9761 63.7721 35.9731 63.7771C35.9651 63.7931 35.9571 63.8091 35.9491 63.8251C35.8431 63.9491 35.7381 64.0731 35.6461 64.2091ZM36.8971 63.9931C36.9721 63.9591 37.0431 63.9181 37.1061 63.8611C37.1481 63.8111 37.1891 63.7611 37.2311 63.7111C37.2591 63.6671 37.2771 63.6201 37.2951 63.5721C37.3341 63.5841 37.3751 63.5921 37.4171 63.5991C37.5771 63.6271 37.7221 63.6871 37.8791 63.7201C37.8791 63.7201 37.8791 63.7201 37.8801 63.7201C37.9361 63.7521 37.9921 63.7841 38.0491 63.8131C38.1541 63.8651 38.2771 63.8771 38.3731 63.9481C38.4531 64.0071 38.5141 64.0791 38.6011 64.1311C38.7071 64.1951 38.7981 64.2611 38.8861 64.3491C39.0431 64.5071 39.2381 64.6701 39.3441 64.8671C39.4351 65.0351 39.5891 65.3271 39.4931 65.5161C39.3971 65.7051 39.0361 65.7451 38.8611 65.6881C38.6241 65.6111 38.4101 65.4911 38.2111 65.3441C38.1241 65.2801 38.0331 65.2291 37.9431 65.1711C37.8431 65.1051 37.7641 64.9901 37.6801 64.9041C37.6011 64.8231 37.5371 64.7381 37.4511 64.6651C37.3461 64.5771 37.2881 64.4621 37.2121 64.3511C37.1381 64.2421 37.0561 64.1341 36.9611 64.0431C36.9431 64.0251 36.9191 64.0101 36.8971 63.9931ZM39.6271 64.9021C39.5631 64.7621 39.4871 64.6271 39.3821 64.5241C39.1851 64.3311 39.0041 64.1011 38.7551 63.9761C38.6531 63.9251 38.5681 63.8501 38.4731 63.7931C38.5751 63.7941 38.6771 63.7951 38.7831 63.8161C38.9211 63.8431 39.0581 63.8321 39.1981 63.8361C39.3541 63.8391 39.5091 63.8501 39.6631 63.8231C39.7861 63.8021 39.9131 63.7741 40.0371 63.7371C39.8961 64.1251 39.7611 64.5141 39.6271 64.9021ZM38.5971 62.7081C38.8561 62.6681 39.1121 62.6061 39.3691 62.5551C39.5071 62.5281 39.6421 62.5331 39.7821 62.5401C39.9201 62.5471 40.0631 62.5401 40.2001 62.5611C40.4151 62.5941 40.6721 62.7611 40.5901 63.0111C40.5181 63.2321 40.2841 63.3631 40.0781 63.4351C39.8741 63.5061 39.6401 63.5721 39.4231 63.5661C39.3021 63.5621 39.1821 63.5491 39.0621 63.5441C38.9321 63.5391 38.8191 63.5021 38.6921 63.4831C38.5551 63.4621 38.4151 63.4821 38.2781 63.4591C38.1411 63.4361 38.0001 63.4061 37.8661 63.3701C37.7071 63.3281 37.5241 63.2951 37.3491 63.3001C37.3501 63.2471 37.3451 63.1961 37.3331 63.1461C37.3891 63.1141 37.4461 63.0841 37.5031 63.0531C37.5481 63.0281 37.5901 62.9981 37.6321 62.9671C37.9391 62.8431 38.2621 62.7591 38.5971 62.7081ZM36.8771 62.3001C36.8831 62.2581 36.8951 62.2231 36.9051 62.1851C36.9201 62.1361 36.9361 62.0871 36.9491 62.0361C36.9691 61.9841 36.9891 61.9321 37.0141 61.8751C37.1211 61.6321 37.2671 61.4051 37.3641 61.1581C37.4521 60.9351 37.5881 60.7031 37.7391 60.5141C37.8201 60.4131 37.9191 60.3291 38.0241 60.2551C38.1461 60.1691 38.2821 60.1451 38.4301 60.1441C38.9841 60.1391 39.3811 60.8121 39.1671 61.3111C39.0651 61.5481 38.9351 61.7561 38.7481 61.9331C38.5501 62.1191 38.3181 62.2441 38.0991 62.4011C37.9871 62.4811 37.8701 62.5191 37.7471 62.5761C37.6281 62.6321 37.5341 62.7271 37.4191 62.7911C37.3581 62.8251 37.2951 62.8571 37.2331 62.8911C37.2091 62.8521 37.1811 62.8161 37.1481 62.7821C37.0821 62.7051 37.0021 62.6491 36.9091 62.6151C36.8741 62.5951 36.8361 62.5821 36.7991 62.5701C36.8311 62.4821 36.8631 62.3941 36.8771 62.3001ZM35.8261 62.1031C35.6931 61.9181 35.6171 61.7141 35.4841 61.5311C35.3421 61.3341 35.2711 61.0721 35.2241 60.8361C35.1831 60.6311 35.0831 60.3851 35.1391 60.1731C35.1911 59.9761 35.4471 59.8361 35.6201 59.7791C35.8951 59.6891 36.1211 59.7931 36.3271 59.9821C36.6651 60.2911 36.7881 60.7011 36.7661 61.1511C36.7521 61.4241 36.7731 61.7151 36.7031 61.9821C36.6691 62.1131 36.6271 62.2451 36.5991 62.3771C36.5881 62.4281 36.5791 62.4861 36.5761 62.5431C36.5211 62.5481 36.4671 62.5531 36.4121 62.5591C36.3331 62.5781 36.2631 62.6111 36.1961 62.6511C36.0651 62.4761 35.9541 62.2801 35.8261 62.1031ZM35.4051 62.4441C35.5951 62.5821 35.7601 62.7471 35.9421 62.8931C35.8701 63.0091 35.8301 63.1351 35.8241 63.2721C35.8221 63.2991 35.8261 63.3251 35.8281 63.3511C35.7331 63.3461 35.6371 63.3441 35.5411 63.3551C35.4251 63.3681 35.3101 63.3901 35.1921 63.3891C35.0621 63.3891 34.9311 63.3731 34.8001 63.3691C34.5721 63.3621 34.3461 63.3391 34.1251 63.2781C33.9411 63.2271 33.7061 63.1401 33.6211 62.9521C33.6001 62.9051 33.5961 62.8451 33.5801 62.7961C33.5641 62.7451 33.5351 62.6951 33.5351 62.6391C33.5361 62.5301 33.6351 62.4301 33.7091 62.3601C33.8571 62.2201 34.0561 62.1511 34.2551 62.1181C34.6841 62.0471 35.0611 62.1951 35.4051 62.4441ZM32.5841 58.4051C32.3651 58.1081 32.1001 57.8591 31.8291 57.6101C31.7021 57.4921 31.5861 57.3641 31.4691 57.2361C31.8431 57.5301 32.2371 57.7821 32.6571 57.9971C32.6511 58.1631 32.6431 58.3281 32.6341 58.4931C32.6161 58.4651 32.6051 58.4331 32.5841 58.4051ZM36.8681 55.8861C36.9281 55.9941 36.9491 56.1331 36.9961 56.2481C37.0431 56.3661 37.1231 56.4781 37.1331 56.6101C37.1531 56.8671 36.9381 57.1241 36.7781 57.3041C36.4561 57.6641 35.9981 57.8671 35.5351 57.9831C34.5361 58.2341 33.6161 57.9581 32.7551 57.4361C32.2791 57.1481 31.8561 56.7891 31.3971 56.4801C31.5461 56.1921 31.6141 55.8871 31.6011 55.5631C31.6011 55.4981 31.5851 55.4381 31.5761 55.3761C31.8021 55.3691 32.0281 55.3561 32.2541 55.3111C32.5261 55.2571 32.7941 55.1831 33.0711 55.1611C33.3791 55.1371 33.6911 55.1471 34.0011 55.1311C34.5411 55.1021 35.0801 55.1131 35.6121 55.2141C36.0581 55.2981 36.6291 55.4571 36.8681 55.8861ZM31.7641 51.5591C31.7941 51.2591 31.8161 50.9511 31.8221 50.6421C31.9561 50.6991 32.0931 50.7461 32.2391 50.7661C32.3221 50.7781 32.4121 50.7821 32.5021 50.7841C32.5811 50.8511 32.6721 50.9101 32.7611 50.9681C32.7601 51.0481 32.7581 51.1271 32.7581 51.2071C32.7451 51.2221 32.7271 51.2321 32.7141 51.2471C32.3511 51.6661 32.0691 52.1891 31.7761 52.6591C31.6951 52.7891 31.6311 52.9271 31.5671 53.0651C31.6611 52.5691 31.7151 52.0641 31.7641 51.5591ZM31.8391 53.3141C32.0601 52.9221 32.3481 52.5821 32.6161 52.2221C32.8691 51.8821 33.1341 51.5181 33.4661 51.2501C33.8311 50.9551 34.2811 50.7841 34.7401 50.7071C35.1221 50.6431 35.5331 50.6111 35.8991 50.7671C36.3211 50.9471 36.5461 51.4391 36.5791 51.8831C36.6151 52.3631 36.2901 52.8331 35.9831 53.1761C35.6911 53.5021 35.3321 53.7651 34.9591 53.9891C34.4851 54.2741 33.9711 54.4941 33.4381 54.6401C33.1731 54.7131 32.9021 54.7681 32.6381 54.8471C32.4421 54.9061 32.2541 54.9661 32.0621 55.0181C31.9841 55.0351 31.9081 55.0581 31.8291 55.0691C31.7231 55.0841 31.6151 55.0861 31.5071 55.0931C31.4791 55.0191 31.4561 54.9431 31.4151 54.8741C31.3531 54.7081 31.2531 54.5671 31.1341 54.4381C31.1391 54.4251 31.1471 54.4141 31.1521 54.4011C31.1681 54.3621 31.1841 54.3231 31.2001 54.2841C31.4241 53.9671 31.6481 53.6521 31.8391 53.3141ZM34.8611 54.8401C34.5911 54.8071 34.3201 54.7741 34.0451 54.7641C34.3391 54.6421 34.6231 54.4991 34.8961 54.3371C34.8611 54.5041 34.8501 54.6711 34.8611 54.8401ZM36.4361 55.2471C36.0151 55.0361 35.5551 54.9301 35.0901 54.8631C35.0911 54.6031 35.1511 54.3551 35.2541 54.1171C35.6711 53.8351 36.1051 53.4771 36.4091 53.0541C36.4611 53.0621 36.5121 53.0751 36.5671 53.0751C36.6031 53.0761 36.6371 53.0691 36.6721 53.0661C36.6701 53.1931 36.6721 53.3191 36.6911 53.4461C36.7141 53.5991 36.7491 53.7501 36.7541 53.9061C36.7601 54.0791 36.7461 54.2521 36.7471 54.4251C36.7501 54.7271 36.7301 55.0271 36.6611 55.3221C36.6571 55.3381 36.6511 55.3551 36.6471 55.3711C36.5781 55.3281 36.5081 55.2831 36.4361 55.2471ZM39.0641 51.0841C39.6421 50.8081 40.3111 51.0241 40.7321 51.4761C40.9281 51.6871 41.1141 51.9131 41.0281 52.2181C40.9471 52.5031 40.6741 52.7211 40.4191 52.8461C39.9061 53.0971 39.3011 53.0101 38.7591 52.9261C38.4131 52.8721 38.0701 52.8111 37.7311 52.7171C37.6241 52.6871 37.5211 52.6491 37.4161 52.6121C37.4471 52.5621 37.4731 52.5101 37.4911 52.4531C37.5541 52.3331 37.5831 52.2031 37.5781 52.0641C37.5701 52.0021 37.5611 51.9401 37.5531 51.8791C38.0521 51.6031 38.5491 51.3301 39.0641 51.0841ZM36.9211 50.9511C36.9501 50.7381 37.0211 50.5421 37.0581 50.3331C37.0971 50.2571 37.1371 50.1821 37.1721 50.1041C37.2361 49.9621 37.2461 49.7991 37.3341 49.6691C37.4081 49.5611 37.5001 49.4751 37.5651 49.3591C37.6451 49.2161 37.7271 49.0911 37.8391 48.9711C38.0411 48.7561 38.2461 48.4901 38.5021 48.3391C38.7201 48.2101 39.0981 47.9911 39.3541 48.1091C39.6091 48.2261 39.6801 48.7021 39.6131 48.9361C39.5231 49.2541 39.3761 49.5431 39.1901 49.8131C39.1101 49.9301 39.0471 50.0551 38.9741 50.1761C38.8921 50.3121 38.7441 50.4221 38.6331 50.5371C38.5301 50.6451 38.4211 50.7341 38.3291 50.8531C38.2181 50.9961 38.0691 51.0791 37.9251 51.1841C37.7851 51.2871 37.6461 51.4011 37.5311 51.5311C37.5081 51.5571 37.4891 51.5891 37.4681 51.6191C37.4201 51.5211 37.3621 51.4291 37.2821 51.3501C37.2141 51.2971 37.1461 51.2451 37.0781 51.1921C37.0181 51.1571 36.9551 51.1351 36.8911 51.1141C36.9051 51.0601 36.9131 51.0061 36.9211 50.9511ZM36.9571 52.9881C37.0511 52.9571 37.1321 52.9051 37.2071 52.8421C37.2141 52.8451 37.2201 52.8501 37.2271 52.8531C37.2481 52.8631 37.2701 52.8731 37.2911 52.8831C37.4621 53.0161 37.6321 53.1491 37.8161 53.2641C38.0291 53.3971 38.2121 53.5661 38.4061 53.7251C38.5891 53.8751 38.7861 54.0321 38.9271 54.2241C39.0821 54.4351 39.1671 54.6901 39.1981 54.9491C39.2241 55.1641 39.2321 55.3941 39.1351 55.5941C39.0241 55.8251 38.7441 55.9381 38.4961 55.9461C38.2271 55.9541 37.9731 55.7611 37.7901 55.5811C37.6161 55.4101 37.4781 55.2031 37.3621 54.9891C37.2151 54.7171 37.1051 54.4251 37.0371 54.1241C37.0031 53.9741 36.9791 53.8211 36.9421 53.6721C36.9141 53.5611 36.8851 53.4551 36.8611 53.3461C36.8531 53.3021 36.8421 53.2591 36.8381 53.2141C36.8321 53.1541 36.8341 53.0941 36.8331 53.0341C36.8741 53.0201 36.9171 53.0091 36.9571 52.9881ZM35.4391 48.4211C35.3951 48.2391 35.3951 48.0611 35.3981 47.8751C35.4011 47.6921 35.3831 47.5031 35.4051 47.3211C35.4381 47.0351 35.6461 46.6871 35.9801 46.7821C36.2771 46.8661 36.4621 47.1691 36.5671 47.4381C36.6711 47.7041 36.7711 48.0111 36.7731 48.2981C36.7741 48.4581 36.7631 48.6171 36.7631 48.7771C36.7631 48.9491 36.7201 49.1011 36.7011 49.2701C36.6811 49.4531 36.7141 49.6371 36.6901 49.8191C36.6671 50.0021 36.6341 50.1891 36.5931 50.3691C36.5641 50.4991 36.5451 50.6421 36.5341 50.7871C36.5291 50.7791 36.5261 50.7681 36.5201 50.7601C36.3771 50.5541 36.1581 50.4031 35.9211 50.2961C35.8211 50.0161 35.7361 49.7311 35.6791 49.4341C35.6151 49.0941 35.5201 48.7591 35.4391 48.4211ZM34.6481 49.2741C34.9051 49.5261 35.0811 49.8271 35.3001 50.1101C35.3091 50.1211 35.3131 50.1331 35.3211 50.1451C34.8841 50.1111 34.3901 50.2191 33.9921 50.3631C33.6701 50.4801 33.3891 50.6631 33.1281 50.8741C33.0221 50.8121 32.9151 50.7501 32.8211 50.6811C32.6841 50.5791 32.5671 50.4521 32.4641 50.3171C32.3441 50.1591 32.3061 49.9811 32.2971 49.7851C32.2621 49.0521 33.1331 48.4921 33.8041 48.7511C34.1221 48.8731 34.4041 49.0341 34.6481 49.2741ZM32.7371 45.8871C32.7421 46.0821 32.7441 46.2771 32.7481 46.4721C32.4691 46.2691 32.1821 46.0751 31.9061 45.8861C31.7841 45.8021 31.6531 45.7341 31.5221 45.6661C31.9231 45.7611 32.3301 45.8261 32.7371 45.8871ZM38.3901 44.6681C38.2831 44.8251 38.1511 44.9581 38.0251 45.1001C37.9071 45.2341 37.7831 45.3781 37.6341 45.4791C37.4701 45.5901 37.2751 45.6461 37.0791 45.6631C36.9161 45.6771 36.7421 45.6751 36.5941 45.5971C36.4231 45.5071 36.3461 45.2921 36.3471 45.1041C36.3481 44.9011 36.5021 44.7151 36.6431 44.5821C36.7771 44.4551 36.9371 44.3571 37.1021 44.2761C37.3111 44.1731 37.5351 44.0981 37.7641 44.0561C37.8781 44.0351 37.9941 44.0211 38.1081 43.9971C38.1931 43.9791 38.2741 43.9601 38.3561 43.9451C38.3891 43.9411 38.4221 43.9341 38.4561 43.9321C38.5011 43.9301 38.5471 43.9321 38.5921 43.9331C38.6011 43.9651 38.6081 43.9981 38.6231 44.0281C38.6431 44.1001 38.6811 44.1631 38.7261 44.2211C38.7231 44.2261 38.7201 44.2311 38.7171 44.2361C38.7091 44.2521 38.7011 44.2681 38.6931 44.2841C38.5871 44.4081 38.4821 44.5331 38.3901 44.6681ZM37.3611 43.9551C37.4121 43.9631 37.4611 43.9761 37.5131 43.9821C37.4571 44.0001 37.4051 44.0271 37.3501 44.0481C37.3551 44.0161 37.3591 43.9861 37.3611 43.9551ZM39.9991 45.6731C40.1911 46.1171 40.0081 46.6151 39.6551 46.9201C39.4911 47.0621 39.3141 47.1961 39.0871 47.1221C38.8741 47.0531 38.7171 46.8401 38.6301 46.6441C38.4551 46.2491 38.5381 45.7951 38.6171 45.3891C38.6681 45.1291 38.7241 44.8721 38.8051 44.6191C38.8311 44.5391 38.8631 44.4621 38.8931 44.3851C38.9301 44.4101 38.9691 44.4311 39.0111 44.4461C39.1001 44.4971 39.1971 44.5231 39.3031 44.5231C39.3501 44.5191 39.3971 44.5141 39.4441 44.5101C39.6371 44.8941 39.8281 45.2771 39.9991 45.6731ZM41.3441 44.5921C41.4501 44.6561 41.5421 44.7221 41.6291 44.8101C41.7861 44.9681 41.9801 45.1311 42.0871 45.3281C42.1781 45.4961 42.3331 45.7881 42.2361 45.9771C42.1401 46.1661 41.7791 46.2061 41.6041 46.1491C41.3671 46.0721 41.1531 45.9521 40.9541 45.8051C40.8681 45.7411 40.7761 45.6901 40.6861 45.6321C40.5861 45.5661 40.5081 45.4511 40.4231 45.3641C40.3441 45.2831 40.2811 45.1981 40.1941 45.1251C40.0891 45.0371 40.0311 44.9221 39.9551 44.8111C39.8811 44.7021 39.7991 44.5941 39.7041 44.5031C39.6851 44.4851 39.6621 44.4691 39.6401 44.4531C39.7151 44.4191 39.7861 44.3781 39.8481 44.3211C39.8901 44.2711 39.9321 44.2211 39.9731 44.1711C40.0011 44.1271 40.0191 44.0801 40.0371 44.0321C40.0761 44.0441 40.1171 44.0521 40.1591 44.0591C40.3191 44.0871 40.4641 44.1471 40.6211 44.1811C40.6771 44.2131 40.7341 44.2451 40.7911 44.2741C40.8971 44.3261 41.0191 44.3381 41.1151 44.4091C41.1961 44.4671 41.2581 44.5391 41.3441 44.5921ZM41.3411 43.1671C41.6001 43.1271 41.8561 43.0651 42.1131 43.0141C42.2511 42.9871 42.3861 42.9921 42.5261 42.9991C42.6641 43.0061 42.8071 42.9991 42.9441 43.0201C43.1591 43.0531 43.4161 43.2201 43.3341 43.4691C43.2621 43.6901 43.0281 43.8221 42.8221 43.8931C42.6181 43.9641 42.3831 44.0301 42.1671 44.0241C42.0461 44.0201 41.9261 44.0071 41.8061 44.0021C41.6761 43.9971 41.5621 43.9601 41.4361 43.9411C41.2991 43.9201 41.1591 43.9401 41.0221 43.9171C40.8851 43.8941 40.7441 43.8641 40.6101 43.8281C40.4521 43.7861 40.2681 43.7531 40.0931 43.7581C40.0941 43.7051 40.0891 43.6541 40.0771 43.6041C40.1331 43.5721 40.1911 43.5421 40.2471 43.5111C40.2921 43.4861 40.3341 43.4561 40.3761 43.4261C40.6831 43.3021 41.0061 43.2191 41.3411 43.1671ZM39.6221 42.7591C39.6281 42.7171 39.6401 42.6821 39.6501 42.6441C39.6651 42.5951 39.6811 42.5461 39.6941 42.4961C39.7141 42.4441 39.7341 42.3921 39.7601 42.3351C39.8671 42.0921 40.0131 41.8651 40.1101 41.6181C40.1981 41.3951 40.3341 41.1631 40.4851 40.9741C40.5661 40.8731 40.6651 40.7891 40.7701 40.7151C40.8931 40.6291 41.0281 40.6051 41.1771 40.6041C41.7311 40.5991 42.1281 41.2721 41.9141 41.7711C41.8121 42.0081 41.6821 42.2161 41.4951 42.3931C41.2971 42.5791 41.0651 42.7041 40.8451 42.8611C40.7331 42.9411 40.6161 42.9791 40.4931 43.0361C40.3741 43.0921 40.2801 43.1871 40.1651 43.2511C40.1031 43.2851 40.0401 43.3171 39.9781 43.3511C39.9541 43.3121 39.9271 43.2751 39.8931 43.2421C39.8271 43.1651 39.7471 43.1091 39.6541 43.0751C39.6191 43.0551 39.5811 43.0421 39.5441 43.0301C39.5751 42.9411 39.6081 42.8531 39.6221 42.7591ZM38.5701 42.5621C38.4371 42.3771 38.3611 42.1731 38.2291 41.9901C38.0871 41.7931 38.0161 41.5311 37.9681 41.2951C37.9271 41.0901 37.8271 40.8441 37.8831 40.6321C37.9351 40.4351 38.1911 40.2951 38.3641 40.2381C38.6391 40.1481 38.8651 40.2521 39.0711 40.4411C39.4091 40.7501 39.5321 41.1601 39.5101 41.6101C39.4961 41.8831 39.5171 42.1741 39.4471 42.4401C39.4131 42.5711 39.3711 42.7041 39.3431 42.8351C39.3321 42.8861 39.3231 42.9441 39.3201 43.0011C39.2661 43.0061 39.2111 43.0121 39.1561 43.0171C39.0781 43.0361 39.0071 43.0691 38.9401 43.1091C38.8091 42.9351 38.6981 42.7401 38.5701 42.5621ZM36.9991 42.5771C37.4281 42.5061 37.8051 42.6551 38.1481 42.9041C38.3381 43.0421 38.5031 43.2071 38.6861 43.3531C38.6131 43.4691 38.5741 43.5951 38.5681 43.7311C38.5661 43.7581 38.5701 43.7841 38.5721 43.8101C38.4771 43.8051 38.3811 43.8031 38.2841 43.8141C38.1681 43.8271 38.0531 43.8491 37.9351 43.8481C37.8051 43.8481 37.6741 43.8321 37.5431 43.8281C37.3151 43.8211 37.0891 43.7981 36.8691 43.7371C36.6851 43.6861 36.4501 43.5991 36.3651 43.4111C36.3441 43.3641 36.3391 43.3041 36.3241 43.2551C36.3081 43.2041 36.2791 43.1541 36.2791 43.0981C36.2801 42.9891 36.3791 42.8891 36.4531 42.8191C36.6021 42.6791 36.8011 42.6101 36.9991 42.5771ZM33.4341 42.1451C34.4291 41.6701 35.5771 42.0371 36.3071 42.8091C36.1931 42.9301 36.1281 43.0731 36.1951 43.2351C36.2331 43.3261 36.2481 43.4231 36.3051 43.5041C36.3621 43.5851 36.4421 43.6451 36.5251 43.6961C36.6291 43.7591 36.7411 43.8041 36.8561 43.8411C36.8571 43.9281 36.8611 44.0141 36.8341 44.1091C36.8041 44.2141 36.7531 44.3121 36.6961 44.4061C36.5441 44.5221 36.4171 44.6611 36.3371 44.8231C36.1631 44.9741 35.9701 45.1031 35.7781 45.1971C34.8891 45.6321 33.8411 45.4811 32.9031 45.3361C32.3031 45.2431 31.7091 45.1371 31.1231 44.9741C30.9391 44.9231 30.7591 44.8561 30.5781 44.7931C30.6311 44.7061 30.6761 44.6161 30.7081 44.5171C30.8181 44.3081 30.8681 44.0841 30.8591 43.8431C30.8451 43.7361 30.8301 43.6291 30.8161 43.5221C31.6811 43.0431 32.5421 42.5701 33.4341 42.1451ZM32.4181 42.2611C32.3991 42.2711 32.3821 42.2831 32.3641 42.2931C32.3721 42.2851 32.3831 42.2801 32.3911 42.2721C32.4211 42.2421 32.4421 42.2071 32.4671 42.1741C32.4691 42.1931 32.4721 42.2121 32.4741 42.2311C32.4551 42.2411 32.4371 42.2521 32.4181 42.2611ZM29.7221 41.9141C29.7721 41.5451 29.8961 41.2061 29.9601 40.8451V40.8441C30.0281 40.7131 30.0971 40.5821 30.1581 40.4481C30.2681 40.2021 30.2861 39.9191 30.4381 39.6941C30.5661 39.5071 30.7251 39.3581 30.8371 39.1571C30.9751 38.9091 31.1171 38.6931 31.3121 38.4851C31.6611 38.1121 32.0171 37.6511 32.4591 37.3911C32.8371 37.1681 33.4911 36.7881 33.9341 36.9921C34.3761 37.1951 34.4991 38.0181 34.3831 38.4251C34.2261 38.9751 33.9721 39.4751 33.6511 39.9441C33.5121 40.1471 33.4041 40.3621 33.2781 40.5721C33.1361 40.8081 32.8791 40.9971 32.6881 41.1971C32.5091 41.3851 32.3211 41.5381 32.1611 41.7441C31.9691 41.9921 31.7101 42.1351 31.4621 42.3181C31.2201 42.4961 30.9791 42.6941 30.7791 42.9191C30.7391 42.9641 30.7051 43.0191 30.6701 43.0711C30.5871 42.9021 30.4861 42.7431 30.3491 42.6051C30.2311 42.5141 30.1131 42.4231 29.9951 42.3311C29.8911 42.2711 29.7821 42.2331 29.6721 42.1951C29.6951 42.1031 29.7091 42.0101 29.7221 41.9141ZM29.7851 45.4411C29.9481 45.3881 30.0881 45.2981 30.2181 45.1881C30.2301 45.1941 30.2411 45.2021 30.2531 45.2071C30.2901 45.2241 30.3281 45.2411 30.3641 45.2581C30.6591 45.4891 30.9541 45.7191 31.2731 45.9181C31.6421 46.1491 31.9581 46.4411 32.2951 46.7161C32.6121 46.9751 32.9531 47.2471 33.1971 47.5791C33.3701 47.8141 33.4761 48.0841 33.5561 48.3641C32.9231 48.3231 32.2781 48.7191 32.0591 49.3151C31.9391 49.6431 31.9481 50.1121 32.1501 50.4061C32.1851 50.4571 32.2311 50.4891 32.2691 50.5341C32.1141 50.5101 31.9631 50.4611 31.8201 50.3831C31.8081 49.5891 31.6641 48.8031 31.1931 48.1421C30.8581 47.6711 30.3841 47.3051 29.8731 47.1701C29.8371 46.9881 29.8031 46.8041 29.7581 46.6241C29.7091 46.4321 29.6591 46.2481 29.6171 46.0601C29.6041 45.9841 29.5851 45.9091 29.5781 45.8321C29.5681 45.7281 29.5711 45.6241 29.5691 45.5201C29.6411 45.4971 29.7151 45.4771 29.7851 45.4411ZM24.7141 50.3301C24.6421 50.5511 24.4081 50.6831 24.2021 50.7541C23.9981 50.8251 23.7631 50.8911 23.5471 50.8841C23.4261 50.8801 23.3061 50.8671 23.1861 50.8621C23.0561 50.8571 22.9431 50.8201 22.8161 50.8011C22.6791 50.7801 22.5391 50.8001 22.4021 50.7771C22.2651 50.7541 22.1241 50.7241 21.9901 50.6881C21.8311 50.6461 21.6481 50.6131 21.4731 50.6181C21.4741 50.5651 21.4691 50.5141 21.4571 50.4641C21.5131 50.4321 21.5711 50.4021 21.6271 50.3711C21.6721 50.3461 21.7141 50.3161 21.7561 50.2851C22.0641 50.1591 22.3871 50.0751 22.7221 50.0241C22.9811 49.9841 23.2371 49.9221 23.4941 49.8711C23.6321 49.8441 23.7671 49.8491 23.9071 49.8561C24.0451 49.8631 24.1881 49.8561 24.3251 49.8771C24.5381 49.9131 24.7951 50.0801 24.7141 50.3301ZM24.9941 50.2691C25.0081 50.1161 24.9601 49.9601 24.8171 49.8241C24.6031 49.6211 24.3251 49.6031 24.0451 49.5931C23.8931 49.5881 23.7401 49.5711 23.5881 49.5851C23.4191 49.6011 23.2561 49.6521 23.0941 49.7001C22.8891 49.7611 22.6801 49.8131 22.4721 49.8691C22.6921 49.7171 22.9101 49.5751 23.1051 49.3841C23.2961 49.1971 23.4521 48.9361 23.5401 48.6821C23.6531 48.3581 23.5741 48.0061 23.3911 47.7251C23.7931 47.6621 24.1901 47.5481 24.5651 47.4051C24.8701 47.2891 25.1651 47.1591 25.4261 46.9591C25.5791 46.8411 25.7131 46.7181 25.8911 46.6371C26.0401 46.5691 26.1831 46.5111 26.3211 46.4191C26.6181 46.2201 26.8691 45.9751 27.1221 45.7241C27.2411 45.6061 27.3701 45.4991 27.4991 45.3921C27.1231 45.8291 26.7891 46.2841 26.5371 46.8051C26.0951 47.7221 25.9721 48.6701 26.3721 49.6281C26.5311 50.0091 26.8481 50.5861 27.2551 50.9091C27.4371 51.4021 27.7451 51.8411 28.0081 52.2991C28.0191 52.3181 28.0321 52.3351 28.0431 52.3541C28.0341 52.3461 28.0281 52.3351 28.0201 52.3281C27.9161 52.2341 27.7951 52.1721 27.6841 52.0901C27.5231 51.9721 27.4001 51.8131 27.2491 51.6841C27.0371 51.5021 26.8421 51.2661 26.6081 51.1161C26.3341 50.9401 26.0201 50.8241 25.7401 50.6531C25.5101 50.5111 25.2561 50.3831 24.9941 50.2691ZM27.1241 50.4211C26.8461 50.1051 26.6861 49.6991 26.6031 49.2881C26.4031 48.3121 26.7101 47.4351 27.2511 46.6261C27.5501 46.1791 27.9151 45.7861 28.2331 45.3551C28.5041 45.5111 28.7971 45.5911 29.1111 45.5911C29.1741 45.5931 29.2321 45.5811 29.2921 45.5751C29.2891 45.7941 29.2921 46.0131 29.3251 46.2331C29.3651 46.4981 29.4251 46.7601 29.4341 47.0291C29.4351 47.0591 29.4321 47.0901 29.4331 47.1201C29.1031 47.1261 28.7711 47.2311 28.4591 47.4891C28.0471 47.8321 27.6441 48.2541 27.4111 48.7431C27.1861 49.2161 27.0411 49.9021 27.1241 50.4211ZM27.1571 37.5321C27.0821 37.2171 27.0821 36.9081 27.0861 36.5871C27.0911 36.2701 27.0611 35.9431 27.0971 35.6271C27.1541 35.1321 27.5141 34.5291 28.0931 34.6931C28.6071 34.8391 28.9271 35.3641 29.1101 35.8301C29.2911 36.2911 29.4631 36.8231 29.4671 37.3201C29.4701 37.5961 29.4491 37.8731 29.4491 38.1501C29.4491 38.4481 29.3751 38.7111 29.3421 39.0031C29.3071 39.3191 29.3641 39.6381 29.3231 39.9541C29.2831 40.2701 29.2251 40.5951 29.1551 40.9071C29.0721 41.2741 29.0131 41.6971 29.0411 42.0981C28.9201 42.0991 28.8031 42.1161 28.6901 42.1491C28.6121 42.0231 28.5381 41.8941 28.4631 41.7681C28.4021 41.6661 28.3281 41.5741 28.2561 41.4811C27.9401 40.7861 27.7201 40.0541 27.5741 39.2901C27.4611 38.6981 27.2961 38.1171 27.1571 37.5321ZM24.1331 42.2491C23.6141 42.0681 23.0701 41.7761 22.6251 41.4461C22.3871 41.2701 22.1851 41.0501 22.0061 40.8161C21.7981 40.5431 21.7321 40.2341 21.7161 39.8941C21.6551 38.6251 23.1641 37.6561 24.3251 38.1031C24.8771 38.3161 25.3661 38.5951 25.7871 39.0101C26.2321 39.4471 26.5381 39.9671 26.9171 40.4571C27.1111 40.7071 27.2071 40.9711 27.3501 41.2491C27.4881 41.5171 27.7151 41.7241 27.8711 41.9811C27.9551 42.1191 28.0331 42.2611 28.1161 42.4001C28.0291 42.4581 27.9471 42.5241 27.8741 42.6041C27.7031 42.7631 27.5821 42.9501 27.5121 43.1671C27.4691 43.2491 27.4421 43.3361 27.4181 43.4241C27.2131 43.3551 27.0081 43.2871 26.7911 43.2651C26.6941 43.2551 26.6131 43.2301 26.5261 43.2111C26.4121 43.1801 26.2991 43.1481 26.1821 43.1241C26.0601 43.0831 25.9401 43.0411 25.8071 42.9891C25.2391 42.7641 24.7061 42.4491 24.1331 42.2491ZM21.1241 46.3671C20.8921 45.7441 21.1121 45.2181 21.5271 44.7291C22.2051 43.9281 23.1341 43.6091 24.1671 43.6211C24.7951 43.6281 25.4591 43.5561 26.0761 43.6921C26.3781 43.7591 26.6861 43.8431 26.9901 43.8951C27.1071 43.9161 27.2411 43.9311 27.3731 43.9331C27.3901 44.0581 27.4071 44.1821 27.4231 44.3071C27.4731 44.4851 27.5551 44.6441 27.6531 44.7941C27.2651 45.1111 26.8271 45.3831 26.4311 45.6911C26.0201 46.0121 25.5581 46.2041 25.1491 46.5241C24.7111 46.8671 24.1161 47.0531 23.5801 47.1821C23.3941 47.2271 23.1931 47.2911 22.9901 47.3481C22.9631 47.3341 22.9431 47.3091 22.9141 47.2971C22.6701 47.1971 22.3161 47.1901 22.0881 47.3341C22.0551 47.3551 22.0351 47.3821 22.0061 47.4051C21.5831 47.2661 21.2621 46.7401 21.1241 46.3671ZM21.0001 49.6181C21.0061 49.5761 21.0181 49.5411 21.0281 49.5031C21.0431 49.4541 21.0591 49.4051 21.0721 49.3541C21.0921 49.3021 21.1121 49.2501 21.1371 49.1931C21.2441 48.9501 21.3901 48.7231 21.4871 48.4761C21.5751 48.2531 21.7111 48.0211 21.8621 47.8321C21.9431 47.7311 22.0421 47.6471 22.1471 47.5731C22.2691 47.4871 22.4051 47.4631 22.5531 47.4621C23.1071 47.4571 23.5041 48.1301 23.2901 48.6291C23.1881 48.8661 23.0581 49.0741 22.8711 49.2511C22.6731 49.4371 22.4411 49.5621 22.2211 49.7191C22.1091 49.7991 21.9921 49.8371 21.8691 49.8941C21.7501 49.9501 21.6561 50.0451 21.5411 50.1091C21.4801 50.1431 21.4171 50.1751 21.3541 50.2091C21.3301 50.1701 21.3031 50.1331 21.2691 50.1001C21.2031 50.0231 21.1231 49.9671 21.0291 49.9331C20.9941 49.9131 20.9571 49.9001 20.9191 49.8871C20.9541 49.8011 20.9871 49.7121 21.0001 49.6181ZM19.9491 49.4221C19.8161 49.2371 19.7401 49.0331 19.6071 48.8491C19.4651 48.6521 19.3941 48.3901 19.3461 48.1541C19.3051 47.9491 19.2051 47.7031 19.2611 47.4911C19.3131 47.2941 19.5691 47.1541 19.7431 47.0971C20.0181 47.0071 20.2441 47.1111 20.4501 47.3001C20.7881 47.6091 20.9111 48.0191 20.8891 48.4691C20.8751 48.7421 20.8961 49.0331 20.8261 49.3001C20.7921 49.4311 20.7501 49.5631 20.7221 49.6951C20.7111 49.7461 20.7021 49.8041 20.6991 49.8611C20.6441 49.8661 20.5901 49.8711 20.5351 49.8771C20.4561 49.8961 20.3861 49.9291 20.3191 49.9691C20.1881 49.7951 20.0771 49.5991 19.9491 49.4221ZM18.2491 50.5971C18.0651 50.5461 17.8301 50.4591 17.7451 50.2711C17.7241 50.2241 17.7191 50.1641 17.7041 50.1151C17.6881 50.0641 17.6591 50.0141 17.6591 49.9581C17.6601 49.8491 17.7591 49.7491 17.8321 49.6791C17.9801 49.5391 18.1801 49.4701 18.3781 49.4371C18.8071 49.3661 19.1831 49.5151 19.5271 49.7641C19.7171 49.9021 19.8821 50.0671 20.0651 50.2131C19.9921 50.3291 19.9531 50.4551 19.9471 50.5911C19.9451 50.6181 19.9491 50.6441 19.9511 50.6701C19.8551 50.6651 19.7601 50.6631 19.6641 50.6731C19.5481 50.6861 19.4331 50.7081 19.3151 50.7071C19.1841 50.7061 19.0541 50.6911 18.9231 50.6871C18.6961 50.6811 18.4701 50.6581 18.2491 50.5971ZM19.7691 51.5281C19.6621 51.6851 19.5301 51.8181 19.4041 51.9601C19.2861 52.0941 19.1621 52.2381 19.0131 52.3391C18.8491 52.4501 18.6541 52.5061 18.4581 52.5231C18.2951 52.5371 18.1211 52.5351 17.9731 52.4571C17.8021 52.3661 17.7241 52.1521 17.7261 51.9641C17.7271 51.7611 17.8811 51.5751 18.0221 51.4411C18.1561 51.3141 18.3161 51.2161 18.4811 51.1351C18.6901 51.0321 18.9141 50.9581 19.1431 50.9151C19.2571 50.8941 19.3731 50.8801 19.4861 50.8561C19.5711 50.8381 19.6521 50.8191 19.7341 50.8041C19.7671 50.8001 19.8001 50.7921 19.8341 50.7911C19.8791 50.7891 19.9251 50.7911 19.9701 50.7921C19.9791 50.8241 19.9861 50.8571 20.0011 50.8881C20.0211 50.9601 20.0581 51.0231 20.1041 51.0811C20.1021 51.0861 20.0981 51.0911 20.0951 51.0961C20.0871 51.1121 20.0791 51.1281 20.0711 51.1441C19.9661 51.2671 19.8611 51.3921 19.7691 51.5281ZM21.3781 52.5321C21.5701 52.9761 21.3871 53.4751 21.0341 53.7791C20.8691 53.9211 20.6931 54.0551 20.4651 53.9811C20.2521 53.9121 20.0951 53.6991 20.0081 53.5031C19.8341 53.1091 19.9171 52.6541 19.9961 52.2481C20.0461 51.9881 20.1021 51.7311 20.1841 51.4781C20.2101 51.3981 20.2411 51.3211 20.2721 51.2441C20.3091 51.2681 20.3471 51.2901 20.3901 51.3051C20.4791 51.3561 20.5761 51.3821 20.6811 51.3821C20.7281 51.3771 20.7751 51.3731 20.8221 51.3691C21.0161 51.7541 21.2071 52.1371 21.3781 52.5321ZM22.3341 52.6641C22.2481 52.6001 22.1561 52.5491 22.0661 52.4911C21.9661 52.4251 21.8881 52.3101 21.8031 52.2231C21.7241 52.1421 21.6611 52.0571 21.5731 51.9841C21.4681 51.8961 21.4101 51.7811 21.3351 51.6701C21.2611 51.5611 21.1791 51.4531 21.0841 51.3621C21.0651 51.3441 21.0421 51.3281 21.0201 51.3121C21.0951 51.2781 21.1661 51.2371 21.2281 51.1801C21.2701 51.1301 21.3111 51.0801 21.3531 51.0301C21.3811 50.9861 21.3991 50.9391 21.4171 50.8911C21.4571 50.9031 21.4971 50.9111 21.5391 50.9181C21.6991 50.9461 21.8451 51.0051 22.0011 51.0391C22.0571 51.0711 22.1131 51.1031 22.1711 51.1321C22.2761 51.1841 22.3991 51.1961 22.4951 51.2671C22.5751 51.3261 22.6371 51.3981 22.7231 51.4501C22.8291 51.5141 22.9201 51.5801 23.0081 51.6681C23.1651 51.8261 23.3601 51.9891 23.4661 52.1861C23.5571 52.3541 23.7111 52.6461 23.6151 52.8351C23.5191 53.0241 23.1581 53.0641 22.9831 53.0071C22.7471 52.9311 22.5331 52.8121 22.3341 52.6641ZM24.8741 54.0761C24.6111 53.9451 24.3821 53.8081 24.1571 53.6171C23.9771 53.4631 23.7801 53.3071 23.5901 53.1441C23.6171 53.1311 23.6521 53.1271 23.6761 53.1121C23.9001 52.9731 23.9231 52.7131 23.8521 52.4781C23.7841 52.2541 23.6721 52.0091 23.5041 51.8441C23.3071 51.6511 23.1261 51.4211 22.8771 51.2961C22.7751 51.2451 22.6901 51.1701 22.5941 51.1131C22.6961 51.1141 22.7981 51.1151 22.9041 51.1361C23.0421 51.1631 23.1791 51.1531 23.3191 51.1561C23.4741 51.1591 23.6291 51.1701 23.7831 51.1431C24.0231 51.1021 24.2781 51.0371 24.4961 50.9251C24.5951 50.8741 24.6881 50.8041 24.7671 50.7221C25.0391 50.8391 25.3011 50.9771 25.5551 51.1351C25.7711 51.2691 25.9981 51.3711 26.2211 51.4911C26.4711 51.6271 26.6781 51.8841 26.8941 52.0721C27.0961 52.2481 27.2631 52.4361 27.4831 52.5911C27.7481 52.7781 27.9081 53.0381 28.1081 53.2871C28.3031 53.5291 28.5191 53.7691 28.7611 53.9651C28.8091 54.0041 28.8671 54.0361 28.9231 54.0711C28.7521 54.1651 28.5931 54.2761 28.4561 54.4241C28.3671 54.5501 28.2781 54.6761 28.1901 54.8021C28.1331 54.9121 28.0981 55.0271 28.0651 55.1421C27.9691 55.1211 27.8721 55.1111 27.7721 55.1011C27.3891 55.0671 27.0331 54.9541 26.6571 54.9051C26.5181 54.8411 26.3791 54.7751 26.2371 54.7191C25.9781 54.6171 25.6851 54.6121 25.4461 54.4641C25.2481 54.3411 25.0881 54.1821 24.8741 54.0761ZM25.1611 57.4401C24.5561 57.5851 23.9641 57.7811 23.3671 57.9521C23.0451 58.0441 22.7271 58.0591 22.3941 58.0691C22.0661 58.0791 21.7301 58.1251 21.4021 58.1021C20.8881 58.0661 20.2481 57.7221 20.3911 57.1171C20.5181 56.5801 21.0451 56.2241 21.5181 56.0141C21.9861 55.8061 22.5271 55.6041 23.0401 55.5771C23.3251 55.5621 23.6121 55.5701 23.8981 55.5571C24.2061 55.5431 24.4811 55.6081 24.7851 55.6281C25.1131 55.6501 25.4401 55.5761 25.7681 55.6031C26.0971 55.6301 26.4351 55.6741 26.7591 55.7321C27.1421 55.8001 27.5821 55.8421 27.9951 55.7951C28.0021 55.9201 28.0251 56.0401 28.0641 56.1551C27.9371 56.2411 27.8081 56.3241 27.6811 56.4081C27.5791 56.4751 27.4871 56.5561 27.3941 56.6351C26.6891 56.9931 25.9431 57.2531 25.1611 57.4401ZM29.3051 58.0671C29.2991 58.1681 29.2771 58.2531 29.2621 58.3431C29.2361 58.4621 29.2071 58.5801 29.1881 58.7031C29.1511 58.8311 29.1141 58.9571 29.0651 59.0961C28.8591 59.6911 28.5601 60.2561 28.3791 60.8581C28.2161 61.4021 27.9401 61.9781 27.6191 62.4531C27.4481 62.7071 27.2311 62.9261 26.9971 63.1221C26.7251 63.3491 26.4081 63.4321 26.0581 63.4641C24.7501 63.5861 23.6791 62.0721 24.0871 60.8521C24.2811 60.2721 24.5481 59.7551 24.9561 59.3001C25.3871 58.8211 25.9101 58.4811 26.3991 58.0661C26.6481 57.8541 26.9161 57.7421 27.1971 57.5831C27.4681 57.4281 27.6701 57.1841 27.9291 57.0111C28.0671 56.9181 28.2111 56.8301 28.3511 56.7381C28.4151 56.8251 28.4871 56.9061 28.5731 56.9791C28.7451 57.1481 28.9441 57.2641 29.1711 57.3271C29.2581 57.3681 29.3491 57.3911 29.4411 57.4131C29.3791 57.6271 29.3181 57.8421 29.3051 58.0671ZM29.3831 53.8951C28.8501 53.0251 28.3221 52.1571 27.8411 51.2561C27.3011 50.2441 27.6341 49.0311 28.4081 48.2411C28.7691 47.8731 29.1591 47.5231 29.7121 47.6531C30.2281 47.7741 30.6411 48.2461 30.8841 48.6931C31.3741 49.5911 31.2671 50.6801 31.1601 51.6561C31.0921 52.2801 31.0101 52.8981 30.8691 53.5111C30.8241 53.7041 30.7641 53.8931 30.7071 54.0821C30.6151 54.0321 30.5191 53.9891 30.4161 53.9601C30.1961 53.8561 29.9611 53.8151 29.7131 53.8351C29.6021 53.8551 29.4931 53.8751 29.3831 53.8951ZM31.0601 63.4351C30.2021 62.7711 29.8291 61.8271 29.7941 60.7591C29.7731 60.1101 29.6671 59.4281 29.7791 58.7841C29.8341 58.4691 29.9061 58.1471 29.9471 57.8311C29.9631 57.7091 29.9731 57.5701 29.9691 57.4331C30.0971 57.4101 30.2251 57.3871 30.3531 57.3641C30.5351 57.3041 30.6951 57.2121 30.8461 57.1041C31.1911 57.4901 31.4921 57.9301 31.8291 58.3251C32.1801 58.7351 32.3991 59.2031 32.7481 59.6101C33.1221 60.0471 33.3421 60.6531 33.5001 61.2001C33.5871 61.5001 33.7221 61.8331 33.7951 62.1661C33.5591 62.3091 33.3451 62.5211 33.4511 62.7751C33.4891 62.8661 33.5041 62.9631 33.5611 63.0441C33.5851 63.0781 33.6221 63.0961 33.6531 63.1241C33.4311 63.4211 33.0581 63.6541 32.7711 63.7761C32.1381 64.0431 31.5841 63.8411 31.0601 63.4351ZM29.1511 68.4831C28.8701 67.9561 29.0431 67.3241 29.4471 66.9131C29.6351 66.7211 29.8381 66.5391 30.1261 66.6071C30.3951 66.6701 30.6101 66.9161 30.7371 67.1491C30.9921 67.6171 30.9371 68.1841 30.8811 68.6921C30.8451 69.0171 30.8031 69.3391 30.7291 69.6581C30.7061 69.7591 30.6741 69.8571 30.6451 69.9551C30.5971 69.9291 30.5471 69.9061 30.4931 69.8911C30.3781 69.8371 30.2561 69.8161 30.1261 69.8261C30.0691 69.8361 30.0121 69.8471 29.9541 69.8571C29.6761 69.4041 29.4021 68.9531 29.1511 68.4831ZM30.1611 72.4051C30.1901 72.2411 30.2271 72.0731 30.2491 71.9081C30.2571 71.8441 30.2621 71.7721 30.2601 71.7011C30.3261 71.6891 30.3931 71.6771 30.4601 71.6651C30.5541 71.6341 30.6381 71.5861 30.7171 71.5291C30.8971 71.7301 31.0541 71.9601 31.2291 72.1651C31.4121 72.3791 31.5261 72.6221 31.7081 72.8341C31.9031 73.0621 32.0171 73.3771 32.1001 73.6621C32.1721 73.9101 32.3201 74.2031 32.2731 74.4701C32.2291 74.7181 31.9281 74.9161 31.7211 75.0041C31.3911 75.1431 31.1031 75.0381 30.8301 74.8271C30.3831 74.4811 30.1891 73.9891 30.1701 73.4331C30.1571 73.0951 30.1021 72.7401 30.1611 72.4051ZM31.0971 70.6291C31.2151 70.6251 31.3331 70.6181 31.4511 70.5951C31.5931 70.5671 31.7321 70.5281 31.8771 70.5171C32.0381 70.5041 32.2001 70.5101 32.3611 70.5011C32.6421 70.4861 32.9231 70.4921 33.2001 70.5441C33.4321 70.5881 33.7291 70.6711 33.8541 70.8941C33.8851 70.9501 33.8971 71.0231 33.9201 71.0821C33.9451 71.1431 33.9861 71.2021 33.9911 71.2711C34.0011 71.4051 33.8891 71.5391 33.8061 71.6321C33.6381 71.8201 33.4001 71.9251 33.1591 71.9861C32.6381 72.1171 32.1601 71.9731 31.7111 71.7011C31.4631 71.5511 31.2431 71.3641 31.0031 71.2031C31.0801 71.0531 31.1161 70.8941 31.1091 70.7251C31.1091 70.6921 31.1011 70.6611 31.0971 70.6291ZM32.0661 70.2451C31.9281 70.2831 31.7871 70.3111 31.6491 70.3531C31.5471 70.3841 31.4491 70.4151 31.3491 70.4421C31.3091 70.4511 31.2691 70.4631 31.2271 70.4691C31.1721 70.4771 31.1151 70.4781 31.0601 70.4811C31.0461 70.4421 31.0331 70.4031 31.0121 70.3671C30.9791 70.2811 30.9271 70.2071 30.8661 70.1401C30.8691 70.1331 30.8731 70.1281 30.8751 70.1211C30.8831 70.1011 30.8921 70.0801 30.9001 70.0601C31.0171 69.8961 31.1341 69.7321 31.2331 69.5551C31.3481 69.3511 31.4981 69.1741 31.6381 68.9861C31.7701 68.8091 31.9081 68.6191 32.0811 68.4801C32.2711 68.3271 32.5051 68.2371 32.7451 68.1971C32.9441 68.1641 33.1581 68.1471 33.3491 68.2281C33.5691 68.3221 33.6861 68.5781 33.7041 68.8091C33.7231 69.0591 33.5541 69.3041 33.3941 69.4821C33.2421 69.6521 33.0551 69.7891 32.8601 69.9061C32.6121 70.0551 32.3441 70.1691 32.0661 70.2451ZM27.6061 69.9521C27.4691 69.8841 27.3501 69.8131 27.2331 69.7131C27.0241 69.5341 26.7681 69.3541 26.6171 69.1221C26.4881 68.9241 26.2681 68.5821 26.3671 68.3381C26.4661 68.0951 26.9061 68.0091 27.1271 68.0621C27.4271 68.1331 27.7021 68.2581 27.9621 68.4191C28.0751 68.4891 28.1931 68.5421 28.3091 68.6051C28.4391 68.6761 28.5471 68.8091 28.6601 68.9071C28.7651 68.9991 28.8521 69.0971 28.9671 69.1771C29.1051 69.2741 29.1881 69.4101 29.2931 69.5391C29.3951 69.6651 29.5071 69.7901 29.6331 69.8921C29.6581 69.9121 29.6881 69.9291 29.7171 69.9471C29.6281 69.9961 29.5451 70.0541 29.4741 70.1311C29.4281 70.1971 29.3821 70.2621 29.3351 70.3281C29.3051 70.3851 29.2871 70.4451 29.2701 70.5051C29.2201 70.4941 29.1691 70.4891 29.1181 70.4841C28.9191 70.4661 28.7331 70.4071 28.5371 70.3821C28.4651 70.3491 28.3931 70.3141 28.3191 70.2851C28.1841 70.2321 28.0311 70.2291 27.9071 70.1521C27.8011 70.0901 27.7171 70.0071 27.6061 69.9521ZM27.7551 71.7041C27.4401 71.7791 27.1321 71.8821 26.8201 71.9711C26.6531 72.0191 26.4871 72.0271 26.3131 72.0321C26.1421 72.0371 25.9671 72.0611 25.7961 72.0491C25.5281 72.0301 25.1951 71.8511 25.2701 71.5361C25.3361 71.2561 25.6111 71.0711 25.8571 70.9621C26.1011 70.8541 26.3831 70.7481 26.6501 70.7341C26.7991 70.7261 26.9481 70.7301 27.0971 70.7241C27.2571 70.7171 27.4011 70.7501 27.5591 70.7611C27.7301 70.7721 27.9001 70.7341 28.0711 70.7481C28.2421 70.7621 28.4181 70.7851 28.5871 70.8151C28.7861 70.8511 29.0161 70.8731 29.2311 70.8481C29.2351 70.9131 29.2471 70.9761 29.2671 71.0351C29.2011 71.0801 29.1331 71.1231 29.0671 71.1671C29.0141 71.2021 28.9661 71.2441 28.9171 71.2851C28.5511 71.4711 28.1631 71.6071 27.7551 71.7041ZM27.1961 73.4811C27.2971 73.1791 27.4361 72.9091 27.6481 72.6731C27.8731 72.4231 28.1451 72.2461 28.4001 72.0301C28.5301 71.9201 28.6701 71.8611 28.8151 71.7781C28.9561 71.6971 29.0611 71.5701 29.1961 71.4801C29.2681 71.4321 29.3421 71.3861 29.4151 71.3381C29.4481 71.3831 29.4861 71.4261 29.5301 71.4631C29.6191 71.5511 29.7231 71.6111 29.8421 71.6441C29.8871 71.6651 29.9351 71.6781 29.9821 71.6891C29.9501 71.8011 29.9191 71.9131 29.9111 72.0301C29.9081 72.0821 29.8961 72.1271 29.8881 72.1741C29.8741 72.2361 29.8601 72.2981 29.8491 72.3611C29.8301 72.4271 29.8101 72.4931 29.7851 72.5661C29.6781 72.8761 29.5221 73.1701 29.4281 73.4841C29.3431 73.7681 29.1991 74.0671 29.0321 74.3151C28.9431 74.4471 28.8301 74.5611 28.7081 74.6631C28.5661 74.7811 28.4011 74.8241 28.2191 74.8411C27.5411 74.9051 26.9831 74.1171 27.1961 73.4811ZM27.4331 82.5841C26.1491 83.8751 25.0841 85.3601 24.0691 86.8651C23.1481 88.2301 22.1631 89.5471 21.4681 91.0341C21.5031 90.8451 21.5251 90.6511 21.5631 90.4651C22.1701 87.5061 23.3481 84.6841 24.6151 81.9641C25.2381 80.6261 26.1351 79.4441 26.7271 78.0911C27.0021 77.4641 27.2281 76.8151 27.5361 76.2031C27.7261 75.8241 27.9651 75.4791 28.2001 75.1311C28.4211 75.1261 28.6451 75.0751 28.8071 74.9521C29.1061 74.7261 29.2781 74.4541 29.4461 74.1281C29.5371 73.9501 29.6231 73.8051 29.6721 73.6101C29.7121 73.4501 29.7741 73.3001 29.8351 73.1481C29.8471 73.2761 29.8611 73.4031 29.8751 73.5281C29.9431 74.1421 30.2121 74.6691 30.7281 75.0201C30.9721 75.1861 31.2631 75.3051 31.5621 75.2461C31.8521 75.1881 32.0801 75.0351 32.2721 74.8181C32.4801 74.5841 32.4471 74.3831 32.4371 74.0891C32.4261 73.7581 32.3231 73.4291 32.1931 73.1281C32.1231 72.9661 32.0461 72.8111 31.9321 72.6761C31.8651 72.5961 31.7961 72.5271 31.7481 72.4341C31.7081 72.3551 31.6731 72.2801 31.6201 72.2081C31.5061 72.0531 31.3681 71.9241 31.2271 71.7941C31.1611 71.7331 31.1001 71.6661 31.0391 71.5991C31.2831 71.7901 31.5361 71.9601 31.8221 72.0821C32.3261 72.2981 32.8391 72.3411 33.3451 72.1031C33.6821 71.9441 34.3091 71.5391 34.0801 71.0961C34.0241 70.9881 33.9951 70.8701 33.9171 70.7761C33.8391 70.6831 33.7341 70.6171 33.6261 70.5631C33.4051 70.4521 33.1631 70.3961 32.9181 70.3621C32.7421 70.3371 32.5621 70.3191 32.3811 70.3121C32.5491 70.2421 32.7141 70.1631 32.8691 70.0671C33.2671 69.8191 33.7681 69.4261 33.8171 68.9201C33.8381 68.7001 33.8001 68.4121 33.6711 68.2261C33.5491 68.0511 33.3251 67.9421 33.1181 67.9091C32.8741 67.8711 32.5821 67.9361 32.3541 68.0181C32.0931 68.1131 31.8681 68.2701 31.6871 68.4801C31.4981 68.6981 31.3511 68.9711 31.1991 69.2161C31.1571 69.2841 31.1231 69.3551 31.0901 69.4281C31.1391 69.1681 31.1671 68.9051 31.1931 68.6421C31.2351 68.2171 31.2451 67.7651 31.1231 67.3541C31.2191 67.0751 31.3161 66.7961 31.4261 66.5191C31.7191 65.7791 31.9911 65.0231 32.2361 64.2551C32.3141 64.2521 32.3921 64.2571 32.4701 64.2411C33.0261 64.1301 33.4651 63.8361 33.8341 63.4191C33.8701 63.3781 33.8851 63.3401 33.9141 63.3001C34.0491 63.3641 34.1911 63.4131 34.3371 63.4471C34.4771 63.4791 34.6221 63.5061 34.7671 63.5241C34.6261 63.5691 34.4881 63.6221 34.3571 63.6891C34.0191 63.8621 33.5881 64.1461 33.5151 64.5511C33.4831 64.7271 33.4951 64.9621 33.5861 65.1201C33.6721 65.2691 33.8461 65.3731 34.0111 65.4131C34.2051 65.4601 34.4451 65.4271 34.6351 65.3761C34.8511 65.3171 35.0441 65.2051 35.2041 65.0481C35.3711 64.8851 35.5081 64.6751 35.6471 64.4871C35.6851 64.4351 35.7171 64.3801 35.7491 64.3231C35.6921 64.5291 35.6521 64.7401 35.6131 64.9501C35.5251 65.4321 35.4721 65.9651 35.7331 66.4061C35.9711 66.8071 36.4341 67.0741 36.8601 66.7761C37.0451 66.6461 37.2301 66.4831 37.3441 66.2861C37.4551 66.0951 37.5401 65.8121 37.5231 65.5911C37.5011 65.2901 37.3421 65.0371 37.2171 64.7711C37.2131 64.7631 37.2081 64.7551 37.2041 64.7471C37.2081 64.7511 37.2091 64.7551 37.2131 64.7591C37.2531 64.8021 37.3021 64.8321 37.3461 64.8711C37.4091 64.9261 37.4561 64.9971 37.5141 65.0571C37.5971 65.1411 37.6701 65.2471 37.7641 65.3181C37.8731 65.4021 38.0011 65.4611 38.1121 65.5431C38.3381 65.7091 38.6191 65.8601 38.8961 65.9151C39.0061 65.9371 39.1331 65.9291 39.2571 65.9031C39.0141 66.5521 38.7531 67.1961 38.4111 67.8171C37.5671 69.3491 36.7801 70.9081 35.8941 72.4141C34.8871 74.1251 33.7661 75.4941 32.3031 76.8371C30.7711 78.2431 29.7571 80.0151 28.4461 81.6001C28.4181 81.6341 28.4181 81.6701 28.4271 81.7031C28.0851 81.9751 27.7511 82.2661 27.4331 82.5841ZM59.4461 52.9841C59.3001 56.6231 58.1261 60.9591 56.1751 64.0551C55.2911 65.4571 54.2481 66.9201 53.1731 68.1781C51.9351 69.6271 50.7581 71.1501 49.4981 72.5771C48.8561 73.3031 48.1581 74.0061 47.4261 74.6411C46.7571 75.2211 46.0131 75.4871 45.2151 75.8481C43.3231 76.7041 41.3741 77.4071 39.4621 78.2131C37.9951 78.8311 36.5841 79.4071 35.0711 79.8541C34.2121 80.1081 33.4321 80.5081 32.5521 80.7401C31.9121 80.9091 31.2991 81.0171 30.6741 81.0911C31.6761 80.4961 32.7171 79.9611 33.6931 79.3241C35.0981 78.4091 36.1121 77.1271 37.3601 76.0311C38.7291 74.8281 40.1771 73.7111 41.5361 72.5071C44.2481 70.1041 46.6821 67.4781 48.9481 64.6481C50.1301 63.1711 51.0861 61.5211 51.9881 59.8621C52.5261 58.8711 52.9411 57.8411 53.4351 56.8301C53.8021 56.0801 54.1881 55.3871 54.4131 54.5781C54.4731 54.3621 54.1571 54.2821 54.0811 54.4871C53.7521 55.3771 53.1991 56.0981 52.7521 56.9251C52.2871 57.7851 51.8751 58.6621 51.3861 59.5121C50.4011 61.2231 49.4381 62.9241 48.1841 64.4561C46.9621 65.9481 45.7851 67.4111 44.4061 68.7641C43.0901 70.0561 41.7121 71.4641 40.2421 72.5641C38.8261 73.6231 37.4671 74.8411 36.1931 76.0681C35.4901 76.7451 34.8741 77.4971 34.1011 78.0991C33.3051 78.7201 32.4191 79.2121 31.5411 79.7061C30.7331 80.1601 29.9441 80.6241 29.1931 81.1441C30.1201 80.1521 30.9371 79.0581 31.8581 78.0621C32.8581 76.9811 34.0901 76.1481 34.9671 74.9501C35.8781 73.7051 36.7351 72.3481 37.4051 70.9571C38.1151 69.4831 39.0151 68.1051 39.6601 66.6001C40.3651 64.9541 40.8051 63.2361 41.5701 61.6121C41.9391 60.8301 42.3971 60.1411 42.8201 59.3921C43.2051 58.7111 43.4181 57.9381 43.8181 57.2701C44.5481 56.0511 45.4131 54.9511 46.2781 53.8311C47.2881 52.5221 48.3111 50.7581 49.7681 49.9191C51.1791 49.1061 52.9051 48.8001 54.4351 48.2891C55.7071 47.8651 56.9131 47.0581 57.9521 46.2281C58.2781 45.9681 59.0971 44.9121 59.3861 45.1751C59.4941 45.2731 59.3861 46.2891 59.3941 46.4601C59.4151 46.8791 59.4891 47.2901 59.5161 47.7081C59.6301 49.4261 59.5151 51.2611 59.4461 52.9841Z" fill="#696969"/>
</svg>
